<svg width="131" height="131" viewBox="0 0 131 131" fill="none" xmlns="http://www.w3.org/2000/svg">
  <path d="M60.0586 0.0335134C59.754 0.065581 58.7759 0.177818 57.894 0.257987C45.3556 1.57276 33.0096 6.87995 22.9404 15.3137C21.0804 16.853 16.8475 21.0859 15.3083 22.9458C6.97069 32.9028 2.09642 44.0784 0.300634 57.3062C-0.100211 60.2404 -0.100211 70.1493 0.300634 73.0835C2.09642 86.3114 6.97069 97.4869 15.3083 107.444C16.8475 109.304 21.0804 113.537 22.9404 115.076C32.8974 123.414 44.0729 128.288 57.3008 130.084C60.235 130.484 70.1439 130.484 73.0781 130.084C86.3059 128.288 97.4815 123.414 107.438 115.076C109.298 113.537 113.531 109.304 115.071 107.444C123.408 97.4869 128.282 86.3114 130.078 73.0835C130.479 70.1493 130.479 60.2404 130.078 57.3062C128.282 44.0784 123.408 32.9028 115.071 22.9458C113.531 21.0859 109.298 16.853 107.438 15.3137C97.5136 7.00822 86.2258 2.06981 73.1743 0.322122C71.7633 0.129716 69.711 0.0495472 65.9109 0.0174796C63.0088 -0.014588 60.3632 0.00144577 60.0586 0.0335134ZM60.8603 6.96011C60.8603 8.83607 60.9886 12.9087 61.1649 16.7728C61.2611 18.6648 61.3734 21.3745 61.4215 22.7855C61.5979 27.788 62.127 40.9197 62.2071 42.0902L62.2873 43.2606L61.5658 43.1805C61.1649 43.1484 60.7962 43.0522 60.732 43.0041C60.6839 42.94 60.5717 41.8336 60.5076 40.5349C60.2189 34.8269 59.2729 12.6842 59.1767 9.44535L59.0805 5.88585L59.5295 5.82171C59.77 5.78965 60.1708 5.74155 60.4274 5.72551L60.8603 5.70948V6.96011ZM76.2046 6.5753C76.2207 6.59134 76.2688 11.4335 76.3169 17.334C76.381 23.2505 76.4612 28.5576 76.5093 29.1349C76.5574 29.7281 76.5414 30.2412 76.4612 30.2733C76.397 30.3214 75.9962 30.3214 75.5954 30.2733L74.8578 30.2091L74.7456 25.5433C74.6814 22.9618 74.6013 20.1078 74.5692 19.1779C74.4409 16.3399 74.3287 6.70357 74.4249 6.46307C74.489 6.28669 74.6654 6.27066 75.3388 6.3829C75.8038 6.4791 76.1886 6.55927 76.2046 6.5753ZM39.1185 11.9466C39.2147 12.0909 39.9683 20.9256 40.8982 32.4859C41.2029 36.4142 41.5075 40.0058 41.5556 40.4547C41.6358 41.2724 41.6197 41.3045 41.1067 41.6252C40.818 41.8016 40.5294 41.9459 40.4653 41.9459C40.4172 41.9459 40.321 41.529 40.2729 41.0159C40.0484 38.9315 39.1826 28.8623 38.5733 21.5829C38.2206 17.3019 37.8999 13.4698 37.8518 13.053C37.7716 12.3475 37.7877 12.2833 38.2045 12.0589C38.7176 11.7863 39.0062 11.7382 39.1185 11.9466ZM83.2595 15.1694C83.7085 15.3298 83.7566 15.4099 83.8528 16.3239C84.0131 17.9272 83.965 25.5914 83.7886 25.5914C83.3236 25.5914 82.3616 25.0462 82.2815 24.7416C82.2334 24.5492 82.1852 22.2724 82.1852 19.691C82.1852 14.48 82.1211 14.7846 83.2595 15.1694ZM53.6451 15.923C53.6451 16.3559 53.7573 18.745 53.8856 21.2623C54.0139 23.7796 54.1582 26.9703 54.2223 28.3492C54.3345 31.1391 54.3666 31.0429 53.2923 31.107C52.7632 31.1231 52.7632 31.123 52.7312 30.3214C52.6991 29.8724 52.6189 28.4775 52.5227 27.1948C52.4426 25.9121 52.2501 23.1382 52.1219 21.0218C51.9936 18.9053 51.8333 16.8049 51.7852 16.3559C51.689 15.5542 51.705 15.5222 52.1379 15.3618C52.3944 15.2656 52.8434 15.1855 53.132 15.1855C53.6451 15.1694 53.6451 15.1694 53.6451 15.923ZM98.1228 18.1196L98.668 18.3441L98.7802 20.4926C98.8283 21.6631 98.8604 24.1964 98.8283 26.1045L98.7802 29.5998L98.1068 29.2631L97.4334 28.9425L97.3853 23.6192C97.3532 20.685 97.3693 18.1998 97.4013 18.0876C97.4655 17.8471 97.4655 17.8471 98.1228 18.1196ZM68.8451 20.2201C68.9413 20.3163 69.1658 28.0927 69.1818 32.037L69.1979 34.41L68.4443 34.2977C68.0114 34.2496 67.6586 34.2015 67.6426 34.1855C67.5945 34.1534 67.1135 22.2724 67.1135 21.118V19.9315L67.9312 20.0277C68.3962 20.0918 68.797 20.172 68.8451 20.2201ZM105.771 21.3585C105.963 21.5829 105.995 25.0943 106.044 44.4632C106.092 66.702 106.092 67.2793 105.803 67.2793C105.627 67.2793 105.386 67.1831 105.242 67.0708C105.001 66.8944 104.969 64.9544 104.889 45.9543C104.825 34.442 104.745 23.988 104.697 22.7213L104.601 20.4125L105.065 20.7492C105.338 20.9416 105.643 21.2142 105.771 21.3585ZM91.3886 24.6454C91.4688 24.7095 91.549 25.6235 91.565 26.6657C91.6452 30.2091 91.6612 51.9349 91.5811 51.9991C91.549 52.0311 91.2604 51.951 90.9397 51.8227L90.3625 51.5822V24.3087L90.8114 24.4049C91.0519 24.469 91.3085 24.5652 91.3886 24.6454ZM47.1354 25.5433C47.1835 25.9762 47.2636 26.9543 47.3117 27.756C47.3598 28.5416 47.4721 30.3374 47.5683 31.7323C47.7607 34.5543 47.7286 34.7307 46.8147 34.7307C46.3337 34.7307 46.2695 34.6826 46.2054 34.2015C46.0451 33.2555 45.4839 25.3669 45.5641 25.2386C45.6442 25.1264 46.478 24.8378 46.8628 24.8057C46.959 24.7897 47.0873 25.1264 47.1354 25.5433ZM20.6155 29.6319C20.7918 31.3315 21.1446 34.891 21.4011 37.5366C21.6737 40.1821 21.8982 42.4269 21.8982 42.5231C21.8982 42.7155 20.6636 43.3248 20.5353 43.1965C20.4551 43.1163 18.8517 28.9264 18.8517 28.2851C18.8517 27.9003 20.0863 26.2808 20.2467 26.4572C20.2948 26.4893 20.4551 27.9163 20.6155 29.6319ZM83.484 31.3155L83.949 31.588L83.965 35.0513C83.981 36.9433 84.0131 39.0598 84.0131 39.7492C84.0452 41.1923 83.8688 41.4328 83.003 41.1281L82.5059 40.9518V39.5729C82.5059 38.8032 82.4578 36.5745 82.3937 34.6024L82.2975 31.0429H82.6663C82.8587 31.0429 83.2275 31.1712 83.484 31.3155ZM27.6543 37.5366C27.9429 40.6151 28.4079 45.81 28.7125 49.0809L29.2577 55.0134L28.6324 55.6387L28.0231 56.264L27.9108 54.9974C27.8467 54.2919 27.526 51.021 27.1893 47.718C26.8526 44.4151 26.3716 39.621 26.1311 37.0716L25.6821 32.4539L26.3075 31.8766C26.8686 31.3475 26.9328 31.3315 27.045 31.6201C27.1091 31.7804 27.3817 34.442 27.6543 37.5366ZM15.645 39.4767C15.9977 42.6353 16.9277 51.037 17.7294 58.14C18.5311 65.243 19.2847 72.0894 19.429 73.3721C19.5572 74.6548 19.7817 76.5949 19.91 77.7012C20.1344 79.5772 20.1344 79.7055 19.8779 79.8979C19.4931 80.1865 19.3328 80.1544 19.3328 79.8177C19.3328 79.6734 19.1885 78.4548 19.0121 77.1401C18.7235 74.9434 18.2425 71.2236 17.1682 62.87C16.9437 61.1864 16.5108 57.8354 16.2062 55.4143C15.8855 52.9931 15.4205 49.3855 15.164 47.3974C14.9074 45.4092 14.4745 42.01 14.2019 39.8134C13.9133 37.6328 13.737 35.6927 13.7851 35.4842C13.8973 35.0513 14.8433 33.5442 14.9395 33.6404C14.9716 33.6885 15.2922 36.302 15.645 39.4767ZM10.7386 46.3872C10.9791 48.3113 11.4281 51.8227 11.7327 54.2117C12.0374 56.5847 12.4222 59.551 12.5986 60.7856L12.9032 63.0303L12.5665 63.3189C12.3741 63.4793 12.1817 63.5434 12.1175 63.4793C12.0534 63.4151 11.9251 62.7738 11.8289 62.0683C11.7327 61.3628 11.1395 57.2421 10.4981 52.929L9.35973 45.0725L9.72851 43.9822C9.92091 43.3889 10.1294 42.9079 10.1775 42.9079C10.2416 42.9079 10.4821 44.4792 10.7386 46.3872ZM98.7642 44.2868C98.9887 44.5113 99.0207 45.5054 99.0207 52.8649V61.1864H98.5718C97.5937 61.1864 97.6098 61.4269 97.5456 52.3197L97.4975 44.0303H98.0106C98.2832 44.0303 98.6359 44.1425 98.7642 44.2868ZM63.6662 47.1568C67.2898 47.702 70.4485 48.7121 73.5751 50.3155C75.5954 51.3577 76.5574 52.0792 78.8021 54.2278C82.1371 57.4185 84.1895 60.2084 86.1135 64.1527C88.9194 69.8928 90.0097 74.9755 91.3886 88.6042C92.014 94.7131 92.8317 105.792 93.0081 110.33C93.0562 111.645 93.1684 113.809 93.2646 115.14C93.441 117.962 93.6494 117.577 91.1642 118.78C87.7169 120.447 84.3979 121.602 80.0207 122.676C74.6654 123.991 71.2021 124.408 65.9109 124.424L62.0628 124.44L62.0949 122.596C62.0949 121.586 62.1911 119.229 62.2873 117.385C62.7683 108.454 62.6721 97.1823 62.0468 90.9291C61.6941 87.3375 61.0046 82.9764 60.6198 82.0143C60.5396 81.8059 60.9084 81.6295 62.4957 81.0844C65.3979 80.0742 67.9152 78.8076 68.3 78.1823C68.9894 76.9958 67.7548 75.2962 66.1835 75.2962C65.9109 75.2962 65.0932 75.5848 64.3396 75.9215C60.7481 77.573 53.5489 79.5131 49.3961 79.946C46.5261 80.2506 42.0687 80.0742 38.9742 79.513C37.2906 79.2084 34.2763 78.07 31.759 76.7713C28.8568 75.2641 27.0771 73.2599 26.548 70.8869C26.2594 69.6042 26.3395 67.0388 26.7083 65.5957C27.1091 64.0084 28.2315 61.6995 29.2577 60.3527C33.8273 54.34 43.2552 49.129 52.9236 47.3012C56.0021 46.7239 60.3632 46.6598 63.6662 47.1568ZM113.13 47.6539C113.708 47.8944 113.772 47.9585 113.772 48.5037C113.804 52.8809 113.708 62.886 113.628 63.3029C113.612 63.4472 112.778 63.4632 112.425 63.335C112.201 63.2548 112.168 62.389 112.168 55.3181C112.168 50.2514 112.233 47.3974 112.329 47.3974C112.409 47.3974 112.778 47.5096 113.13 47.6539ZM120.137 56.4565L120.714 56.697L120.602 69.9729C120.474 86.8886 120.458 87.3857 119.849 88.8447C118.855 91.2338 118.903 91.7148 118.999 81.2287C119.031 75.9856 119.111 70.6784 119.143 69.4438C119.175 68.2092 119.207 64.7299 119.223 61.6995C119.223 58.0438 119.271 56.2159 119.384 56.2159C119.48 56.2159 119.817 56.3282 120.137 56.4565ZM23.71 60.4489C23.8062 61.7476 23.7741 61.8759 23.3091 62.902L22.7961 63.9923L22.6037 62.389C22.299 59.8235 22.299 59.7113 22.9083 59.3265C23.1809 59.1341 23.4695 59.0058 23.5176 59.0379C23.5657 59.07 23.6619 59.7113 23.71 60.4489ZM13.8011 70.1172C13.9454 71.432 15.0678 80.1544 15.645 84.4354C16.5108 91.0574 16.5749 92.0034 16.1901 91.6025C16.142 91.5544 15.7733 89.3257 15.3884 86.6481C12.8872 69.3637 12.9032 69.4759 13.1116 69.3476C13.5446 69.059 13.6889 69.2194 13.8011 70.1172ZM25.3454 77.4607C25.4416 77.8616 25.9066 82.2067 25.9066 82.7358C25.9066 83.1848 25.3294 83.6017 25.0729 83.3451C24.9927 83.265 24.7842 81.9021 24.6239 80.3308C24.4475 78.7434 24.2712 77.0919 24.2231 76.659L24.1269 75.8573L24.688 76.4987C25.0087 76.8514 25.2973 77.2844 25.3454 77.4607ZM38.2847 83.5055C38.4611 83.6658 38.5733 84.3072 38.7176 86.0388C38.9581 89.1654 38.9902 88.9249 38.3328 88.9249C37.6594 88.9249 37.6754 88.973 37.451 86.151C37.2265 83.281 37.2265 83.3131 37.6594 83.3131C37.8678 83.3131 38.1404 83.4093 38.2847 83.5055ZM50.9835 83.746C51.0155 83.9063 51.0957 84.8683 51.1598 85.8785C51.208 86.8886 51.3523 89.1654 51.4805 90.9291C51.9295 97.4068 51.9455 98.2245 51.6729 98.2245C51.3683 98.2245 51.3362 97.984 50.9835 93.4144C50.8552 91.5224 50.6147 88.5401 50.4544 86.7924C50.3101 85.0447 50.2139 83.5856 50.262 83.5536C50.4383 83.3612 50.9033 83.5055 50.9835 83.746ZM20.8399 86.8245C20.9361 86.9688 21.5454 92.0996 22.299 99.1064C22.5235 101.223 22.748 103.259 22.7961 103.644L22.8762 104.333L22.4754 104.077C22.1707 103.868 22.0585 103.66 22.0585 103.291C22.0585 102.281 21.369 95.627 20.8399 91.5544C20.5353 89.2456 20.2948 87.2093 20.2948 87.0169C20.2948 86.6802 20.6796 86.5519 20.8399 86.8245ZM113.371 93.5266L113.259 100.229L112.858 100.822C111.944 102.169 111.992 102.425 112.04 94.9215L112.072 88.043L112.666 87.4337C112.986 87.1131 113.307 86.8405 113.371 86.8405C113.419 86.8405 113.419 89.8549 113.371 93.5266ZM98.5397 104.157C98.6199 113.473 98.6039 114.194 98.3473 114.483C98.187 114.659 98.0427 114.771 97.9946 114.723C97.8823 114.595 97.722 94.2802 97.8503 94.1679C97.9144 94.1038 98.0748 94.0717 98.2191 94.0878C98.4275 94.1359 98.4756 95.2743 98.5397 104.157ZM46.1733 97.7756C46.2856 98.7696 46.6864 103.532 46.8468 105.776C46.943 107.284 46.943 107.332 46.5902 107.444C46.3978 107.508 46.1733 107.492 46.1092 107.412C45.997 107.3 45.6442 103.74 45.2113 98.2566L45.0991 96.9418H45.5961C46.0611 96.9418 46.0932 96.9739 46.1733 97.7756ZM33.5708 103.387C33.683 103.5 33.7632 103.9 33.7632 104.301C33.7632 104.718 33.9556 106.883 34.164 109.127C34.7733 115.268 34.8214 116.102 34.5488 115.942C34.132 115.701 33.7632 115.333 33.8433 115.236C33.8754 115.172 33.8113 114.371 33.683 113.457C33.5708 112.527 33.4265 111.019 33.3623 110.09C33.2982 109.16 33.1539 107.46 33.0256 106.322C32.721 103.516 32.737 103.195 33.0898 103.195C33.2501 103.195 33.4585 103.275 33.5708 103.387ZM41.1548 114.178C41.2029 114.531 41.2991 115.846 41.3632 117.096C41.4754 119.501 41.4273 119.678 40.7699 119.181C40.5775 119.036 40.4493 118.427 40.2569 116.599C39.9202 113.296 39.9041 113.425 40.5294 113.489C40.9944 113.537 41.0586 113.601 41.1548 114.178Z" fill="#E4EBF7" />
  <path d="M35.4307 54.837C33.7632 55.5585 33.6349 57.8193 35.2062 58.621C36.3446 59.1982 37.4991 58.9256 38.0923 57.9315C39.2147 56.1037 37.3868 53.9872 35.4307 54.837Z" fill="#E4EBF7" />
  <path d="M46.3016 56.3763C44.7624 57.3223 44.7624 59.5991 46.3016 60.5451C47.8248 61.459 49.797 60.2565 49.797 58.4286C49.797 56.6649 47.7767 55.4784 46.3016 56.3763Z" fill="#E4EBF7" />
</svg>