<svg width="174" height="111" viewBox="0 0 174 111" fill="none" xmlns="http://www.w3.org/2000/svg">
  <path d="M89.2992 36.9258H105.243V52.9517H89.2992V36.9258Z" fill="#E4EBF7" />
  <path d="M70.8774 36.9258H86.8209V52.9517H70.8774V36.9258Z" fill="#E4EBF7" />
  <path d="M52.4558 36.9258H68.3991V52.9517H52.4558V36.9258Z" fill="#E4EBF7" />
  <path d="M34.0343 36.9258H49.9776V52.9517H34.0343V36.9258Z" fill="#E4EBF7" />
  <path d="M15.5301 36.9258H31.4735V52.9517H15.5301V36.9258Z" fill="#E4EBF7" />
  <path d="M70.8774 18.5042H86.8209V34.5301H70.8774V18.5042Z" fill="#E4EBF7" />
  <path d="M70.8774 0H86.8209V16.026H70.8774V0Z" fill="#E4EBF7" />
  <path d="M52.4558 18.5042H68.3991V34.5301H52.4558V18.5042Z" fill="#E4EBF7" />
  <path d="M34.0343 18.4216H49.9776V34.4475H34.0343V18.4216Z" fill="#E4EBF7" />
  <path d="M140.041 20.081C144.502 23.6661 151.695 31.2161 150.459 40.829C156.073 38.0071 165.823 36.6123 173.404 40.9871C168.645 50.2789 158.181 53.0556 147.293 51.9383C132.905 90.0596 101.546 108.361 64.0159 110.5C61.5139 110.643 58.9845 110.713 56.4308 110.713C33.2004 110.713 18.2449 101.856 9.28049 89.8904C8.33809 88.6325 7.46138 87.3268 6.65385 85.9786C6.60002 85.8887 6.5465 85.7986 6.49328 85.7084L5.14848 83.2479C1.08342 75.2573 -0.696202 65.9212 0.247659 55.7831H118.468C128.18 55.7831 137.665 52.1594 142.166 48.1613C134.101 41.6026 134.9 26.0249 140.041 20.081Z" fill="#E4EBF7" />
</svg>