<svg width="206" height="58" viewBox="0 0 206 58" fill="none" xmlns="http://www.w3.org/2000/svg">
  <path d="M0.0320001 0.303997H30.752V2.736H2.848V21.04H29.088V23.472H2.848V43.568H31.072V46H0.0320001V0.303997ZM44.3565 28.72L32.3245 13.104H35.7165L46.0205 26.864L56.3885 13.104H59.5245L47.6205 28.72L60.6125 46H57.2845L46.0205 30.576L34.5005 46H31.4285L44.3565 28.72ZM66.842 20.656H66.97C67.226 19.8453 67.6527 18.9493 68.25 17.968C68.8473 16.9867 69.6367 16.0907 70.618 15.28C71.5993 14.4267 72.7727 13.7227 74.138 13.168C75.546 12.6133 77.146 12.336 78.938 12.336C81.4553 12.336 83.6313 12.8053 85.466 13.744C87.3433 14.6827 88.8793 15.9413 90.074 17.52C91.3113 19.0987 92.2287 20.9333 92.826 23.024C93.4233 25.1147 93.722 27.312 93.722 29.616C93.722 32.1333 93.4233 34.4373 92.826 36.528C92.2287 38.6187 91.3113 40.432 90.074 41.968C88.8793 43.4613 87.3433 44.6347 85.466 45.488C83.6313 46.3413 81.4553 46.768 78.938 46.768C76.2073 46.768 73.7753 46.1707 71.642 44.976C69.5087 43.7813 67.9513 41.84 66.97 39.152H66.842V57.776H64.41V13.104H66.842V20.656ZM78.938 44.656C81.0713 44.656 82.906 44.2507 84.442 43.44C86.0207 42.6293 87.3007 41.5413 88.282 40.176C89.306 38.8107 90.0527 37.232 90.522 35.44C91.034 33.6053 91.29 31.664 91.29 29.616C91.29 27.7387 91.0553 25.904 90.586 24.112C90.1167 22.2773 89.3913 20.656 88.41 19.248C87.4287 17.7973 86.1487 16.6453 84.57 15.792C83.034 14.896 81.1567 14.448 78.938 14.448C76.762 14.448 74.906 14.8747 73.37 15.728C71.834 16.5813 70.5753 17.712 69.594 19.12C68.6553 20.528 67.9727 22.1493 67.546 23.984C67.1193 25.776 66.906 27.6533 66.906 29.616C66.906 31.5787 67.098 33.4773 67.482 35.312C67.866 37.104 68.506 38.704 69.402 40.112C70.3407 41.4773 71.578 42.5867 73.114 43.44C74.6927 44.2507 76.634 44.656 78.938 44.656ZM101.829 20.4H102.021C102.319 19.3333 102.853 18.3307 103.621 17.392C104.431 16.4533 105.391 15.6427 106.501 14.96C107.653 14.2773 108.911 13.7653 110.277 13.424C111.685 13.04 113.135 12.8693 114.628 12.912V15.344C113.348 15.1733 111.877 15.3013 110.213 15.728C108.591 16.1547 107.034 17.0933 105.541 18.544C104.943 19.184 104.41 19.8027 103.941 20.4C103.514 20.9973 103.151 21.6587 102.853 22.384C102.554 23.1093 102.319 23.92 102.149 24.816C101.978 25.712 101.871 26.7787 101.829 28.016V46H99.3965V13.104H101.829V20.4ZM117.419 29.872V30.256C117.419 32.176 117.675 34.0107 118.187 35.76C118.699 37.5093 119.446 39.0453 120.427 40.368C121.451 41.6907 122.71 42.736 124.203 43.504C125.739 44.272 127.51 44.656 129.515 44.656C132.8 44.656 135.403 43.8027 137.323 42.096C139.243 40.3467 140.566 37.936 141.291 34.864H143.723C142.998 38.704 141.419 41.648 138.987 43.696C136.598 45.744 133.419 46.768 129.451 46.768C127.019 46.768 124.886 46.3413 123.051 45.488C121.259 44.592 119.744 43.3973 118.507 41.904C117.312 40.368 116.416 38.576 115.819 36.528C115.222 34.4373 114.923 32.1973 114.923 29.808C114.923 27.504 115.222 25.3067 115.819 23.216C116.459 21.0827 117.398 19.2267 118.635 17.648C119.872 16.0267 121.408 14.7467 123.243 13.808C125.12 12.8267 127.318 12.336 129.835 12.336C132.139 12.336 134.166 12.7627 135.915 13.616C137.707 14.4693 139.2 15.6427 140.395 17.136C141.59 18.5867 142.486 20.2933 143.083 22.256C143.723 24.176 144.043 26.2453 144.043 28.464C144.043 28.6773 144.022 28.9333 143.979 29.232C143.979 29.488 143.979 29.7013 143.979 29.872H117.419ZM141.547 27.76C141.462 25.968 141.163 24.2827 140.651 22.704C140.139 21.0827 139.371 19.6747 138.347 18.48C137.366 17.2427 136.15 16.2613 134.699 15.536C133.291 14.8107 131.67 14.448 129.835 14.448C127.872 14.448 126.144 14.832 124.651 15.6C123.158 16.3253 121.899 17.3067 120.875 18.544C119.851 19.7387 119.062 21.1467 118.507 22.768C117.952 24.3893 117.611 26.0533 117.483 27.76H141.547ZM150.799 35.056C150.884 36.592 151.225 37.9573 151.823 39.152C152.42 40.304 153.188 41.3067 154.127 42.16C155.108 42.9707 156.239 43.5893 157.519 44.016C158.799 44.4427 160.185 44.656 161.679 44.656C162.745 44.656 163.876 44.5707 165.071 44.4C166.308 44.1867 167.439 43.824 168.463 43.312C169.529 42.8 170.404 42.096 171.087 41.2C171.769 40.2613 172.111 39.088 172.111 37.68C172.111 35.8453 171.556 34.4587 170.447 33.52C169.337 32.5813 167.929 31.856 166.223 31.344C164.559 30.832 162.745 30.4267 160.783 30.128C158.863 29.7867 157.049 29.296 155.343 28.656C153.679 28.016 152.292 27.12 151.183 25.968C150.073 24.7733 149.519 23.0453 149.519 20.784C149.519 19.1627 149.881 17.8187 150.607 16.752C151.332 15.6427 152.249 14.768 153.359 14.128C154.511 13.488 155.791 13.04 157.199 12.784C158.607 12.4853 160.015 12.336 161.423 12.336C163.129 12.336 164.729 12.528 166.223 12.912C167.716 13.296 168.996 13.9147 170.063 14.768C171.172 15.6213 172.025 16.7093 172.623 18.032C173.263 19.3547 173.583 20.9547 173.583 22.832H171.151C171.151 21.3387 170.895 20.0587 170.383 18.992C169.913 17.9253 169.231 17.072 168.335 16.432C167.481 15.7493 166.457 15.2587 165.263 14.96C164.068 14.6187 162.788 14.448 161.423 14.448C160.313 14.448 159.183 14.5547 158.031 14.768C156.921 14.9813 155.919 15.344 155.023 15.856C154.127 16.368 153.38 17.0293 152.783 17.84C152.228 18.6507 151.951 19.632 151.951 20.784C151.951 22.1067 152.271 23.1733 152.911 23.984C153.551 24.7947 154.383 25.456 155.407 25.968C156.473 26.4373 157.647 26.8213 158.927 27.12C160.249 27.4187 161.572 27.7173 162.895 28.016C164.516 28.3147 166.031 28.6773 167.439 29.104C168.889 29.488 170.127 30.0427 171.151 30.768C172.217 31.4507 173.049 32.3467 173.647 33.456C174.244 34.5653 174.543 35.9733 174.543 37.68C174.543 39.472 174.137 40.944 173.327 42.096C172.516 43.248 171.492 44.1867 170.255 44.912C169.017 45.5947 167.631 46.064 166.095 46.32C164.601 46.6187 163.129 46.768 161.679 46.768C159.801 46.768 158.052 46.512 156.431 46C154.852 45.5307 153.465 44.8053 152.271 43.824C151.076 42.8 150.137 41.5627 149.455 40.112C148.772 38.6613 148.409 36.976 148.367 35.056H150.799ZM181.611 35.056C181.696 36.592 182.038 37.9573 182.635 39.152C183.232 40.304 184 41.3067 184.939 42.16C185.92 42.9707 187.051 43.5893 188.331 44.016C189.611 44.4427 190.998 44.656 192.491 44.656C193.558 44.656 194.688 44.5707 195.883 44.4C197.12 44.1867 198.251 43.824 199.275 43.312C200.342 42.8 201.216 42.096 201.899 41.2C202.582 40.2613 202.923 39.088 202.923 37.68C202.923 35.8453 202.368 34.4587 201.259 33.52C200.15 32.5813 198.742 31.856 197.035 31.344C195.371 30.832 193.558 30.4267 191.595 30.128C189.675 29.7867 187.862 29.296 186.155 28.656C184.491 28.016 183.104 27.12 181.995 25.968C180.886 24.7733 180.331 23.0453 180.331 20.784C180.331 19.1627 180.694 17.8187 181.419 16.752C182.144 15.6427 183.062 14.768 184.171 14.128C185.323 13.488 186.603 13.04 188.011 12.784C189.419 12.4853 190.827 12.336 192.235 12.336C193.942 12.336 195.542 12.528 197.035 12.912C198.528 13.296 199.808 13.9147 200.875 14.768C201.984 15.6213 202.838 16.7093 203.435 18.032C204.075 19.3547 204.395 20.9547 204.395 22.832H201.963C201.963 21.3387 201.707 20.0587 201.195 18.992C200.726 17.9253 200.043 17.072 199.147 16.432C198.294 15.7493 197.27 15.2587 196.075 14.96C194.88 14.6187 193.6 14.448 192.235 14.448C191.126 14.448 189.995 14.5547 188.843 14.768C187.734 14.9813 186.731 15.344 185.835 15.856C184.939 16.368 184.192 17.0293 183.595 17.84C183.04 18.6507 182.763 19.632 182.763 20.784C182.763 22.1067 183.083 23.1733 183.723 23.984C184.363 24.7947 185.195 25.456 186.219 25.968C187.286 26.4373 188.459 26.8213 189.739 27.12C191.062 27.4187 192.384 27.7173 193.707 28.016C195.328 28.3147 196.843 28.6773 198.251 29.104C199.702 29.488 200.939 30.0427 201.963 30.768C203.03 31.4507 203.862 32.3467 204.459 33.456C205.056 34.5653 205.355 35.9733 205.355 37.68C205.355 39.472 204.95 40.944 204.139 42.096C203.328 43.248 202.304 44.1867 201.067 44.912C199.83 45.5947 198.443 46.064 196.907 46.32C195.414 46.6187 193.942 46.768 192.491 46.768C190.614 46.768 188.864 46.512 187.243 46C185.664 45.5307 184.278 44.8053 183.083 43.824C181.888 42.8 180.95 41.5627 180.267 40.112C179.584 38.6613 179.222 36.976 179.179 35.056H181.611Z" fill="#E4EBF7" />
</svg>