<svg width="67" height="100" viewBox="0 0 67 100" fill="none" xmlns="http://www.w3.org/2000/svg">
  <path d="M16.6667 0C7.46667 0 0 7.46667 0 16.6667C0 25.842 7.42661 33.2932 16.5926 33.3332C7.42661 33.3731 0 40.8244 0 49.9997C0 59.1997 7.46667 66.6663 16.6667 66.6663H33.3333V33.3333V0H16.6667Z" fill="#E4EBF7" />
  <path d="M16.6667 99.9998C25.8667 99.9998 33.3333 92.5332 33.3333 83.3332V66.6663H16.6667C7.46667 66.6663 0 74.1332 0 83.3332C0 92.5332 7.46667 99.9998 16.6667 99.9998Z" fill="#E4EBF7" />
  <path d="M33.3333 0H50C59.2 0 66.6667 7.46667 66.6667 16.6667C66.6667 25.842 59.2401 33.2932 50.0741 33.3332C59.2401 33.3731 66.6667 40.8244 66.6667 49.9997C66.6667 59.1997 59.2 66.6663 50 66.6663C40.8 66.6663 33.3334 59.1997 33.3334 49.9997C33.3334 40.8347 40.7433 33.3899 49.8951 33.3333H33.3333V0Z" fill="#E4EBF7" />
</svg>