<svg width="106" height="106" viewBox="0 0 106 106" fill="none" xmlns="http://www.w3.org/2000/svg">
  <path fill-rule="evenodd" clip-rule="evenodd" d="M0 0H106V106H0V0ZM81.0311 88.8617C76.1181 88.8617 73.3402 86.2991 71.2051 82.8129L63.1104 87.5156C66.0346 93.2935 72.011 97.7017 81.2616 97.7017C90.7225 97.7017 97.7673 92.7887 97.7673 83.8208C97.7673 75.5023 92.9889 71.8024 84.5257 68.1731L82.0356 67.1064C77.7619 65.2556 75.9111 64.0459 75.9111 61.0577C75.9111 58.6399 77.7603 56.7891 80.6778 56.7891C83.5381 56.7891 85.3805 57.9955 87.0882 61.0577L94.8448 56.0774C91.5638 50.3063 87.0109 48.1021 80.6778 48.1021C71.7822 48.1021 66.0902 53.7891 66.0902 61.2596C66.0902 69.3694 70.8652 73.2056 78.053 76.2678L80.5432 77.3363C85.086 79.3233 87.7949 80.5331 87.7949 83.9486C87.7949 86.7989 85.1584 88.8617 81.0311 88.8617ZM42.4286 88.7994C39.0063 88.7994 37.5829 86.4523 36.0181 83.6761L27.91 88.5849C30.2588 93.5559 34.8774 97.6832 42.8526 97.6832C51.6792 97.6832 57.7263 92.9889 57.7263 82.675V48.6708H47.7656V82.5404C47.7656 87.519 45.7011 88.7994 42.4286 88.7994Z" fill="#E4EBF7" />
</svg>