<svg width="80" height="123" viewBox="0 0 80 123" fill="none" xmlns="http://www.w3.org/2000/svg">
<path d="M29.2438 19.9892C31.7192 11.9445 38.8355 16.8952 37.5979 21.8457C36.3603 26.7963 33.5757 37.3161 31.4098 44.4326C29.2438 51.549 21.1992 49.0737 23.0557 42.5761C23.789 40.0096 24.5222 37.2017 25.2936 34.2479C26.4752 29.7234 27.7462 24.8563 29.2438 19.9892Z" fill="#E4EBF7"/>
<path fill-rule="evenodd" clip-rule="evenodd" d="M68.8479 1.11523H20.2709C18.105 1.11523 16.8673 2.66229 16.2485 5.13757C16.0089 6.09595 13.7748 14.2901 11.0907 24.135C6.84239 39.7171 1.46664 59.4343 1.08741 61.1408C0.468594 63.9255 3.25292 66.0914 5.72825 66.0914H21.8175C21.8175 66.0914 10.6787 115.906 10.0599 118.691C9.44111 121.476 13.7729 123.332 15.6293 121.785C17.4858 120.238 76.8926 47.6041 78.4396 45.6703C79.9867 43.7365 77.8208 40.1009 75.6549 40.1009H57.3997C57.3997 40.1009 71.6326 7.61285 72.2514 5.75639C72.8702 3.89993 71.3232 1.11523 68.8479 1.11523ZM61.4225 9.77872H23.365L10.6792 57.4279H28.0062C29.5532 57.4279 31.487 59.9032 31.1003 61.4502C30.7135 62.9973 21.5086 100.127 22.4368 100.745C23.365 101.364 65.7542 48.455 65.7542 48.455H49.6649C47.499 48.455 45.952 45.3609 46.8802 43.5045C47.8084 41.648 61.4225 9.77872 61.4225 9.77872Z" fill="#E4EBF7"/>
<path d="M16.2485 5.13757L15.9483 5.06253L15.9483 5.06253L16.2485 5.13757ZM11.0907 24.135L11.3892 24.2163L11.3892 24.2163L11.0907 24.135ZM1.08741 61.1408L1.38946 61.208L1.38946 61.208L1.08741 61.1408ZM21.8175 66.0914L22.1195 66.1589C22.14 66.0673 22.1177 65.9713 22.059 65.898C22.0003 65.8247 21.9114 65.782 21.8175 65.782V66.0914ZM57.3997 40.1009L57.1163 39.9768C57.0744 40.0724 57.0836 40.1828 57.1407 40.2702C57.1979 40.3577 57.2953 40.4103 57.3997 40.4103V40.1009ZM23.365 9.77872V9.46931C23.2248 9.46931 23.1021 9.56362 23.066 9.69912L23.365 9.77872ZM61.4225 9.77872L61.707 9.90027C61.7479 9.80469 61.738 9.69499 61.6807 9.60824C61.6234 9.5215 61.5264 9.46931 61.4225 9.46931V9.77872ZM10.6792 57.4279L10.3802 57.3483C10.3555 57.4412 10.3753 57.5403 10.4339 57.6165C10.4924 57.6927 10.5831 57.7373 10.6792 57.7373V57.4279ZM65.7542 48.455L65.9957 48.6485C66.0701 48.5556 66.0847 48.4283 66.0332 48.3211C65.9817 48.2138 65.8732 48.1456 65.7542 48.1456V48.455ZM29.2438 19.9892L28.9481 19.8982L28.9481 19.8982L29.2438 19.9892ZM31.4098 44.4326L31.7058 44.5227L31.7058 44.5227L31.4098 44.4326ZM23.0557 42.5761L23.3532 42.6611L23.3532 42.6611L23.0557 42.5761ZM25.2936 34.2479L24.9943 34.1697L24.9943 34.1697L25.2936 34.2479ZM20.2709 1.42464H68.8479V0.805824H20.2709V1.42464ZM16.5487 5.21261C16.8513 4.0023 17.2974 3.05342 17.9045 2.41062C18.5025 1.77746 19.2715 1.42464 20.2709 1.42464V0.805824C19.1043 0.805824 18.1716 1.22654 17.4546 1.98572C16.7467 2.73526 16.2646 3.79756 15.9483 5.06253L16.5487 5.21261ZM11.3892 24.2163C14.0724 14.3752 16.308 6.17522 16.5487 5.21261L15.9483 5.06253C15.7098 6.01668 13.4773 14.2051 10.7922 24.0536L11.3892 24.2163ZM1.38946 61.208C1.76656 59.511 7.13863 39.8068 11.3892 24.2163L10.7922 24.0536C6.54615 39.6273 1.16672 59.3577 0.785372 61.0737L1.38946 61.208ZM5.72825 65.782C4.57395 65.782 3.3348 65.2739 2.46162 64.437C1.59388 63.6053 1.10836 62.4729 1.38946 61.208L0.785372 61.0737C0.447648 62.5935 1.04489 63.9363 2.03343 64.8838C3.01654 65.826 4.40722 66.4008 5.72825 66.4008V65.782ZM21.8175 65.782H5.72825V66.4008H21.8175V65.782ZM10.362 118.758C10.6713 117.366 13.6106 104.217 16.4727 91.4145C17.9038 85.0136 19.3154 78.6997 20.3694 73.986C20.8963 71.6292 21.3339 69.6724 21.6396 68.3049C21.7925 67.6211 21.9125 67.0846 21.9942 66.7191C22.0351 66.5363 22.0664 66.3963 22.0875 66.3019C22.098 66.2547 22.106 66.219 22.1114 66.195C22.1141 66.1831 22.1161 66.174 22.1174 66.168C22.1181 66.165 22.1186 66.1627 22.119 66.1612C22.1191 66.1604 22.1193 66.1599 22.1193 66.1595C22.1194 66.1591 22.1195 66.1589 21.8175 66.0914C21.5156 66.0239 21.5155 66.0241 21.5154 66.0245C21.5154 66.0248 21.5152 66.0254 21.5151 66.0262C21.5147 66.0277 21.5142 66.0299 21.5135 66.033C21.5122 66.039 21.5102 66.048 21.5075 66.06C21.5021 66.084 21.4941 66.1197 21.4836 66.1669C21.4625 66.2612 21.4312 66.4012 21.3903 66.584C21.3086 66.9496 21.1886 67.486 21.0357 68.1698C20.73 69.5374 20.2924 71.4942 19.7655 73.851C18.7115 78.5647 17.2998 84.8786 15.8688 91.2795C13.0068 104.081 10.0674 117.231 9.75788 118.624L10.362 118.758ZM15.4312 121.548C14.6372 122.209 13.2378 122.177 12.0548 121.586C10.8799 120.998 10.0966 119.953 10.362 118.758L9.75788 118.624C9.40446 120.214 10.4776 121.489 11.778 122.139C13.0703 122.785 14.7649 122.908 15.8274 122.023L15.4312 121.548ZM78.198 45.477C77.4261 46.4419 62.1894 65.0818 46.9114 83.6764C39.2729 92.9731 31.6251 102.257 25.7709 109.314C22.8438 112.842 20.3656 115.813 18.5613 117.95C17.6591 119.019 16.9262 119.878 16.3903 120.494C16.1222 120.802 15.9044 121.047 15.7399 121.228C15.5693 121.415 15.4699 121.515 15.4312 121.548L15.8274 122.023C15.9048 121.958 16.0337 121.824 16.197 121.645C16.3662 121.459 16.5876 121.209 16.857 120.9C17.396 120.281 18.1313 119.419 19.0342 118.349C20.8401 116.21 23.3197 113.238 26.2472 109.709C32.1023 102.651 39.7509 93.3662 47.3896 84.0693C62.6659 65.4766 77.9061 46.8325 78.6812 45.8636L78.198 45.477ZM75.6549 40.4103C76.5738 40.4103 77.5733 41.203 78.1671 42.307C78.7584 43.4064 78.8599 44.6497 78.198 45.477L78.6812 45.8636C79.5664 44.7571 79.3585 43.2157 78.7121 42.0139C78.0682 40.8167 76.9019 39.7915 75.6549 39.7915V40.4103ZM57.3997 40.4103H75.6549V39.7915H57.3997V40.4103ZM71.9579 5.65855C71.8086 6.10646 70.8113 8.46657 69.3855 11.7837C67.9644 15.0899 66.1275 19.3245 64.3098 23.5014C62.4921 27.6782 60.6937 31.7971 59.3498 34.8717C58.6778 36.4091 58.1194 37.6853 57.729 38.5773C57.5338 39.0232 57.3807 39.3731 57.2763 39.6115C57.2241 39.7307 57.1841 39.822 57.1571 39.8835C57.1437 39.9143 57.1335 39.9376 57.1266 39.9532C57.1232 39.961 57.1206 39.9669 57.1189 39.9709C57.118 39.9728 57.1174 39.9743 57.1169 39.9753C57.1167 39.9758 57.1166 39.9762 57.1165 39.9764C57.1164 39.9767 57.1163 39.9768 57.3997 40.1009C57.6831 40.2251 57.6832 40.225 57.6833 40.2247C57.6834 40.2245 57.6835 40.2241 57.6838 40.2236C57.6842 40.2226 57.6848 40.2211 57.6857 40.2192C57.6874 40.2152 57.69 40.2093 57.6934 40.2015C57.7003 40.1859 57.7105 40.1626 57.724 40.1318C57.7509 40.0703 57.7909 39.9789 57.8431 39.8597C57.9475 39.6213 58.1007 39.2714 58.2959 38.8254C58.6863 37.9334 59.2448 36.657 59.9168 35.1196C61.2608 32.0447 63.0593 27.9255 64.8772 23.7483C66.695 19.5711 68.5324 15.3356 69.954 12.0281C71.3709 8.73162 72.3848 6.33455 72.5449 5.85423L71.9579 5.65855ZM68.8479 1.42464C69.9602 1.42464 70.8778 2.04916 71.4525 2.91127C72.0317 3.78012 72.2302 4.84155 71.9579 5.65855L72.5449 5.85423C72.8914 4.81477 72.6258 3.55562 71.9674 2.56801C71.3045 1.57365 70.2109 0.805824 68.8479 0.805824V1.42464ZM23.365 10.0881H61.4225V9.46931H23.365V10.0881ZM10.9782 57.5075L23.664 9.85833L23.066 9.69912L10.3802 57.3483L10.9782 57.5075ZM28.0062 57.1185H10.6792V57.7373H28.0062V57.1185ZM31.4004 61.5253C31.516 61.0629 31.4537 60.5552 31.2908 60.0705C31.1271 59.5834 30.8552 59.0987 30.5231 58.6696C30.1911 58.2405 29.7917 57.8576 29.3657 57.5797C28.9424 57.3036 28.4729 57.1185 28.0062 57.1185V57.7373C28.313 57.7373 28.6654 57.8617 29.0276 58.098C29.3873 58.3326 29.7373 58.6652 30.0337 59.0483C30.3301 59.4314 30.5658 59.8556 30.7042 60.2676C30.8436 60.6823 30.8779 61.064 30.8001 61.3752L31.4004 61.5253ZM22.6084 100.488C22.6444 100.512 22.6654 100.539 22.6762 100.555C22.687 100.572 22.6914 100.584 22.6923 100.587C22.6937 100.591 22.69 100.581 22.6864 100.549C22.6794 100.485 22.6779 100.383 22.6858 100.236C22.7015 99.9446 22.7512 99.5251 22.8326 98.9891C22.995 97.9198 23.2786 96.419 23.6475 94.6243C24.3852 91.0364 25.4601 86.2922 26.5767 81.5163C28.8098 71.9654 31.2073 62.2979 31.4004 61.5253L30.8001 61.3752C30.6065 62.1496 28.2082 71.8203 25.9741 81.3754C24.8572 86.1526 23.7807 90.9034 23.0414 94.4997C22.6719 96.297 22.3856 97.8105 22.2208 98.8962C22.1385 99.4378 22.0853 99.8809 22.0679 100.202C22.0593 100.362 22.0588 100.503 22.0713 100.617C22.0776 100.673 22.0883 100.735 22.1089 100.793C22.1271 100.844 22.1684 100.938 22.2652 101.003L22.6084 100.488ZM65.7542 48.455C65.5128 48.2616 65.5126 48.2618 65.5123 48.2622C65.512 48.2626 65.5115 48.2632 65.5108 48.264C65.5095 48.2656 65.5076 48.268 65.5051 48.2712C65.4999 48.2776 65.4922 48.2872 65.4821 48.2999C65.4617 48.3253 65.4313 48.3632 65.3912 48.4133C65.311 48.5133 65.1919 48.6618 65.0366 48.8555C64.7259 49.2428 64.2702 49.8108 63.6898 50.5335C62.529 51.9789 60.8696 54.0431 58.8755 56.5183C54.8872 61.4686 49.5599 68.0624 44.2037 74.6368C38.8473 81.2115 33.4629 87.7655 29.3601 92.6367C27.3083 95.0728 25.579 97.0856 24.3345 98.4693C23.7116 99.1619 23.214 99.6925 22.8599 100.039C22.6815 100.213 22.547 100.334 22.455 100.404C22.4327 100.421 22.4148 100.433 22.401 100.442C22.3942 100.447 22.3888 100.45 22.385 100.452C22.3811 100.454 22.3793 100.455 22.3795 100.455C22.3796 100.455 22.3832 100.453 22.3897 100.451C22.396 100.449 22.4081 100.446 22.4249 100.443C22.4554 100.439 22.5307 100.436 22.6084 100.488L22.2652 101.003C22.3574 101.064 22.4523 101.064 22.5073 101.057C22.5627 101.049 22.6093 101.031 22.6412 101.016C22.7057 100.986 22.7707 100.941 22.8304 100.896C22.9533 100.802 23.1095 100.66 23.2926 100.481C23.6613 100.121 24.1696 99.578 24.7946 98.8831C26.046 97.4917 27.7806 95.4726 29.8334 93.0354C33.9396 88.1602 39.3266 81.6029 44.6835 75.0277C50.0406 68.4521 55.3687 61.8573 59.3574 56.9065C61.3517 54.4311 63.0113 52.3666 64.1723 50.921C64.7527 50.1982 65.2086 49.6301 65.5193 49.2427C65.6747 49.0489 65.7938 48.9004 65.874 48.8003C65.9142 48.7502 65.9446 48.7123 65.965 48.6869C65.9751 48.6741 65.9828 48.6645 65.988 48.6581C65.9905 48.6549 65.9925 48.6525 65.9938 48.6509C65.9944 48.6501 65.9949 48.6495 65.9952 48.6491C65.9955 48.6487 65.9957 48.6485 65.7542 48.455ZM49.6649 48.7644H65.7542V48.1456H49.6649V48.7644ZM46.6035 43.3661C46.0803 44.4123 46.2677 45.76 46.8398 46.8226C47.4121 47.8854 48.4265 48.7644 49.6649 48.7644V48.1456C48.7375 48.1456 47.8953 47.4776 47.3847 46.5292C46.8739 45.5806 46.7518 44.453 47.1569 43.6428L46.6035 43.3661ZM61.4225 9.77872C61.138 9.65717 61.1379 9.6573 61.1378 9.65754C61.1377 9.65778 61.1375 9.65814 61.1373 9.65863C61.1369 9.6596 61.1363 9.66105 61.1355 9.66298C61.1338 9.66684 61.1314 9.67261 61.1281 9.68027C61.1215 9.69559 61.1118 9.71846 61.0989 9.74864C61.0731 9.80899 61.0348 9.89857 60.9848 10.0155C60.8849 10.2494 60.7382 10.5926 60.5512 11.0301C60.1771 11.9051 59.6417 13.1572 58.9963 14.6656C57.7055 17.6823 55.9748 21.7238 54.2151 25.8234C50.6918 34.0314 47.0622 42.4485 46.6035 43.3661L47.1569 43.6428C47.6264 42.7039 51.2679 34.2582 54.7838 26.0675C56.5436 21.9676 58.2744 17.9258 59.5653 14.909C60.2107 13.4006 60.7461 12.1484 61.1202 11.2734C61.3072 10.8358 61.4539 10.4925 61.5539 10.2587C61.6039 10.1417 61.6421 10.0521 61.6679 9.99177C61.6808 9.96159 61.6906 9.93871 61.6972 9.92339C61.7004 9.91572 61.7029 9.90995 61.7045 9.90608C61.7054 9.90415 61.706 9.9027 61.7064 9.90173C61.7066 9.90125 61.7068 9.90088 61.7069 9.90064C61.707 9.9004 61.707 9.90027 61.4225 9.77872ZM37.8981 21.9208C38.5559 19.2893 37.0001 16.6684 34.9378 15.761C33.8926 15.3011 32.7031 15.2756 31.6098 15.923C30.5249 16.5656 29.5803 17.8436 28.9481 19.8982L29.5395 20.0802C30.145 18.1125 31.0183 16.9926 31.9251 16.4555C32.8237 15.9233 33.8001 15.9365 34.6886 16.3275C36.494 17.1218 37.8775 19.4515 37.2977 21.7707L37.8981 21.9208ZM31.7058 44.5227C33.8738 37.3993 36.6598 26.8739 37.8981 21.9208L37.2977 21.7707C36.0607 26.7186 33.2776 37.233 31.1138 44.3425L31.7058 44.5227ZM22.7582 42.4911C21.79 45.8799 23.4023 48.3163 25.6453 48.9088C27.8915 49.5021 30.5858 48.2025 31.7058 44.5227L31.1138 44.3425C30.0678 47.7791 27.6568 48.8001 25.8033 48.3105C23.9467 47.82 22.4649 45.7699 23.3532 42.6611L22.7582 42.4911ZM24.9943 34.1697C24.2226 37.1244 23.4903 39.9287 22.7582 42.4911L23.3532 42.6611C24.0876 40.0906 24.8218 37.2791 25.593 34.326L24.9943 34.1697ZM28.9481 19.8982C27.4482 24.7727 26.1756 29.6461 24.9943 34.1697L25.593 34.326C26.7748 29.8007 28.0442 24.94 29.5395 20.0802L28.9481 19.8982Z" fill="#E4EBF7"/>
</svg>
