<svg width="230" height="61" viewBox="0 0 230 61" fill="none" xmlns="http://www.w3.org/2000/svg">
  <path d="M26.7892 24.1819C23.588 10.0596 16.9157 6.30005 15.2137 3.64245C14.5118 2.47171 13.8901 1.25477 13.3527 0C13.2628 1.25457 13.0976 2.04495 12.0312 2.99634C9.8901 4.90538 0.796535 12.3157 0.0312447 28.3617C-0.681771 43.3225 11.0297 52.5478 12.577 53.5013C13.7667 54.0868 15.2158 53.5138 15.9225 52.9765C21.5681 49.1019 29.2816 38.7726 26.7955 24.1819" fill="#E4EBF7" />
  <path d="M13.8378 45.5347C13.543 49.2378 13.3318 51.3894 12.5833 53.5055C12.5833 53.5055 13.0746 57.0308 13.4196 60.7653H14.6408C14.932 58.1355 15.3768 55.525 15.9727 52.9472C14.3919 52.1694 13.8985 48.7841 13.8378 45.5347Z" fill="#E4EBF7" />
  <path d="M15.9706 52.9493C14.3731 52.2112 13.911 48.7548 13.8399 45.5347C14.235 40.223 14.3501 34.8941 14.1849 29.5703C14.1013 26.7768 14.2247 3.69681 13.497 0.317825C13.9948 1.46225 14.5683 2.57222 15.2137 3.64035C16.9157 6.30005 23.59 10.0596 26.7892 24.1819C29.2816 38.7475 21.6099 49.0496 15.9706 52.9493Z" fill="#E4EBF7" />
  <path d="M226.53 47.8432C225.846 47.8431 225.177 47.6408 224.608 47.2617C224.038 46.8826 223.594 46.3437 223.33 45.7126C223.066 45.0816 222.995 44.3866 223.125 43.715C223.255 43.0435 223.58 42.4253 224.061 41.9383C224.541 41.4513 225.154 41.1172 225.824 40.978C226.494 40.8388 227.19 40.9006 227.824 41.1558C228.459 41.411 229.004 41.8481 229.391 42.4122C229.778 42.9763 229.989 43.6422 229.999 44.3262C230.011 44.7874 229.93 45.2463 229.761 45.6754C229.592 46.1046 229.337 46.4951 229.013 46.8236C228.689 47.152 228.303 47.4117 227.876 47.5869C227.449 47.7621 226.991 47.8492 226.53 47.8432ZM226.53 41.219C225.905 41.2149 225.293 41.3963 224.771 41.7404C224.249 42.0844 223.841 42.5756 223.599 43.1516C223.356 43.7277 223.29 44.3627 223.409 44.9763C223.528 45.5899 223.826 46.1545 224.266 46.5985C224.706 47.0425 225.268 47.3459 225.88 47.4704C226.493 47.5949 227.128 47.5348 227.707 47.2977C228.285 47.0606 228.78 46.6573 229.129 46.1387C229.478 45.6202 229.665 45.0097 229.666 44.3847C229.674 43.9692 229.599 43.5563 229.445 43.1705C229.29 42.7847 229.06 42.4337 228.768 42.1385C228.475 41.8433 228.126 41.6098 227.742 41.4519C227.358 41.2939 226.945 41.2147 226.53 41.219ZM227.366 46.5677L226.471 44.6377H225.75V46.5677H225.225V42.1767H226.519C227.483 42.1767 227.885 42.5949 227.885 43.4041C227.885 44.0481 227.582 44.4495 227.017 44.5729L227.941 46.5614L227.366 46.5677ZM225.771 44.184H226.53C227.145 44.184 227.379 43.9749 227.379 43.4145C227.379 42.8541 227.155 42.6639 226.463 42.6639H225.771V44.184Z" fill="#E4EBF7" />
  <path d="M174.902 44.6816C175.841 45.4323 177.716 45.7418 179.37 45.7418C181.514 45.7418 183.615 45.3445 185.668 43.4898C187.759 41.5891 189.198 38.6806 189.198 34.0366C189.198 29.5745 187.5 25.9529 184.017 23.8327C182.051 22.597 179.504 22.1098 176.6 22.1098C175.764 22.1098 174.902 22.1537 174.413 22.3753C174.212 22.5337 174.07 22.7544 174.009 23.0026C173.921 23.7972 173.921 29.8484 173.921 33.426C173.921 37.0936 173.921 42.208 174.009 42.8353C174.055 43.3664 174.323 44.299 174.902 44.69V44.6816ZM165.986 20.1234C166.745 20.1234 169.631 20.2551 170.973 20.2551C173.482 20.2551 175.216 20.1234 179.906 20.1234C183.837 20.1234 187.145 21.1835 189.51 23.2138C192.37 25.6895 193.9 29.1333 193.9 33.3298C193.9 39.2932 191.182 42.7391 188.449 44.6816C185.731 46.714 182.195 47.862 177.158 47.862C174.478 47.862 169.875 47.7742 166.034 47.7303H165.955C165.775 47.3769 166.283 45.9989 166.597 45.9634C167.642 45.8463 167.918 45.8045 168.399 45.6058C169.21 45.2734 169.401 44.8594 169.491 43.402C169.624 40.6628 169.581 37.3947 169.581 33.6832C169.581 31.034 169.625 25.8651 169.537 24.23C169.401 22.8625 168.824 22.5091 167.655 22.2436C166.826 22.0675 165.988 21.9349 165.146 21.8463C165.058 21.5808 165.744 20.3826 165.967 20.1234" fill="#E4EBF7" />
  <path d="M204.972 22.3649C204.794 22.4088 204.571 22.8521 204.571 23.0716C204.525 24.6628 204.481 28.8134 204.481 31.6843C204.492 31.7391 204.519 31.7894 204.559 31.8289C204.599 31.8683 204.649 31.8951 204.704 31.9059C205.284 31.9498 206.714 31.9958 207.92 31.9958C209.618 31.9958 210.601 31.7742 211.136 31.5086C212.566 30.8019 213.227 29.2546 213.227 27.5776C213.227 23.7344 210.547 22.277 206.572 22.277C206.034 22.2703 205.497 22.2996 204.964 22.3649H204.972ZM215.105 40.0334C215.105 36.1464 212.244 33.9383 207.017 33.9383C206.795 33.9383 205.135 33.8944 204.74 33.9822C204.606 34.0261 204.472 34.1139 204.472 34.2039C204.472 36.9869 204.426 41.4469 204.562 43.2138C204.652 43.9644 205.19 45.0246 205.857 45.334C206.572 45.7313 208.18 45.8191 209.296 45.8191C212.378 45.8191 215.105 44.0983 215.105 40.0334ZM196.901 20.2007C197.305 20.2007 198.492 20.3325 201.53 20.3325C204.389 20.3325 206.712 20.2446 209.476 20.2446C212.916 20.2446 217.65 21.4825 217.65 26.6053C217.65 29.1145 215.864 31.1552 213.541 32.1275C213.407 32.1714 213.407 32.2593 213.541 32.3032C216.847 33.1396 219.749 35.1741 219.749 39.0611C219.749 42.8604 217.382 45.2462 213.942 46.7475C211.851 47.6759 209.252 47.9833 206.624 47.9833C204.615 47.9833 199.228 47.7742 196.234 47.8076C195.92 47.6759 196.52 46.2603 196.788 46.0408C197.474 46.0197 198.155 45.9129 198.814 45.7229C199.885 45.4595 200.012 45.1145 200.146 43.5232C200.236 42.1537 200.236 37.2504 200.236 33.7606C200.236 28.989 200.282 25.7668 200.236 24.1756C200.192 22.9399 199.745 22.5405 198.896 22.321C198.227 22.1871 197.11 22.0554 196.217 21.9237C195.994 21.702 196.681 20.3764 196.903 20.2007" fill="#E4EBF7" />
  <path d="M36.6815 47.8432C36.5665 47.5604 36.5199 47.2545 36.5456 46.9503C36.5356 46.743 36.5826 46.5369 36.6815 46.3544C37.2593 46.2711 37.8318 46.1545 38.3961 46.0052C39.1865 45.8087 39.4834 45.3779 39.5294 44.3701C39.659 41.9885 39.6674 37.5201 39.6214 34.3795V34.2875C39.6214 33.9488 39.6214 33.4888 39.2032 33.1647C38.4682 32.7035 37.6702 32.3514 36.8342 32.1192C36.4599 32.0084 36.2529 31.8118 36.2633 31.5818C36.2738 31.3518 36.5101 31.08 36.9973 30.9838C38.2916 30.8521 41.6831 30.0429 43.015 29.4281C43.1522 29.6068 43.2158 29.8313 43.1928 30.0554C43.1928 30.1934 43.1718 30.3398 43.1572 30.4903C43.1196 30.9336 43.0778 31.4375 43.0778 31.9394C43.0859 32.0003 43.111 32.0578 43.1501 32.1053C43.1892 32.1528 43.2407 32.1884 43.299 32.2082C43.3572 32.228 43.4198 32.2311 43.4797 32.2172C43.5397 32.2033 43.5945 32.173 43.6381 32.1296C46.1745 30.1411 48.4473 29.4323 49.612 29.4323C51.5294 29.4323 53.0223 30.3481 54.1786 32.2342C54.2052 32.2797 54.2429 32.3177 54.2883 32.3444C54.3337 32.3711 54.3853 32.3857 54.4379 32.3868C54.4858 32.3864 54.5329 32.3743 54.5751 32.3518C54.6173 32.3292 54.6535 32.2967 54.6805 32.2572C57.0119 30.4882 59.3224 29.4323 60.8697 29.4323C64.5247 29.4323 66.7097 32.1694 66.7097 36.7506C66.7097 38.0679 66.6972 39.7386 66.6846 41.2964C66.6742 42.6639 66.6637 43.9456 66.6637 44.8322C66.6637 45.0413 66.9523 45.6435 67.3851 45.7627C67.9204 46.024 68.692 46.1579 69.6684 46.3251H69.7061C69.7793 46.5886 69.6245 47.6111 69.4761 47.8202C69.2335 47.8202 68.899 47.7993 68.4808 47.7783C67.7218 47.7407 66.6805 47.6884 65.4698 47.6884C63.0401 47.6884 61.7709 47.7344 60.5582 47.8139C60.4661 47.5107 60.4348 46.5321 60.5456 46.3272C61.0478 46.2487 61.5449 46.1405 62.0344 46.0031C62.808 45.748 63.0317 45.3967 63.0798 44.3701C63.0987 43.6403 63.2388 37.2107 62.9899 35.6843C62.7599 34.1014 61.5681 32.2488 58.9607 32.2488C57.9925 32.2488 56.4306 32.6524 54.9418 33.7815C54.8495 33.8862 54.7976 34.0204 54.7955 34.1599V34.1913C54.9711 35.0151 54.9711 35.977 54.9711 37.4302C54.9711 38.2666 54.9711 39.1385 54.9607 40.0104C54.9502 41.7836 54.9418 43.4563 54.9711 44.7214C54.9711 45.5828 55.4918 45.7898 55.912 45.955C56.14 46.0052 56.3198 46.0491 56.5017 46.0909C56.8509 46.1767 57.2147 46.2645 57.7563 46.3502C57.8364 46.7175 57.8293 47.0986 57.7354 47.4626C57.7132 47.5992 57.6595 47.7288 57.5785 47.8411C56.2278 47.7951 54.8415 47.7553 52.8404 47.7553C52.2341 47.7553 51.245 47.7804 50.371 47.8034C49.6622 47.8223 48.9931 47.8411 48.6125 47.8432C48.5096 47.6003 48.4638 47.337 48.4787 47.0737C48.4573 46.8256 48.5059 46.5764 48.6188 46.3544L49.1562 46.2561C49.6245 46.1725 50.0302 46.1014 50.4107 46.0052C51.0715 45.7961 51.3203 45.4365 51.3684 44.5938C51.498 42.6283 51.5984 36.9639 51.3203 35.5463C50.8477 33.2713 49.5534 32.1171 47.4709 32.1171C46.2518 32.1171 44.7108 32.7046 43.452 33.6477C43.331 33.7656 43.2356 33.9072 43.1719 34.0637C43.1082 34.2203 43.0776 34.3883 43.0819 34.5572C43.0819 35.2326 43.0819 36.0355 43.0819 36.897C43.0819 39.7407 43.0631 43.2807 43.1321 44.8113C43.1739 45.2838 43.3412 45.8442 44.2257 46.0491C44.4202 46.1056 44.7547 46.1599 45.1436 46.2248C45.3674 46.2624 45.612 46.3021 45.865 46.3481C45.9454 46.8488 45.9046 47.3615 45.7458 47.8432C45.3569 47.8432 44.8781 47.8181 44.3302 47.7951C43.4939 47.7574 42.4484 47.7114 41.267 47.7114C39.8702 47.7114 38.8979 47.7574 38.118 47.7951C37.5932 47.8202 37.1394 47.8411 36.6857 47.8432" fill="#E4EBF7" />
  <path d="M81.5221 31.3225C80.7674 31.3069 80.0251 31.5157 79.3893 31.9226C77.8378 32.8656 77.0474 34.7496 77.0474 37.518C77.0474 42.6994 79.6423 46.3189 83.3579 46.3189C84.3542 46.3504 85.3259 46.0064 86.0804 45.3549C87.222 44.4244 87.8284 42.5217 87.8284 39.8578C87.8284 34.7538 85.2921 31.3225 81.5179 31.3225H81.5221ZM82.233 48.2404C75.521 48.2404 73.1311 43.3162 73.1311 38.7099C73.1311 35.4919 74.4463 32.9765 77.0411 31.2305C78.8586 30.1054 80.9448 29.4887 83.0819 29.4448C88.2027 29.4448 91.7803 33.127 91.7803 38.4025C91.7803 41.9864 90.3522 44.8176 87.6486 46.5865C86.3501 47.3811 84.0939 48.2404 82.233 48.2404Z" fill="#E4EBF7" />
  <path d="M149.855 31.3225C149.098 31.3054 148.354 31.5143 147.718 31.9226C146.166 32.8656 145.376 34.7496 145.376 37.518C145.376 42.6994 147.971 46.3189 151.686 46.3189C152.685 46.3526 153.66 46.0084 154.417 45.3549C155.559 44.4244 156.163 42.5217 156.163 39.8578C156.163 34.7538 153.629 31.3225 149.855 31.3225ZM150.57 48.2404C143.858 48.2404 141.468 43.3162 141.468 38.712C141.468 35.4898 142.783 32.9765 145.38 31.2305C147.196 30.1047 149.282 29.4879 151.419 29.4448C156.539 29.4448 160.117 33.1291 160.117 38.4004C160.117 41.9885 158.689 44.8176 155.985 46.5844C154.687 47.3811 152.431 48.2404 150.57 48.2404Z" fill="#E4EBF7" />
  <path d="M127.255 31.1469C125.188 31.1469 123.849 32.7799 123.849 35.3079C123.849 37.8358 125.001 40.8405 128.24 40.8405C128.796 40.8405 129.804 40.5938 130.304 40.0439C131.057 39.3518 131.559 37.9216 131.559 36.4119C131.559 33.1145 129.953 31.1469 127.266 31.1469H127.255ZM126.998 48.5938C126.414 48.5874 125.838 48.7315 125.326 49.012C123.688 50.0575 122.929 51.103 122.929 52.3178C122.929 53.4553 123.37 54.3607 124.32 55.1636C125.47 56.138 127.021 56.6126 129.06 56.6126C133.072 56.6126 134.871 54.4548 134.871 52.3178C134.871 50.829 134.124 49.8317 132.587 49.2671C131.404 48.8343 129.426 48.5959 127.005 48.5959L126.998 48.5938ZM127.272 58.8416C124.863 58.8416 123.128 58.3335 121.645 57.1918C120.203 56.0794 119.554 54.4276 119.554 53.2859C119.57 52.5502 119.851 51.8448 120.345 51.2995C120.763 50.8228 121.735 49.9299 123.983 48.3847C124.018 48.3699 124.048 48.3451 124.068 48.3135C124.089 48.2819 124.1 48.2449 124.1 48.207C124.101 48.1647 124.087 48.1235 124.061 48.09C124.036 48.0566 123.999 48.033 123.958 48.023C122.108 47.3142 121.549 46.1411 121.38 45.5138C121.38 45.4908 121.38 45.4553 121.361 45.4156C121.309 45.1688 121.259 44.9346 121.595 44.6942C121.855 44.5102 122.269 44.2634 122.712 44.0021C123.338 43.6557 123.938 43.2651 124.508 42.8332C124.539 42.8003 124.561 42.7608 124.574 42.7177C124.587 42.6747 124.59 42.6292 124.583 42.5848C124.576 42.5404 124.558 42.4982 124.532 42.4616C124.506 42.4249 124.472 42.3947 124.433 42.3732C121.694 41.4532 120.313 39.4187 120.313 36.3094C120.305 35.3399 120.531 34.3826 120.971 33.5188C121.412 32.655 122.054 31.9102 122.844 31.3476C123.945 30.4757 126.712 29.4281 128.504 29.4281H128.608C130.45 29.472 131.49 29.8589 132.928 30.39C133.747 30.6858 134.614 30.8235 135.483 30.7956C137.008 30.7956 137.675 30.3126 138.248 29.7501C138.341 30.0035 138.39 30.2707 138.394 30.5405C138.429 31.1834 138.254 31.8203 137.896 32.3554C137.585 32.7883 136.851 33.1019 136.18 33.1019C136.111 33.1019 136.044 33.1019 135.971 33.0915C135.617 33.0666 135.267 33.0085 134.925 32.9179L134.754 32.9786C134.699 33.058 134.735 33.1458 134.779 33.2587C134.789 33.2808 134.798 33.3039 134.804 33.3277C134.926 33.8858 135.009 34.4517 135.053 35.0214C135.053 38.2729 133.771 39.6884 132.385 40.7381C131.044 41.7438 129.453 42.3602 127.784 42.5196C127.749 42.5196 127.575 42.5342 127.249 42.5635C127.04 42.5823 126.768 42.6074 126.729 42.6074H126.689C126.388 42.691 125.602 43.0653 125.602 43.7616C125.602 44.3387 125.957 45.0559 127.657 45.1856L128.757 45.2629C130.998 45.4197 133.798 45.6142 135.115 46.0596C135.989 46.3669 136.744 46.9418 137.272 47.7028C137.8 48.4637 138.075 49.3718 138.057 50.2979C138.057 53.2148 135.983 55.9582 132.51 57.6351C130.872 58.4174 129.079 58.8198 127.264 58.8123" fill="#E4EBF7" />
  <path d="M116.997 46.2875C116.014 46.1558 115.297 46.0219 114.45 45.6247C114.284 45.4525 114.175 45.2336 114.137 44.9974C114.047 43.6278 114.047 39.6529 114.047 37.0517C114.047 34.9294 113.691 33.0789 112.792 31.7512C111.72 30.2478 110.202 29.3654 108.236 29.3654C106.494 29.3654 104.171 30.5572 102.252 32.1924C102.206 32.2363 101.911 32.5165 101.917 32.0815C101.924 31.6466 101.99 30.7642 102.032 30.1997C102.051 30.0497 102.034 29.8974 101.983 29.7551C101.932 29.6128 101.849 29.4843 101.74 29.38C100.485 30.0073 96.9659 30.8437 95.6632 30.9712C94.7139 31.1552 94.4734 32.069 95.4876 32.3847H95.5022C96.314 32.6086 97.0888 32.9495 97.8023 33.3967C98.2037 33.7062 98.1598 34.1474 98.1598 34.5008C98.2037 37.4595 98.2037 42.0094 98.0699 44.483C98.026 45.4553 97.7563 45.8087 97.0411 45.9864L97.1081 45.9634C96.5635 46.0999 96.0112 46.2032 95.4541 46.2729C95.2304 46.4924 95.2304 47.7742 95.4541 48.0397C95.9016 48.0397 98.1723 47.908 100.054 47.908C102.643 47.908 103.983 48.0397 104.654 48.0397C104.924 47.7303 105.012 46.5384 104.834 46.2729C104.216 46.2449 103.601 46.1559 103 46.0073C102.287 45.8317 102.108 45.4762 102.064 44.6837C101.976 42.6053 101.976 38.1892 101.976 35.1845C101.976 34.3481 102.197 33.9488 102.465 33.7208C103.358 32.9263 104.834 32.3973 106.128 32.3973C107.383 32.3973 108.219 32.7946 108.847 33.3236C109.577 33.9611 110.035 34.8548 110.126 35.8202C110.304 37.4929 110.258 40.8573 110.258 43.7658C110.258 45.357 110.126 45.7564 109.545 45.932C109.277 46.0638 108.562 46.1976 107.713 46.2854C107.446 46.551 107.534 47.7867 107.713 48.0523C108.874 48.0523 110.223 47.9205 112.18 47.9205C114.637 47.9205 116.201 48.0523 116.826 48.0523C117.093 47.7428 117.183 46.5886 117.006 46.2854" fill="#E4EBF7" />
</svg>