<svg width="107" height="107" viewBox="0 0 107 107" fill="none" xmlns="http://www.w3.org/2000/svg">
  <path d="M77.0231 36.9038L76.9842 36.8872C76.962 36.8789 76.9398 36.8706 76.9204 36.8511C76.8886 36.817 76.8651 36.7759 76.8516 36.7312C76.8381 36.6865 76.8351 36.6393 76.8428 36.5932L78.9867 23.4858L89.0405 33.5424L78.5845 37.991C78.5555 38.0028 78.5243 38.0084 78.493 38.0077H78.4514C78.4375 37.9994 78.4237 37.9883 78.3959 37.9605C78.0068 37.5273 77.5415 37.1691 77.0231 36.9038ZM91.6059 36.1051L102.356 46.855C104.588 49.0904 105.706 50.2054 106.114 51.4978C106.175 51.6892 106.225 51.8805 106.264 52.0774L80.5731 41.1972C80.5593 41.1915 80.5454 41.1859 80.5315 41.1805C80.4289 41.1389 80.3096 41.0918 80.3096 40.9864C80.3096 40.881 80.4316 40.8311 80.5343 40.7895L80.5675 40.7756L91.6059 36.1051ZM105.825 55.5276C105.271 56.5704 104.189 57.6521 102.359 59.4854L90.2386 71.6026L74.563 68.3382L74.4798 68.3216C74.3411 68.2994 74.1941 68.2744 74.1941 68.1496C74.1346 67.503 73.9426 66.8755 73.6301 66.3063C73.3175 65.737 72.8912 65.2382 72.3775 64.8409C72.3137 64.7771 72.3304 64.6773 72.3498 64.5857C72.3498 64.5719 72.3498 64.558 72.3553 64.5469L75.3035 46.4473L75.3146 46.3863C75.3312 46.2476 75.3562 46.0868 75.481 46.0868C76.1128 46.0082 76.7227 45.8046 77.275 45.488C77.8273 45.1713 78.3112 44.7479 78.6982 44.2424C78.7232 44.2147 78.7398 44.1842 78.7731 44.1675C78.8619 44.1259 78.9672 44.1675 79.0588 44.2064L105.823 55.5276H105.825ZM87.4513 74.3899L67.5212 94.32L70.9325 73.3527L70.9381 73.3249C70.9409 73.2972 70.9464 73.2694 70.9547 73.2445C70.9825 73.1779 71.0546 73.1502 71.1239 73.1225L71.1572 73.1086C71.9041 72.7899 72.5648 72.2985 73.0847 71.6747C73.1513 71.5971 73.2317 71.5222 73.3344 71.5083C73.361 71.504 73.3882 71.504 73.4148 71.5083L87.4485 74.3927L87.4513 74.3899ZM63.3027 98.5384L61.0562 100.785L36.2199 64.8908C36.2109 64.8777 36.2017 64.8648 36.1922 64.852C36.1533 64.7993 36.1117 64.7466 36.1201 64.6856C36.1201 64.6412 36.1506 64.6024 36.1811 64.5691L36.2088 64.5331C36.2837 64.4221 36.3475 64.3112 36.4168 64.1919L36.4723 64.0948L36.4806 64.0865C36.5194 64.02 36.5555 63.9562 36.6221 63.9201C36.6803 63.8924 36.7607 63.9035 36.8245 63.9173L64.34 69.5918C64.417 69.6038 64.4895 69.6353 64.5508 69.6834C64.5869 69.7194 64.5952 69.7582 64.6035 69.8026C64.7954 70.5288 65.1526 71.2008 65.6472 71.7661C66.1418 72.3314 66.7604 72.7747 67.4546 73.0614C67.5323 73.1003 67.499 73.1862 67.4629 73.2778C67.445 73.3179 67.431 73.3597 67.4213 73.4026C67.0747 75.5104 64.1015 93.6433 63.3027 98.5384ZM58.6101 103.228C56.9543 104.867 55.978 105.736 54.8742 106.085C53.7858 106.429 52.6178 106.429 51.5294 106.085C50.237 105.675 49.1193 104.56 46.8866 102.324L21.9449 77.3825L28.4598 67.2788C28.4903 67.2289 28.5208 67.1845 28.5707 67.1484C28.64 67.0985 28.7399 67.1207 28.8231 67.1484C30.3184 67.5996 31.9239 67.5182 33.366 66.9182C33.4409 66.8905 33.5158 66.8711 33.574 66.9238C33.6032 66.9504 33.6292 66.9801 33.6517 67.0125L58.6101 103.231V103.228ZM19.5403 74.9779L13.8187 69.2562L25.1178 64.436C25.1466 64.4234 25.1778 64.4168 25.2093 64.4166C25.3036 64.4166 25.359 64.5109 25.409 64.5968C25.5225 64.7715 25.6428 64.9418 25.7695 65.1072L25.8056 65.1515C25.8389 65.1987 25.8167 65.2458 25.7834 65.2902L19.5431 74.9779H19.5403ZM11.2865 66.7241L4.04778 59.4854C2.81636 58.2539 1.92331 57.3609 1.30205 56.5926L23.3122 61.1577C23.3399 61.1629 23.3676 61.1675 23.3954 61.1716C23.5313 61.1938 23.6811 61.2188 23.6811 61.3463C23.6811 61.485 23.5175 61.5488 23.3788 61.6015L23.315 61.6292L11.2865 66.7241ZM0.0373535 52.8707C0.0624371 52.4043 0.146304 51.9431 0.286965 51.4978C0.697437 50.2054 1.81237 49.0904 4.04778 46.855L13.3111 37.5917C17.5763 43.7817 21.8529 49.9637 26.1412 56.1378C26.216 56.2376 26.2992 56.3486 26.2133 56.4318C25.8083 56.8783 25.4034 57.3664 25.1178 57.8962C25.0868 57.9643 25.0391 58.0234 24.9791 58.0681C24.943 58.0903 24.9042 58.082 24.8626 58.0737H24.857L0.0373535 52.8679V52.8707ZM15.7906 35.1122L28.2407 22.6566C29.4138 23.1697 33.6766 24.9696 37.4846 26.5782C40.369 27.7986 42.9982 28.908 43.8247 29.2685C43.9079 29.3018 43.9828 29.3351 44.0189 29.4183C44.0411 29.4682 44.03 29.532 44.0189 29.5847C43.8217 30.4838 43.851 31.4178 44.1042 32.3027C44.3574 33.1876 44.8265 33.9958 45.4694 34.6546C45.5526 34.7378 45.4694 34.857 45.3973 34.9596L45.3585 35.0179L32.7115 54.6068C32.6782 54.6623 32.6477 54.7095 32.5922 54.7455C32.5257 54.7871 32.4314 54.7677 32.3537 54.7483C31.8618 54.6194 31.3562 54.5505 30.8477 54.543C30.3929 54.543 29.8992 54.6263 29.4 54.7178H29.3972C29.3417 54.7261 29.2918 54.7372 29.2474 54.7039C29.1984 54.6639 29.1563 54.6161 29.1226 54.5625L15.7878 35.1122H15.7906ZM30.7617 20.1411L46.8866 4.01616C49.1193 1.78352 50.237 0.665818 51.5294 0.258119C52.6178 -0.0860398 53.7858 -0.0860398 54.8742 0.258119C56.1666 0.665818 57.2843 1.78352 59.517 4.01616L63.0115 7.51072L51.5433 25.272C51.5149 25.3237 51.4762 25.369 51.4296 25.4051C51.3602 25.4522 51.2632 25.4328 51.18 25.4051C50.2758 25.1307 49.3183 25.0807 48.3905 25.2595C47.4627 25.4383 46.5924 25.8405 45.8549 26.4313C45.78 26.5089 45.6691 26.4645 45.5748 26.4229C44.0771 25.7712 32.4286 20.8483 30.7617 20.1411ZM65.4466 9.94581L76.0357 20.5349L73.4841 36.3381V36.3797C73.4818 36.4157 73.4744 36.4512 73.4619 36.4851C73.4342 36.5405 73.3787 36.5516 73.3233 36.5683C72.7777 36.7335 72.2639 36.9895 71.8034 37.3254C71.7836 37.3395 71.7651 37.3553 71.7479 37.3726C71.7174 37.4058 71.6869 37.4363 71.637 37.4419C71.5964 37.4431 71.5559 37.4366 71.5177 37.4225L55.3817 30.5665L55.3512 30.5526C55.2486 30.511 55.1266 30.4611 55.1266 30.3557C55.0317 29.4565 54.7381 28.5897 54.2668 27.818C54.1892 27.6904 54.1032 27.5573 54.1698 27.4269L65.4466 9.94581ZM54.5414 33.8142L69.6678 40.2209C69.751 40.2597 69.8426 40.2958 69.8786 40.3818C69.8931 40.4335 69.8931 40.4881 69.8786 40.5398C69.8343 40.7617 69.7954 41.0141 69.7954 41.2693V41.6936C69.7954 41.799 69.6873 41.8434 69.5874 41.885L69.5569 41.8961C67.1606 42.9195 35.9148 56.2432 35.8677 56.2432C35.8205 56.2432 35.7706 56.2432 35.7235 56.196C35.6403 56.1128 35.7235 55.9963 35.7983 55.8909C35.8116 55.8727 35.8245 55.8542 35.8372 55.8355L48.2678 36.5877L48.29 36.5544C48.3621 36.4379 48.4453 36.3075 48.5784 36.3075L48.7033 36.327C48.9861 36.3658 49.2358 36.4018 49.4881 36.4018C51.3741 36.4018 53.1214 35.4838 54.1753 33.9141C54.2004 33.8721 54.2323 33.8346 54.2696 33.8031C54.3445 33.7476 54.4554 33.7754 54.5414 33.8142ZM37.2184 59.2884L71.2764 44.7638C71.2764 44.7638 71.3264 44.7638 71.3735 44.811C71.5593 44.9968 71.7174 45.1216 71.87 45.2381L71.9448 45.2852C72.0142 45.3241 72.0835 45.3684 72.0891 45.4406C72.0891 45.4683 72.0891 45.4849 72.0835 45.5099L69.1658 63.432L69.1548 63.5041C69.1353 63.6428 69.1159 63.8009 68.9856 63.8009C68.2077 63.8534 67.4544 64.0947 66.7908 64.5041C66.1273 64.9134 65.5736 65.4784 65.1776 66.15L65.1637 66.1722C65.1249 66.236 65.0889 66.297 65.0251 66.3303C64.9668 66.358 64.8919 66.3469 64.8309 66.333L37.6704 60.7306C37.6427 60.7251 37.2489 59.2912 37.2184 59.2884Z" fill="#E4EBF7" />
</svg>