<svg width="207" height="125" viewBox="0 0 207 125" fill="none" xmlns="http://www.w3.org/2000/svg">
  <path d="M48.7393 32.3452H87.6982V35.4268H52.3105V58.6202H85.588V61.7018H52.3105V87.1659H88.1041V90.2475H48.7393V32.3452ZM91.1883 32.3452H95.3277L113.671 57.8092L132.42 32.3452L157.922 0L116.025 60.4854L137.614 90.2475H133.313L113.671 63.1616L93.9479 90.2475H89.7274L111.479 60.4854L91.1883 32.3452ZM139.157 35.4268V32.3452H183.554V35.4268H163.1V90.2475H159.529V35.4268H139.157Z" fill="#E4EBF7" />
  <path d="M0 32.3452H4.46405L66.0207 124.016L40.5823 90.2475L3.73357 36.7244L3.57124 90.2475H0V32.3452Z" fill="#E4EBF7" />
  <path d="M183.194 86.2359C183.932 86.2359 184.471 85.6733 184.471 84.9462C184.471 84.2192 183.932 83.6565 183.194 83.6565C182.464 83.6565 181.917 84.2192 181.917 84.9462C181.917 85.6733 182.464 86.2359 183.194 86.2359ZM186.703 82.8429C186.703 84.9895 188.258 86.3917 190.525 86.3917C192.939 86.3917 194.399 84.9462 194.399 82.4361V73.5987H192.453V82.4274C192.453 83.821 191.749 84.5654 190.507 84.5654C189.396 84.5654 188.64 83.8729 188.614 82.8429H186.703ZM196.944 82.7304C197.083 84.9635 198.95 86.3917 201.73 86.3917C204.7 86.3917 206.559 84.8943 206.559 82.5053C206.559 80.6271 205.5 79.5884 202.928 78.9912L201.547 78.6536C199.914 78.2728 199.254 77.7621 199.254 76.8705C199.254 75.7453 200.279 75.0096 201.817 75.0096C203.276 75.0096 204.283 75.728 204.466 76.8792H206.359C206.247 74.7759 204.388 73.2958 201.843 73.2958C199.107 73.2958 197.283 74.7759 197.283 77.0004C197.283 78.8354 198.316 79.926 200.583 80.454L202.199 80.8435C203.858 81.233 204.588 81.8042 204.588 82.7564C204.588 83.8643 203.441 84.6692 201.877 84.6692C200.201 84.6692 199.037 83.9162 198.872 82.7304H196.944Z" fill="#E4EBF7" />
</svg>