<svg width="93" height="109" viewBox="0 0 93 109" fill="none" xmlns="http://www.w3.org/2000/svg">
  <path d="M88.5824 23.7529L50.9393 1.17622C49.5872 0.405379 48.0576 0 46.5012 0C44.9448 0 43.4153 0.405379 42.0631 1.17622L4.41761 23.7505C3.06097 24.5818 1.94167 25.749 1.16785 27.1393C0.394024 28.5295 -0.00816994 30.0958 0.000125779 31.6869V76.7749C-0.00801327 78.3669 0.394185 79.9342 1.16794 81.3256C1.94169 82.717 3.06089 83.8855 4.41761 84.7186L14.2892 90.6134L14.3449 90.6449C19.3291 93.1951 21.2375 93.1951 23.4487 93.1951C31.2325 93.1951 36.069 88.1577 36.069 80.0468V36.3297C36.0735 35.7839 35.8614 35.2586 35.4791 34.869C35.0968 34.4795 34.5756 34.2574 34.0298 34.2517H28.6097C28.0639 34.2574 27.5427 34.4795 27.1604 34.869C26.7781 35.2586 26.5659 35.7839 26.5705 36.3297V80.0468C26.5902 80.6727 26.4478 81.293 26.1571 81.8476C25.8664 82.4022 25.4373 82.8723 24.9115 83.2122C23.4826 84.0841 21.407 83.9 19.0651 82.6915L9.60526 76.9977C9.56905 76.973 9.53949 76.9397 9.51921 76.9008C9.49893 76.862 9.48856 76.8187 9.48901 76.7749V32.3239C9.49056 32.2728 9.50435 32.2228 9.52922 32.1781C9.55408 32.1335 9.58929 32.0954 9.6319 32.0672L46.4056 9.54378C46.433 9.53012 46.4633 9.52302 46.494 9.52302C46.5246 9.52302 46.5549 9.53012 46.5824 9.54378L83.3778 32.0672C83.4197 32.0977 83.4536 32.1378 83.4768 32.1842C83.5 32.2305 83.5117 32.2817 83.511 32.3336V76.7749C83.5119 76.8208 83.5026 76.8663 83.4838 76.9082C83.4649 76.9501 83.437 76.9873 83.402 77.0171L46.5751 98.9713C46.5123 98.9931 46.4441 98.9931 46.3813 98.9713L36.9772 93.3865C36.698 93.204 36.3755 93.0987 36.0424 93.0812C35.7094 93.0638 35.3776 93.1348 35.0809 93.2872L34.9986 93.3356C32.4023 94.8735 31.7048 95.2731 29.2975 96.1498C28.9051 96.2927 27.9824 96.6342 27.9025 97.5472C27.8226 98.4603 28.6993 99.1093 29.4791 99.5622L42.0486 107.281C43.3879 108.083 44.9195 108.507 46.4806 108.509H46.6211C48.1432 108.485 49.6323 108.061 50.9393 107.281L88.5824 84.7259C89.9384 83.8902 91.0569 82.7201 91.8304 81.3278C92.604 79.9354 93.0067 78.3676 92.9999 76.7749V31.6869C93.0075 30.0963 92.605 28.5306 91.8313 27.1408C91.0575 25.751 89.9385 24.5842 88.5824 23.7529Z" fill="#E4EBF7" />
  <path d="M59.0647 69.2792C50.0335 69.2792 48.1081 66.7556 47.5366 62.682C47.4722 62.197 47.2358 61.7512 46.8704 61.4259C46.5051 61.1005 46.035 60.9171 45.5458 60.9092H40.7505C40.21 60.9207 39.6961 61.1457 39.3212 61.5352C38.9463 61.9246 38.7409 62.4467 38.75 62.9872C38.75 66.5182 39.99 78.0439 59.0744 78.0439C64.9789 78.0439 69.8904 76.6635 73.2738 74.0503C76.6571 71.4371 78.4687 67.6347 78.4687 63.1034C78.4687 54.0093 72.5351 51.5196 60.8496 49.8921C48.9703 48.2404 48.9703 47.4 48.9703 45.5594C48.9703 44.2346 48.9703 41.1322 57.5583 41.1322C63.6686 41.1322 66.9406 41.9048 67.9868 45.976C68.0795 46.4273 68.3235 46.8335 68.6785 47.1273C69.0335 47.421 69.4781 47.5848 69.9389 47.5913H74.7511C75.0347 47.5885 75.3145 47.5253 75.5717 47.4059C75.829 47.2864 76.0578 47.1135 76.243 46.8987C76.613 46.4668 76.7975 45.9062 76.7564 45.339C76.134 36.7293 69.8396 32.3626 57.5655 32.3626C46.4104 32.3626 39.7527 37.388 39.7527 45.804C39.7527 55.0313 46.6526 57.6397 57.0182 58.7198C69.1275 59.9719 69.1275 61.798 69.1275 63.411C69.1348 65.9249 68.091 69.2792 59.0647 69.2792Z" fill="#E4EBF7" />
</svg>