<svg width="162" height="108" viewBox="0 0 162 108" fill="none" xmlns="http://www.w3.org/2000/svg">
  <path fill-rule="evenodd" clip-rule="evenodd" d="M19.2991 48.8775C18.8221 49.6275 18.3261 50.4072 17.8959 51.1601C16.1063 54.2919 18.7907 60.5555 23.712 60.5555C30.8704 60.5555 37.5072 50.5622 44.7397 33.7118C51.6122 24.0221 57.0962 21.8678 68.4518 21.1847C77.2114 10.7031 83.2953 5.54405 101.112 0.604417C118.861 -1.22808 127.442 0.967072 140.93 9.10496C153.605 20.3367 157.855 27.1213 161.063 40.8702C163.097 61.1181 159.673 70.3597 144.957 82.9255C135.557 87.9665 129.888 89.0213 119.455 88.2943C118.99 88.1723 118.539 88.0535 118.099 87.9377C111.497 86.1981 107.533 85.1538 97.98 84.7151C98.4684 84.5357 98.9273 84.3678 99.3615 84.209C102.625 83.0153 104.488 82.3338 106.928 81.1359C89.8014 78.3708 81.2659 79.3534 67.557 84.7151C72.6321 69.2698 79.0801 63.2765 90.3742 53.8447C97.9529 49.0003 100.317 48.4522 112.68 45.5854C114.661 45.1261 116.898 44.6073 119.455 44.0018C131.134 40.9803 134.442 37.7212 133.772 28.7904C132.84 36.5158 128.858 39.5058 114.981 42.2123C113.418 23.449 100.938 17.4446 77.3997 24.7639C79.6214 26.4385 85.0918 26.6377 89.7718 26.8081C92.6993 26.9147 95.3176 27.01 96.6378 27.4482C98.6276 28.1087 100.749 30.4245 103.296 33.2057C105.14 35.2197 107.209 37.4777 109.612 39.528C103.016 38.7232 99.5606 37.6433 93.9534 34.1592C81.0363 44.825 74.1924 47.5922 58.1616 50.2655C62.383 50.5661 63.8206 51.0339 65.7674 52.0551C53.3647 69.9272 47.0788 76.8194 37.5814 81.1359C36.645 80.3535 37.4431 78.2771 38.8083 74.7248C38.8463 74.626 38.8847 74.526 38.9235 74.4249C21.7237 97.5877 13.0294 106.433 0.894794 107.532C11.0014 98.1989 14.2786 91.6228 18.3433 78.8989C9.5129 82.2334 5.0824 82.951 0 78.0041C3.09814 69.0533 10.3145 59.9098 11.1849 59.2133C11.1121 59.1779 14.8476 47.7869 20.5803 44.4493C22.124 44.4367 20.8063 46.5082 19.2991 48.8775ZM15.2117 56.0815C16.2675 58.2609 16.1863 59.2322 16.1065 60.1081L15.9134 60.1405C14.9555 60.3021 14.758 60.3354 13.8695 60.1081C13.9303 58.4623 14.2229 57.5882 15.2117 56.0815ZM9.39556 69.056C10.1529 70.0634 10.2778 70.6594 9.84295 71.7404C8.53767 72.786 7.87549 72.9308 6.71118 73.0826C6.75133 71.1168 7.38449 70.188 9.39556 69.056Z" fill="#E4EBF7" />
</svg>