<svg width="133" height="119" viewBox="0 0 133 119" fill="none" xmlns="http://www.w3.org/2000/svg">
  <path d="M133 59.2942C133 50.4835 121.966 42.1338 105.05 36.9558C108.954 19.7141 107.219 5.99659 99.5738 1.60482C97.8117 0.574653 95.7513 0.0866796 93.5012 0.0866796V6.13214C94.7483 6.13214 95.7513 6.37612 96.5917 6.83699C100.279 8.95154 101.878 17.0031 100.631 27.359C100.333 29.9073 99.8449 32.5912 99.2485 35.3292C93.935 34.028 88.1335 33.0249 82.0338 32.3743C78.374 27.359 74.5787 22.8046 70.7562 18.8195C79.594 10.6052 87.8895 6.10503 93.5283 6.10503V0.0595703C86.0732 0.0595703 76.3137 5.37307 66.4458 14.5904C56.5779 5.42729 46.8184 0.168009 39.3632 0.168009V6.21346C44.9749 6.21346 53.2976 10.6866 62.1353 18.8466C58.34 22.8317 54.5446 27.359 50.9391 32.3743C44.8123 33.0249 39.0108 34.028 33.6973 35.3564C33.0738 32.6454 32.6129 30.0157 32.2876 27.4945C31.0135 17.1387 32.5858 9.08709 36.2456 6.94543C37.0589 6.45745 38.1162 6.24057 39.3632 6.24057V0.195119C37.086 0.195119 35.0257 0.683092 33.2364 1.71326C25.6186 6.10503 23.9107 19.7954 27.8416 36.9829C10.9794 42.188 0 50.5107 0 59.2942C0 68.1048 11.0336 76.4546 27.9501 81.6326C24.0463 98.8743 25.7813 112.592 33.4262 116.984C35.1883 118.014 37.2487 118.502 39.5259 118.502C46.981 118.502 56.7405 113.188 66.6084 103.971C76.4764 113.134 86.2358 118.393 93.691 118.393C95.9682 118.393 98.0285 117.905 99.8178 116.875C107.436 112.483 109.143 98.793 105.213 81.6054C122.021 76.4275 133 68.0777 133 59.2942ZM97.7032 41.212C96.7002 44.7092 95.4531 48.3148 94.0434 51.9204C92.9319 49.7516 91.7662 47.5828 90.4921 45.414C89.245 43.2453 87.9166 41.1307 86.5883 39.0704C90.4378 39.6397 94.1518 40.3445 97.7032 41.212ZM85.287 70.0838C83.1724 73.7436 81.0037 77.2137 78.7536 80.4397C74.7142 80.7922 70.6207 80.9819 66.5 80.9819C62.4064 80.9819 58.3129 80.7922 54.3007 80.4668C52.0505 77.2408 49.8547 73.7979 47.7401 70.1652C45.6798 66.6138 43.8092 63.0082 42.1013 59.3755C43.7821 55.7428 45.6798 52.1101 47.713 48.5588C49.8276 44.899 51.9963 41.4289 54.2464 38.2029C58.2858 37.8504 62.3793 37.6607 66.5 37.6607C70.5936 37.6607 74.6871 37.8504 78.6993 38.1758C80.9494 41.4018 83.1453 44.8447 85.2599 48.4774C87.3202 52.0288 89.1908 55.6344 90.8987 59.2671C89.1908 62.8998 87.3202 66.5325 85.287 70.0838ZM94.0434 66.5596C95.5073 70.1923 96.7544 73.825 97.7846 77.3492C94.2332 78.2167 90.4921 78.9487 86.6154 79.518C87.9437 77.4306 89.2721 75.2889 90.5192 73.093C91.7662 70.9242 92.9319 68.7283 94.0434 66.5596ZM66.5542 95.4856C64.033 92.8831 61.5118 89.9823 59.0177 86.8105C61.4576 86.9189 63.9517 87.0003 66.4729 87.0003C69.0212 87.0003 71.5424 86.946 74.0094 86.8105C71.5695 89.9823 69.0483 92.8831 66.5542 95.4856ZM46.3846 79.518C42.5351 78.9487 38.821 78.2438 35.2697 77.3763C36.2727 73.8792 37.5198 70.2736 38.9295 66.668C40.041 68.8368 41.2067 71.0056 42.4808 73.1743C43.755 75.3431 45.0563 77.4577 46.3846 79.518ZM66.4187 23.1028C68.9399 25.7053 71.4611 28.606 73.9552 31.7779C71.5153 31.6694 69.0212 31.5881 66.5 31.5881C63.9517 31.5881 61.4305 31.6423 58.9635 31.7779C61.4034 28.606 63.9246 25.7053 66.4187 23.1028ZM46.3575 39.0704C45.0292 41.1578 43.7008 43.2995 42.4537 45.4954C41.2067 47.6641 40.041 49.8329 38.9295 52.0017C37.4655 48.369 36.2185 44.7363 35.1883 41.212C38.7397 40.3716 42.4808 39.6397 46.3575 39.0704ZM21.8233 73.0117C12.2265 68.9181 6.01834 63.5504 6.01834 59.2942C6.01834 55.038 12.2265 49.6431 21.8233 45.5767C24.1547 44.5736 26.703 43.679 29.3327 42.8386C30.8779 48.1521 32.9111 53.6825 35.4323 59.3484C32.9382 64.9872 30.9321 70.4905 29.414 75.7769C26.7301 74.9365 24.1818 74.0147 21.8233 73.0117ZM36.4083 111.751C32.7214 109.637 31.1219 101.585 32.3689 91.2294C32.6671 88.6811 33.1551 85.9972 33.7515 83.2591C39.065 84.5604 44.8665 85.5635 50.9662 86.2141C54.626 91.2294 58.4213 95.7838 62.2438 99.7689C53.406 107.983 45.1105 112.483 39.4717 112.483C38.2517 112.456 37.2216 112.212 36.4083 111.751ZM100.712 91.0938C101.987 101.45 100.414 109.501 96.7544 111.643C95.9411 112.131 94.8838 112.348 93.6368 112.348C88.0251 112.348 79.7024 107.875 70.8647 99.7147C74.66 95.7296 78.4554 91.2023 82.061 86.187C88.1877 85.5363 93.9892 84.5333 99.3027 83.2049C99.9262 85.943 100.414 88.5726 100.712 91.0938ZM111.15 73.0117C108.818 74.0147 106.27 74.9094 103.64 75.7498C102.095 70.4363 100.062 64.9059 97.5406 59.24C100.035 53.6012 102.041 48.0979 103.559 42.8115C106.243 43.6519 108.791 44.5736 111.177 45.5767C120.774 49.6703 126.982 55.038 126.982 59.2942C126.955 63.5504 120.746 68.9452 111.15 73.0117Z" fill="#E4EBF7" />
  <path d="M66.4734 71.6833C73.3157 71.6833 78.8625 66.1365 78.8625 59.2942C78.8625 52.4519 73.3157 46.9051 66.4734 46.9051C59.6311 46.9051 54.0843 52.4519 54.0843 59.2942C54.0843 66.1365 59.6311 71.6833 66.4734 71.6833Z" fill="#E4EBF7" />
</svg>