<svg width="125" height="86" viewBox="0 0 125 86" fill="none" xmlns="http://www.w3.org/2000/svg">
  <path d="M124.948 60.5589C124.59 57.6488 123.115 55.1243 120.554 53.0467C120.522 53.0079 120.487 52.972 120.449 52.9393L120.32 52.8465L120.278 52.8172L118.918 51.8406L118.872 51.8065L118.698 51.6844C118.635 51.6473 118.567 51.6186 118.496 51.5989C114.194 49.0379 107.072 47.2435 96.1765 51.0887C93.5764 46.7137 93.281 43.2078 95.0217 37.8367C95.3317 36.9017 95.0437 36.284 94.1159 35.8836C92.2507 35.0902 89.697 35.4954 87.8855 35.974C87.0407 36.1937 86.5329 36.6722 86.3718 37.3973C85.2243 42.7684 81.8894 47.6756 78.6643 52.4119L78.4738 52.6903C76.4865 48.4764 76.8991 45.2122 78.2834 41.1229C78.5593 40.3074 78.342 39.7655 77.5779 39.3602C75.4441 38.2591 72.2434 39.0159 70.969 39.3919C69.3528 39.8631 67.6194 44.2308 65.6833 49.4603C65.195 50.7762 64.7751 51.9017 64.5237 52.4266C63.9255 53.6473 63.3542 55.0389 62.7488 56.5159C61.3816 59.8582 59.841 63.6204 57.6389 65.9837C56.8381 64.2137 58.0979 61.4232 59.321 58.7156C60.7688 55.515 62.136 52.4901 60.5612 50.5589C60.3122 50.2536 60.0033 50.0025 59.6536 49.8211C59.3038 49.6397 58.9206 49.5319 58.5276 49.5042C58.0148 49.4652 57.5001 49.5489 57.0261 49.7484C57.1897 48.369 57.197 47.2801 56.7942 45.9642C56.218 44.0867 54.7214 43.0345 52.6609 43.0906C47.9685 43.2274 43.9988 46.7235 41.4914 49.6336C39.8215 51.5867 36.1203 53.076 32.8708 54.3821C31.5867 54.9266 30.366 55.4149 29.3479 55.9031C27.7244 54.5311 25.6614 53.1468 23.4885 51.6844C17.385 47.5877 10.4685 42.9417 10.2292 36.6429C9.88745 27.3387 20.4831 20.7396 29.7312 16.0301C36.7405 12.4657 42.8342 10.1024 48.3615 8.81087C56.1252 6.99691 62.6828 7.36312 67.8488 9.89486C70.676 11.2791 71.9992 14.2894 71.1594 17.3851C68.9621 25.4295 59.8581 30.9422 52.0725 33.4227C47.3825 34.9168 43.3909 35.5418 39.8655 35.3367C35.4465 35.0804 31.8381 32.8636 30.2952 31.9188C30.048 31.75 29.7866 31.6029 29.5139 31.4793L29.4431 31.4622C29.3034 31.4275 29.1568 31.4319 29.0194 31.4749C28.882 31.518 28.7592 31.5981 28.6643 31.7064C28.3469 32.0848 28.4592 32.6829 28.574 32.9857C30.0754 36.909 33.176 39.387 37.7878 40.3514C39.2972 40.6536 40.8335 40.8001 42.3728 40.7884C53.1662 40.7884 66.9382 34.5653 71.9968 29.4408C75.4465 25.9495 77.9587 22.3607 78.9987 16.1717C80.0852 9.68978 75.6906 5.18539 71.2131 3.11019C60.3318 -1.91178 47.9734 0.0730843 39.5212 2.62191C29.6335 5.60287 19.404 11.0228 11.4597 17.4974C1.6648 25.4735 -1.87524 32.8783 0.932378 39.5311C3.81568 46.3499 10.8469 50.6151 17.6462 54.741C19.8435 56.0716 21.9333 57.3387 23.8157 58.6473C23.2493 58.9232 22.6706 59.2039 22.0823 59.4847C16.3743 62.2508 9.89966 65.3636 6.30835 70.5076C3.70093 74.2552 3.21265 77.9856 4.85816 81.5965C5.73706 83.5179 7.29956 84.8216 9.46997 85.471C10.599 85.7909 11.7683 85.9463 12.9416 85.9324C17.1677 85.9324 21.8186 84.2234 24.3503 82.6439C28.823 79.8362 31.7209 76.0667 32.9661 71.4403C34.0745 67.324 33.8083 63.2347 32.197 59.5848L37.678 56.8211C35.0339 65.6102 37.0603 70.8592 39.2868 73.7547C40.1072 74.8216 41.5867 75.4637 43.2395 75.493C44.8923 75.5223 46.4133 74.8997 47.2727 73.8401C48.8987 71.826 50.0998 69.47 51.2058 67.1141C51.1472 68.6522 51.2204 70.2098 51.7453 71.5306C52.2165 72.7196 52.9929 73.5081 53.9939 73.8109C55.0583 74.1356 56.3059 73.8621 57.507 73.0418C62.9196 69.3382 66.6208 60.449 69.5945 53.3031C70.0168 52.2874 70.4221 51.3109 70.8152 50.3978C71.5508 53.0306 72.5743 55.5744 73.8669 57.9832C74.155 58.5057 74.1306 58.7352 73.74 59.1649C73.1516 59.8094 72.3313 60.5882 71.4621 61.4134C68.8303 63.911 65.5539 67.0286 65.1145 69.7703C64.9436 70.869 65.7004 71.8699 66.8747 72.097C70.4074 72.8001 74.6628 71.7723 78.2614 69.3504C81.5329 67.1531 82.7634 64.0892 81.9235 60.2708C81.1106 56.5941 82.966 52.0286 87.4387 46.6917C88.1711 49.7508 89.1477 52.2239 90.4953 54.3895L90.4587 54.4188C87.2019 57.263 82.739 61.157 83.4323 65.8812C83.4905 66.3304 83.6417 66.7627 83.8763 67.1502C84.1108 67.5378 84.4236 67.8722 84.7946 68.1321C85.1912 68.3999 85.6387 68.5827 86.1093 68.6693C86.5798 68.7558 87.0632 68.7442 87.529 68.6351C91.7942 67.7391 95.0046 65.9349 97.3386 63.1248C99.6726 60.3148 98.8205 57.1995 98.0344 54.7825C104.138 53.1273 109.572 53.1688 114.66 54.9046C117.517 55.8812 119.565 57.4852 120.747 59.6995C122.234 62.4852 121.43 65.056 118.479 66.9383C117.573 67.5169 117.136 67.8709 117.109 68.3177C117.103 68.4214 117.122 68.525 117.165 68.6197C117.207 68.7145 117.272 68.7976 117.353 68.8621C117.695 69.1429 118.75 69.6312 121.135 68.1297C123.332 66.7503 124.621 64.8729 124.951 62.5145C125.017 61.8643 125.016 61.209 124.948 60.5589ZM27.3581 66.6771L27.3337 66.9896C26.9529 70.5638 25.1365 73.679 21.926 76.2669C19.9094 77.8929 17.7195 78.8914 15.7615 79.0818C14.3943 79.2137 13.4006 79.0281 12.8098 78.5276C12.3679 78.1541 12.1311 77.595 12.0774 76.8187C11.677 70.598 21.4329 64.4163 26.9236 62.3826C27.3154 63.7783 27.4625 65.2312 27.3581 66.6771ZM52.3459 49.1331C51.4426 54.2821 48.8083 64.0013 44.6677 67.7733C44.47 67.9539 44.3039 68.0174 44.2283 68.0003C44.1526 67.9832 44.094 67.8929 44.0329 67.7562C42.6511 64.553 43.1614 59.1429 45.2536 54.8924C46.8625 51.616 49.1599 49.4456 51.7282 48.7889C51.8349 48.7595 51.9448 48.7439 52.0554 48.7425C52.1419 48.7364 52.2279 48.7596 52.2995 48.8084C52.3298 48.8562 52.3495 48.9098 52.3575 48.9658C52.3655 49.0218 52.3616 49.0788 52.3459 49.1331ZM72.7292 67.9026C71.9504 68.7156 70.8835 68.6058 71.135 68.3079L75.0998 64.0989C74.78 65.5467 73.8352 66.7454 72.7292 67.9026ZM89.177 64.2625C88.7999 64.4483 88.3919 64.5633 87.9734 64.6019C87.861 62.3875 90.007 59.8948 92.1237 58.2323C92.6926 60.5418 91.528 62.9832 89.177 64.2625Z" fill="#E4EBF7" />
</svg>