<svg width="235" height="54" viewBox="0 0 235 54" fill="none" xmlns="http://www.w3.org/2000/svg">
  <path d="M117.226 13.3167C108.061 13.3167 101.442 19.3092 101.442 28.2783C101.442 37.2475 108.883 43.24 118.048 43.24C123.61 43.24 128.467 41.0467 131.522 37.365L125.177 33.6833C123.493 35.5242 120.947 36.5817 118.088 36.5817C114.093 36.5817 110.724 34.5058 109.471 31.1767H132.775C132.971 30.2367 133.049 29.2967 133.049 28.2783C133.01 19.27 126.43 13.3167 117.226 13.3167ZM109.353 25.3408C110.411 22.0117 113.231 19.9358 117.226 19.9358C121.221 19.9358 124.041 22.0117 125.098 25.3408H109.353ZM206.722 13.3167C197.557 13.3167 190.938 19.3092 190.938 28.2783C190.938 37.2475 198.379 43.24 207.544 43.24C213.106 43.24 217.963 41.0467 221.018 37.365L214.673 33.6833C212.988 35.5242 210.443 36.5817 207.583 36.5817C203.588 36.5817 200.22 34.5058 198.967 31.1767H222.271C222.467 30.2367 222.545 29.2967 222.545 28.2783C222.545 19.27 215.926 13.3167 206.722 13.3167ZM198.888 25.3408C199.946 22.0117 202.766 19.9358 206.761 19.9358C210.756 19.9358 213.576 22.0117 214.633 25.3408H198.888ZM166.458 28.2783C166.458 33.2525 169.709 36.5817 174.762 36.5817C178.169 36.5817 180.754 35.015 182.086 32.5083L188.47 36.19C185.846 40.5767 180.872 43.24 174.762 43.24C165.558 43.24 158.978 37.2475 158.978 28.2783C158.978 19.3092 165.597 13.3167 174.762 13.3167C180.872 13.3167 185.807 15.98 188.47 20.3667L182.086 24.0483C180.754 21.5025 178.208 19.975 174.762 19.975C169.709 19.9358 166.458 23.265 166.458 28.2783ZM235 4.15167V42.3783H227.519V4.15167H235ZM30.7067 0L61.4133 53.1883H0L30.7067 0ZM107.513 4.15167L84.4825 44.0625L61.4525 4.15167H70.1083L84.5217 29.1008L98.935 4.15167H107.513ZM156.471 14.1392V22.2075C155.648 21.9725 154.748 21.8158 153.808 21.8158C148.99 21.8158 145.504 25.145 145.504 30.1192V42.4175H138.023V14.1392H145.504V21.7767C145.504 17.5467 150.4 14.1392 156.471 14.1392Z" fill="#E4EBF7" />
</svg>