<svg width="108" height="123" viewBox="0 0 108 123" fill="none" xmlns="http://www.w3.org/2000/svg">
  <path fill-rule="evenodd" clip-rule="evenodd" d="M53.9569 0.569824L107.914 31.0896V92.1431L53.9569 122.663L0 92.1431V31.0896L53.9569 0.569824ZM98.2796 90.0378L55.7415 114.102V95.3638L82.2459 80.7801L98.2796 90.0378ZM101.194 87.4027V37.0848L85.6339 46.0776V78.4239L101.194 87.4027ZM9.46685 90.0378L52.0049 114.102V95.3638L25.4866 80.7801L9.46685 90.0378ZM6.5529 87.4027V37.0848L22.1126 46.0776V78.4239L6.5529 87.4027ZM8.37935 33.8223L52.0049 9.14439V27.2555L24.0505 42.6339L23.8275 42.7594L8.37935 33.8223ZM99.3671 33.8223L55.7415 9.14439V27.2555L83.6959 42.6199L83.919 42.7454L99.3671 33.8223ZM25.8491 76.7089L52.0049 91.0975V63.3243L25.8491 48.2248V76.7089ZM81.8973 76.7229L55.7415 91.0975V63.3243L81.8973 48.2248V76.7229ZM53.8732 30.504L27.6198 44.9344L53.8732 60.0897L80.1266 44.9344L53.8732 30.504Z" fill="#E4EBF7" />
</svg>