<svg width="512" height="512" viewBox="0 0 512 512" fill="none" xmlns="http://www.w3.org/2000/svg">
<rect width="512" height="512" rx="256" fill="black"/>
<path d="M248.603 231.641H212.944C212.293 227.027 210.963 222.93 208.955 219.348C206.947 215.711 204.369 212.617 201.221 210.067C198.073 207.516 194.437 205.562 190.312 204.205C186.241 202.848 181.818 202.17 177.042 202.17C168.412 202.17 160.895 204.313 154.49 208.601C148.086 212.835 143.12 219.022 139.592 227.163C136.064 235.25 134.3 245.074 134.3 256.634C134.3 268.52 136.064 278.507 139.592 286.594C143.174 294.681 148.167 300.787 154.572 304.911C160.976 309.036 168.385 311.099 176.797 311.099C181.519 311.099 185.888 310.475 189.905 309.226C193.975 307.978 197.585 306.16 200.732 303.772C203.88 301.329 206.486 298.371 208.548 294.898C210.665 291.424 212.13 287.462 212.944 283.012L248.603 283.174C247.68 290.827 245.373 298.209 241.683 305.319C238.046 312.374 233.134 318.697 226.947 324.288C220.814 329.824 213.487 334.22 204.966 337.476C196.499 340.678 186.92 342.28 176.227 342.28C161.356 342.28 148.059 338.915 136.336 332.184C124.667 325.454 115.44 315.712 108.656 302.958C101.926 290.203 98.5605 274.762 98.5605 256.634C98.5605 238.452 101.98 222.984 108.818 210.229C115.657 197.475 124.938 187.76 136.661 181.084C148.385 174.354 161.573 170.989 176.227 170.989C185.888 170.989 194.844 172.346 203.093 175.059C211.397 177.773 218.752 181.735 225.156 186.946C231.56 192.102 236.771 198.425 240.787 205.915C244.858 213.404 247.463 221.98 248.603 231.641ZM262.418 340V173.268H328.199C340.791 173.268 351.537 175.521 360.438 180.026C369.393 184.476 376.205 190.799 380.873 198.995C385.594 207.136 387.955 216.715 387.955 227.733C387.955 238.805 385.567 248.33 380.791 256.309C376.015 264.233 369.095 270.311 360.031 274.545C351.022 278.778 340.112 280.895 327.304 280.895H283.26V252.564H321.605C328.335 252.564 333.925 251.641 338.376 249.796C342.826 247.95 346.137 245.182 348.308 241.492C350.533 237.801 351.646 233.215 351.646 227.733C351.646 222.197 350.533 217.529 348.308 213.73C346.137 209.931 342.799 207.054 338.294 205.1C333.844 203.092 328.226 202.088 321.442 202.088H297.67V340H262.418ZM352.46 264.124L393.898 340H354.984L314.44 264.124H352.46Z" fill="white"/>
</svg>
