<svg width="210" height="209" viewBox="0 0 210 209" fill="none" xmlns="http://www.w3.org/2000/svg">
<path d="M84.3495 90.8771H106.824C106.134 84.7656 104.458 79.344 101.797 74.6125C99.1355 69.881 95.7347 65.938 91.5946 62.7837C87.5531 59.5308 82.9201 57.0664 77.6957 55.3907C72.5699 53.7149 67.0991 52.8771 61.2833 52.8771C53.2002 52.8771 45.9058 54.3064 39.3999 57.165C32.9927 60.0236 27.5711 63.9666 23.1353 68.9938C18.6995 74.0211 15.2987 79.9355 12.933 86.7371C10.5672 93.44 9.38431 100.734 9.38431 108.62C9.38431 116.309 10.5672 123.505 12.933 130.208C15.2987 136.812 18.6995 142.579 23.1353 147.508C27.5711 152.436 32.9927 156.33 39.3999 159.189C45.9058 161.949 53.2002 163.329 61.2833 163.329C67.7891 163.329 73.7528 162.343 79.1743 160.371C84.5959 158.4 89.3274 155.541 93.3689 151.796C97.4104 148.05 100.663 143.515 103.128 138.192C105.592 132.869 107.12 126.906 107.711 120.301H85.2366C84.3495 127.399 81.8851 133.116 77.8436 137.453C73.9007 141.79 68.3805 143.959 61.2833 143.959C56.0589 143.959 51.6231 142.973 47.9758 141.002C44.3286 138.932 41.3714 136.221 39.1042 132.869C36.837 129.518 35.1613 125.772 34.077 121.632C33.0912 117.393 32.5984 113.056 32.5984 108.62C32.5984 103.987 33.0912 99.5023 34.077 95.1651C35.1613 90.8279 36.837 86.9835 39.1042 83.632C41.3714 80.1819 44.3286 77.4711 47.9758 75.4997C51.6231 73.4296 56.0589 72.3946 61.2833 72.3946C64.1419 72.3946 66.8527 72.8875 69.4156 73.8732C72.0771 74.7604 74.4428 76.0418 76.5129 77.7176C78.5829 79.3933 80.3079 81.3648 81.688 83.632C83.068 85.8006 83.9552 88.2157 84.3495 90.8771ZM132.731 103.15V73.4296H158.163C163.486 73.4296 167.478 74.6125 170.14 76.9783C172.801 79.2455 174.132 82.942 174.132 88.0678C174.132 93.3908 172.801 97.2351 170.14 99.6009C167.478 101.967 163.486 103.15 158.163 103.15H132.731ZM109.517 55.3907V160.963H132.731V119.71H155.945C161.761 119.71 165.95 120.991 168.513 123.554C171.076 126.117 172.752 130.159 173.54 135.679C174.132 139.917 174.575 144.353 174.871 148.986C175.167 153.619 175.955 157.611 177.237 160.963H200.451C199.367 159.484 198.529 157.71 197.937 155.64C197.444 153.471 197.05 151.204 196.754 148.838C196.557 146.473 196.409 144.156 196.311 141.889C196.212 139.622 196.114 137.65 196.015 135.975C195.818 133.313 195.424 130.652 194.832 127.99C194.339 125.329 193.501 122.914 192.319 120.745C191.136 118.478 189.608 116.556 187.735 114.978C185.862 113.303 183.496 112.07 180.638 111.282V110.986C186.552 108.62 190.791 105.17 193.354 100.636C196.015 96.1015 197.346 90.7293 197.346 84.5191C197.346 80.4776 196.607 76.7318 195.128 73.2818C193.748 69.7331 191.678 66.6281 188.918 63.9666C186.256 61.3051 183.003 59.235 179.159 57.7564C175.413 56.1793 171.175 55.3907 166.443 55.3907H109.517Z" fill="#244598"/>
</svg>
