<svg width="512" height="512" viewBox="0 0 512 512" fill="none" xmlns="http://www.w3.org/2000/svg">
  <rect width="512" height="512" rx="256" fill="black" />
  <path
    d="M157.276 248.825H141.778C141.495 246.82 140.917 245.039 140.044 243.482C139.172 241.901 138.051 240.557 136.683 239.448C135.315 238.339 133.734 237.49 131.942 236.901C130.172 236.311 128.25 236.016 126.174 236.016C122.423 236.016 119.156 236.948 116.373 238.811C113.589 240.651 111.431 243.34 109.898 246.879C108.364 250.393 107.598 254.663 107.598 259.687C107.598 264.853 108.364 269.194 109.898 272.709C111.455 276.223 113.625 278.877 116.408 280.67C119.192 282.463 122.412 283.359 126.068 283.359C128.12 283.359 130.019 283.088 131.765 282.545C133.534 282.003 135.102 281.212 136.471 280.174C137.839 279.113 138.971 277.827 139.867 276.318C140.787 274.808 141.424 273.086 141.778 271.152L157.276 271.222C156.875 274.548 155.872 277.757 154.268 280.847C152.688 283.913 150.553 286.661 147.864 289.091C145.198 291.497 142.014 293.408 138.311 294.823C134.631 296.215 130.467 296.911 125.82 296.911C119.357 296.911 113.578 295.448 108.482 292.523C103.411 289.598 99.4006 285.364 96.452 279.821C93.527 274.277 92.0645 267.566 92.0645 259.687C92.0645 251.785 93.5506 245.062 96.5228 239.519C99.495 233.976 103.529 229.753 108.624 226.852C113.719 223.927 119.451 222.464 125.82 222.464C130.019 222.464 133.911 223.054 137.497 224.233C141.106 225.413 144.302 227.135 147.086 229.399C149.869 231.64 152.134 234.388 153.879 237.644C155.648 240.899 156.781 244.626 157.276 248.825ZM187.554 296.981C182.057 296.981 177.304 295.814 173.294 293.479C169.308 291.12 166.229 287.841 164.059 283.642C161.889 279.42 160.804 274.525 160.804 268.958C160.804 263.344 161.889 258.437 164.059 254.238C166.229 250.016 169.308 246.737 173.294 244.402C177.304 242.043 182.057 240.863 187.554 240.863C193.05 240.863 197.791 242.043 201.778 244.402C205.788 246.737 208.878 250.016 211.048 254.238C213.218 258.437 214.303 263.344 214.303 268.958C214.303 274.525 213.218 279.42 211.048 283.642C208.878 287.841 205.788 291.12 201.778 293.479C197.791 295.814 193.05 296.981 187.554 296.981ZM187.624 285.305C190.125 285.305 192.212 284.597 193.887 283.182C195.562 281.743 196.824 279.785 197.673 277.308C198.546 274.832 198.982 272.013 198.982 268.852C198.982 265.691 198.546 262.872 197.673 260.395C196.824 257.918 195.562 255.96 193.887 254.521C192.212 253.083 190.125 252.363 187.624 252.363C185.1 252.363 182.977 253.083 181.255 254.521C179.557 255.96 178.271 257.918 177.399 260.395C176.549 262.872 176.125 265.691 176.125 268.852C176.125 272.013 176.549 274.832 177.399 277.308C178.271 279.785 179.557 281.743 181.255 283.182C182.977 284.597 185.1 285.305 187.624 285.305ZM243.679 296.981C238.182 296.981 233.429 295.814 229.419 293.479C225.433 291.12 222.354 287.841 220.184 283.642C218.014 279.42 216.929 274.525 216.929 268.958C216.929 263.344 218.014 258.437 220.184 254.238C222.354 250.016 225.433 246.737 229.419 244.402C233.429 242.043 238.182 240.863 243.679 240.863C249.175 240.863 253.916 242.043 257.903 244.402C261.913 246.737 265.003 250.016 267.173 254.238C269.343 258.437 270.428 263.344 270.428 268.958C270.428 274.525 269.343 279.42 267.173 283.642C265.003 287.841 261.913 291.12 257.903 293.479C253.916 295.814 249.175 296.981 243.679 296.981ZM243.749 285.305C246.25 285.305 248.337 284.597 250.012 283.182C251.687 281.743 252.949 279.785 253.798 277.308C254.671 274.832 255.107 272.013 255.107 268.852C255.107 265.691 254.671 262.872 253.798 260.395C252.949 257.918 251.687 255.96 250.012 254.521C248.337 253.083 246.25 252.363 243.749 252.363C241.225 252.363 239.102 253.083 237.38 254.521C235.682 255.96 234.396 257.918 233.524 260.395C232.674 262.872 232.25 265.691 232.25 268.852C232.25 272.013 232.674 274.832 233.524 277.308C234.396 279.785 235.682 281.743 237.38 283.182C239.102 284.597 241.225 285.305 243.749 285.305ZM275.248 316.301V241.571H290.109V250.7H290.781C291.441 249.238 292.397 247.751 293.647 246.242C294.921 244.708 296.572 243.435 298.601 242.42C300.653 241.382 303.2 240.863 306.243 240.863C310.206 240.863 313.863 241.901 317.212 243.977C320.562 246.029 323.239 249.131 325.244 253.283C327.249 257.411 328.252 262.589 328.252 268.816C328.252 274.879 327.273 279.997 325.315 284.173C323.381 288.324 320.739 291.473 317.389 293.62C314.063 295.743 310.336 296.805 306.208 296.805C303.283 296.805 300.794 296.321 298.742 295.354C296.714 294.387 295.051 293.172 293.753 291.709C292.456 290.223 291.465 288.725 290.781 287.216H290.321V316.301H275.248ZM290.002 268.746C290.002 271.977 290.451 274.796 291.347 277.202C292.243 279.608 293.541 281.484 295.239 282.828C296.938 284.149 299.002 284.81 301.431 284.81C303.885 284.81 305.96 284.137 307.659 282.793C309.357 281.425 310.643 279.537 311.516 277.131C312.412 274.702 312.86 271.906 312.86 268.746C312.86 265.608 312.424 262.848 311.551 260.466C310.678 258.083 309.393 256.22 307.694 254.875C305.996 253.531 303.908 252.858 301.431 252.858C298.978 252.858 296.902 253.507 295.204 254.805C293.529 256.102 292.243 257.942 291.347 260.324C290.451 262.707 290.002 265.514 290.002 268.746ZM358.087 296.981C352.497 296.981 347.684 295.849 343.651 293.585C339.641 291.297 336.55 288.065 334.38 283.89C332.21 279.691 331.125 274.725 331.125 268.993C331.125 263.403 332.21 258.496 334.38 254.274C336.55 250.051 339.605 246.761 343.545 244.402C347.508 242.043 352.155 240.863 357.486 240.863C361.071 240.863 364.409 241.441 367.499 242.597C370.613 243.73 373.326 245.44 375.637 247.728C377.973 250.016 379.789 252.894 381.086 256.361C382.384 259.805 383.032 263.839 383.032 268.462V272.602H337.14V263.261H368.844C368.844 261.091 368.372 259.168 367.428 257.494C366.485 255.819 365.176 254.51 363.501 253.566C361.85 252.599 359.927 252.115 357.733 252.115C355.445 252.115 353.417 252.646 351.647 253.708C349.902 254.746 348.534 256.149 347.543 257.918C346.552 259.664 346.045 261.61 346.021 263.757V272.638C346.021 275.327 346.517 277.65 347.508 279.608C348.522 281.566 349.949 283.076 351.789 284.137C353.629 285.199 355.811 285.73 358.335 285.73C360.01 285.73 361.543 285.494 362.935 285.022C364.326 284.55 365.518 283.842 366.508 282.899C367.499 281.955 368.254 280.799 368.773 279.431L382.714 280.351C382.006 283.701 380.556 286.626 378.362 289.126C376.192 291.603 373.385 293.538 369.941 294.929C366.52 296.297 362.569 296.981 358.087 296.981ZM387.887 295.92V241.571H402.5V251.054H403.066C404.057 247.681 405.72 245.133 408.056 243.411C410.391 241.666 413.08 240.793 416.123 240.793C416.878 240.793 417.692 240.84 418.564 240.934C419.437 241.029 420.204 241.158 420.864 241.323V254.698C420.157 254.486 419.178 254.297 417.927 254.132C416.677 253.967 415.533 253.885 414.495 253.885C412.278 253.885 410.296 254.368 408.551 255.335C406.829 256.279 405.461 257.6 404.446 259.298C403.456 260.997 402.96 262.954 402.96 265.172V295.92H387.887Z"
    fill="white" />
</svg>
