<svg width="209" height="209" viewBox="0 0 209 209" fill="none" xmlns="http://www.w3.org/2000/svg">
<path d="M83.8495 90.8771H106.324C105.634 84.7656 103.958 79.344 101.297 74.6125C98.6355 69.881 95.2347 65.938 91.0946 62.7837C87.0531 59.5308 82.4201 57.0664 77.1957 55.3907C72.0699 53.7149 66.5991 52.8771 60.7833 52.8771C52.7002 52.8771 45.4058 54.3064 38.8999 57.165C32.4927 60.0236 27.0711 63.9666 22.6353 68.9938C18.1995 74.0211 14.7987 79.9355 12.433 86.7371C10.0672 93.44 8.88431 100.734 8.88431 108.62C8.88431 116.309 10.0672 123.505 12.433 130.208C14.7987 136.812 18.1995 142.579 22.6353 147.508C27.0711 152.436 32.4927 156.33 38.8999 159.189C45.4058 161.949 52.7002 163.329 60.7833 163.329C67.2891 163.329 73.2528 162.343 78.6743 160.371C84.0959 158.4 88.8274 155.541 92.8689 151.796C96.9104 148.05 100.163 143.515 102.628 138.192C105.092 132.869 106.62 126.906 107.211 120.301H84.7366C83.8495 127.399 81.3851 133.116 77.3436 137.453C73.4007 141.79 67.8805 143.959 60.7833 143.959C55.5589 143.959 51.1231 142.973 47.4758 141.002C43.8286 138.932 40.8714 136.221 38.6042 132.869C36.337 129.518 34.6613 125.772 33.577 121.632C32.5912 117.393 32.0984 113.056 32.0984 108.62C32.0984 103.987 32.5912 99.5023 33.577 95.1651C34.6613 90.8279 36.337 86.9835 38.6042 83.632C40.8714 80.1819 43.8286 77.4711 47.4758 75.4997C51.1231 73.4296 55.5589 72.3946 60.7833 72.3946C63.6419 72.3946 66.3527 72.8875 68.9156 73.8732C71.5771 74.7604 73.9428 76.0418 76.0129 77.7176C78.0829 79.3933 79.8079 81.3648 81.188 83.632C82.568 85.8006 83.4552 88.2157 83.8495 90.8771ZM132.231 103.15V73.4296H157.663C162.986 73.4296 166.978 74.6125 169.64 76.9783C172.301 79.2455 173.632 82.942 173.632 88.0678C173.632 93.3908 172.301 97.2351 169.64 99.6009C166.978 101.967 162.986 103.15 157.663 103.15H132.231ZM109.017 55.3907V160.963H132.231V119.71H155.445C161.261 119.71 165.45 120.991 168.013 123.554C170.576 126.117 172.252 130.159 173.04 135.679C173.632 139.917 174.075 144.353 174.371 148.986C174.667 153.619 175.455 157.611 176.737 160.963H199.951C198.867 159.484 198.029 157.71 197.437 155.64C196.944 153.471 196.55 151.204 196.254 148.838C196.057 146.473 195.909 144.156 195.811 141.889C195.712 139.622 195.614 137.65 195.515 135.975C195.318 133.313 194.924 130.652 194.332 127.99C193.839 125.329 193.001 122.914 191.819 120.745C190.636 118.478 189.108 116.556 187.235 114.978C185.362 113.303 182.996 112.07 180.138 111.282V110.986C186.052 108.62 190.291 105.17 192.854 100.636C195.515 96.1015 196.846 90.7293 196.846 84.5191C196.846 80.4776 196.107 76.7318 194.628 73.2818C193.248 69.7331 191.178 66.6281 188.418 63.9666C185.756 61.3051 182.503 59.235 178.659 57.7564C174.913 56.1793 170.675 55.3907 165.943 55.3907H109.017Z" fill="white"/>
</svg>
