<svg width="350" height="350" viewBox="0 0 350 350" fill="none" xmlns="http://www.w3.org/2000/svg">
  <path opacity="0.1" d="M161.227 0.0904773C162.045 0.00434467 169.146 -0.0394052 176.936 0.0467274C187.138 0.13286 192.648 0.347508 196.435 0.864304C231.472 5.55648 261.772 18.8127 288.416 41.1074C293.409 45.2404 304.773 56.6031 308.905 61.5947C331.287 88.3231 344.372 118.323 349.193 153.832C350.269 161.707 350.269 188.307 349.193 196.183C344.372 231.692 331.287 261.69 308.905 288.419C304.773 293.412 293.409 304.774 288.416 308.906C261.688 331.287 231.686 344.371 196.176 349.193C188.301 350.269 161.7 350.269 153.824 349.193C118.314 344.372 88.3123 331.288 61.5838 308.906C56.5909 304.774 45.2268 293.412 41.0952 288.419C18.713 261.69 5.62767 231.692 0.806981 196.183C-0.268994 188.307 -0.268994 161.708 0.806981 153.832C5.62767 118.323 18.713 88.3231 41.0952 61.5947C45.2268 56.6031 56.5909 45.2404 61.5838 41.1074C88.6131 18.4682 121.756 4.22211 155.415 0.693406C157.783 0.477391 160.409 0.17661 161.227 0.0904773ZM170.911 126.587C162.045 125.252 150.337 125.424 142.073 126.973C116.118 131.882 90.8088 145.868 78.5424 162.009C75.7875 165.624 72.7742 171.823 71.6983 176.083C70.7084 179.957 70.4924 186.842 71.2676 190.288C72.6895 196.656 77.4664 202.037 85.2566 206.083C92.0146 209.569 100.106 212.625 104.626 213.442C112.933 214.949 124.898 215.422 132.604 214.605C143.752 213.442 163.078 208.233 172.718 203.801C174.742 202.899 176.937 202.122 177.667 202.122C181.887 202.122 185.201 206.684 183.351 209.87C182.317 211.549 175.559 214.949 167.769 217.66C163.507 219.123 162.519 219.597 162.732 220.157C163.766 222.739 165.617 234.446 166.563 244.088C168.242 260.873 168.5 291.131 167.21 315.105C166.95 320.054 166.693 326.381 166.693 329.093L166.607 334.042L176.937 333.999C191.141 333.956 200.439 332.837 214.814 329.307C226.565 326.424 235.475 323.326 244.728 318.848C251.4 315.622 250.84 316.654 250.367 309.078C250.109 305.506 249.807 299.695 249.678 296.167C249.205 283.985 247.01 254.245 245.331 237.847C241.63 201.261 238.703 187.618 231.171 172.209C226.006 161.622 220.496 154.133 211.543 145.567C205.517 139.8 202.934 137.863 197.511 135.066C189.118 130.762 180.64 128.049 170.911 126.587ZM108.801 304.646C107.123 304.474 107.167 304.129 108.071 312.995C108.586 317.902 108.932 319.537 109.448 319.926C111.211 321.259 111.341 320.787 111.04 314.33C110.868 310.972 110.61 307.443 110.48 306.496C110.223 304.947 110.049 304.774 108.801 304.646ZM88.8304 277.014C87.883 277.014 87.8406 277.875 88.6582 285.407C89.0027 288.463 89.3896 293.025 89.5619 295.521C89.7342 298.018 90.1224 302.063 90.4232 304.558C90.7677 307.013 90.94 309.166 90.8539 309.337C90.6379 309.595 91.6277 310.585 92.7474 311.23C93.4789 311.661 93.349 309.423 91.7138 292.937C91.1547 286.912 90.6379 281.102 90.6379 279.983C90.6379 278.907 90.4232 277.831 90.1211 277.531C89.8203 277.23 89.2597 277.014 88.8304 277.014ZM263.669 252.566C263.282 252.523 262.851 252.61 262.679 252.782C262.334 253.083 262.765 307.615 263.066 307.96C263.196 308.089 263.583 307.788 264.013 307.315C264.702 306.54 264.745 304.602 264.53 279.596C264.358 255.751 264.229 252.696 263.669 252.567V252.566ZM122.548 260.227H121.069L121.369 263.758C122.532 278.477 123.479 288.032 123.781 288.333C123.953 288.549 124.556 288.592 125.072 288.419C126.019 288.118 126.019 287.988 125.761 283.943C125.33 277.918 124.254 265.134 123.953 262.466C123.737 260.314 123.653 260.227 122.403 260.227H122.548ZM55.9455 233.068C55.5163 232.337 54.4827 232.681 54.4827 233.585C54.4827 234.102 55.128 239.568 55.9455 245.767C57.3674 256.699 59.2172 274.56 59.2172 277.272C59.2172 278.262 59.518 278.821 60.3369 279.38L61.4129 280.069L61.1969 278.218C61.0684 277.186 60.4655 271.72 59.8625 266.038C57.8391 247.23 56.2039 233.457 55.9455 233.068ZM304.344 233.112C304.172 233.112 303.31 233.844 302.45 234.705L300.858 236.34L300.771 254.804C300.642 274.948 300.513 274.259 302.966 270.644L304.043 269.051L304.344 251.059C304.472 241.203 304.472 233.112 304.344 233.112ZM136.865 224.805C136.65 224.16 135.402 223.773 134.929 224.288C134.799 224.374 135.058 228.291 135.446 232.984C135.875 237.673 136.522 245.679 136.865 250.758C137.813 263.025 137.899 263.671 138.716 263.671C139.448 263.671 139.405 261.476 138.199 244.088C137.856 239.353 137.468 233.241 137.338 230.529C137.167 227.818 136.951 225.236 136.865 224.805ZM37.0511 188.221C36.7503 185.81 36.362 185.38 35.1999 186.155C34.6393 186.499 34.5983 186.197 41.3112 232.595C42.3448 239.784 43.3346 245.765 43.4632 245.895C44.4967 246.971 44.3245 244.432 42.0003 226.656C40.4512 215.164 37.438 191.751 37.0511 188.221ZM320.485 150.905C320.195 150.905 320.065 155.434 320.054 164.493V165.624C320.012 173.758 319.926 183.099 319.84 186.413C319.753 189.727 319.539 203.973 319.451 218.048C319.193 246.196 319.064 244.905 321.733 238.492C323.368 234.575 323.412 233.242 323.757 187.834L324.057 152.195L322.508 151.55C321.647 151.205 320.743 150.905 320.485 150.905ZM101.097 223.643C99.9347 223.643 99.9347 223.557 100.536 231.261C101.106 238.415 101.1 238.698 102.62 238.707H102.994C104.665 238.727 104.571 239.206 103.938 230.96C103.55 226.312 103.249 224.589 102.776 224.16C102.387 223.901 101.655 223.643 101.097 223.643ZM64.768 203.629L65.0278 205.781C65.1467 206.864 65.5651 210.781 66.0053 214.755L66.1024 215.638C66.533 219.856 67.0922 223.513 67.3082 223.729C67.9959 224.418 69.5463 223.298 69.5463 222.094C69.5463 220.672 68.2981 209.01 68.0397 207.933C67.9111 207.46 67.136 206.298 66.276 205.351L64.768 203.629ZM40.104 90.3028C39.8469 90.0444 37.3067 94.0899 37.0059 95.252C36.8774 95.8126 37.3505 101.022 38.1257 106.873C38.8571 112.771 40.0192 121.896 40.7083 127.232C41.396 132.569 42.6442 142.253 43.5055 148.751C44.3465 155.426 45.2074 162.098 46.0881 168.767C48.9729 191.19 50.2635 201.176 51.0374 207.073C51.5118 210.601 51.8987 213.873 51.8987 214.26C51.8987 215.164 52.3293 215.25 53.3616 214.476C54.0506 213.959 54.0506 213.615 53.4477 208.579C53.1045 205.608 52.5016 200.401 52.1571 196.958C51.7702 193.514 49.7467 175.137 47.5948 156.07C45.4428 137.002 42.9464 114.449 41.9989 105.971C41.0514 97.4477 40.1901 90.4327 40.104 90.3028ZM280.798 54.7943L281.057 60.9931C281.185 64.3933 281.401 92.4547 281.573 123.359C281.788 174.361 281.874 179.569 282.52 180.042C282.908 180.344 283.553 180.603 284.026 180.603C284.801 180.603 284.801 179.054 284.671 119.355C284.543 67.3614 284.457 57.9374 283.94 57.3345C283.595 56.9462 282.778 56.2148 282.046 55.698L280.798 54.7943ZM63.1328 158.48C63.0043 158.394 62.2291 158.737 61.4977 159.254C59.8612 160.288 59.8612 160.588 60.6787 167.475L61.1955 171.779L62.5737 168.853C63.8219 166.098 63.908 165.754 63.6496 162.267C63.5198 160.288 63.2614 158.566 63.1328 158.48ZM27.3222 115.181C27.1923 115.181 26.6331 116.472 26.1163 118.065L25.1265 120.991L28.1821 142.081C29.9048 153.66 31.4962 164.721 31.7546 166.615C32.0143 168.508 32.3575 170.23 32.5298 170.402C32.702 170.574 33.2188 170.402 33.7343 169.971L34.6393 169.196L33.8204 163.171C33.3473 159.857 32.3138 151.894 31.4962 145.525C30.6786 139.111 29.4727 129.686 28.8274 124.521C28.1397 119.399 27.4931 115.181 27.3222 115.181ZM301.545 127.232C301.285 127.232 301.115 134.894 301.115 148.494V150.318C301.12 167.627 301.22 169.806 301.802 170.015C302.75 170.358 304.988 170.316 305.032 169.929C305.246 168.809 305.505 141.952 305.418 130.201C305.418 128.738 305.246 128.566 303.696 127.921C302.75 127.534 301.76 127.232 301.545 127.232ZM263.108 118.195H261.73L261.86 140.446C262.027 164.159 261.991 164.262 264.385 164.248L265.821 164.247V141.271C265.818 122.095 265.726 119.479 265.13 118.882C264.787 118.496 263.84 118.193 263.107 118.193L263.108 118.195ZM124.297 151.334C128.256 148.924 133.68 152.108 133.68 156.844C133.68 161.749 128.384 164.978 124.297 162.524C120.164 159.984 120.164 153.873 124.297 151.334ZM95.1127 147.201C100.364 144.92 105.271 150.602 102.259 155.508C100.666 158.177 97.5668 158.908 94.5111 157.359C90.292 155.207 90.6365 149.138 95.1127 147.201ZM72.602 84.8806C72.3012 84.1054 72.1289 84.1491 70.6223 85.5682L68.9434 87.1186L70.1492 99.5135C70.7945 106.358 72.0852 119.227 72.9889 128.093C73.894 136.959 74.7539 145.739 74.9262 147.633L75.227 151.033L76.8635 149.356L78.5424 147.677L77.0795 131.752C76.2605 122.972 75.0123 109.026 74.2371 100.762C73.5057 92.4547 72.7742 85.3112 72.602 84.8806ZM242.577 65.2532V138.466L244.126 139.111C244.988 139.456 245.761 139.672 245.849 139.584C246.064 139.412 246.02 81.0921 245.805 71.5806C245.761 68.7833 245.545 66.3306 245.331 66.157C245.116 65.9423 244.428 65.6839 243.782 65.5116L242.577 65.2532ZM163.379 15.3264L162.217 15.3701C161.528 15.4125 160.452 15.5424 159.806 15.6272L158.601 15.7994L158.86 25.3561C159.117 34.0486 161.656 93.4883 162.431 108.81C162.604 112.297 162.905 115.266 163.033 115.438C163.207 115.568 164.195 115.827 165.272 115.913L167.21 116.128L166.994 112.986C166.779 109.844 165.359 74.5938 164.886 61.1654C164.756 57.3783 164.455 50.1035 164.197 45.0244C163.723 34.6515 163.379 23.7195 163.379 18.6842V15.3264ZM54.3528 71.0214C53.9221 70.547 50.6067 74.8946 50.6067 75.9282C50.6067 77.6495 54.912 115.741 55.1266 115.955C55.4711 116.3 58.7852 114.665 58.7852 114.148C58.7852 113.889 58.1836 107.864 57.4508 100.763C56.7667 93.6884 56.0639 86.6155 55.3426 79.5444C54.912 74.937 54.4813 71.1075 54.3528 71.0214ZM105.012 32.0703C104.712 31.5098 103.936 31.6383 102.56 32.3711C101.44 32.9726 101.398 33.1449 101.612 35.0398C101.742 36.1582 102.602 46.4449 103.55 57.9374C105.185 77.4772 107.509 104.506 108.112 110.102C108.242 111.479 108.5 112.599 108.629 112.599C108.801 112.599 109.576 112.211 110.351 111.738C111.728 110.876 111.77 110.79 111.554 108.596C111.426 107.39 110.608 97.7499 109.791 87.2048C107.294 56.1724 105.271 32.4572 105.012 32.0689V32.0703ZM221.916 83.3302H220.926L221.185 92.8868C221.357 98.1792 221.486 104.162 221.486 106.228V109.93L222.82 110.403C225.144 111.221 225.617 110.575 225.531 106.702C225.531 104.851 225.445 99.169 225.403 94.0913L225.36 84.7944L224.112 84.063C223.423 83.6747 222.433 83.3302 221.916 83.3302ZM125.803 66.5876C124.77 66.6738 122.532 67.4489 122.317 67.7497C122.101 68.0943 123.608 89.2692 124.038 91.8094C124.21 93.1014 124.383 93.2313 125.673 93.2313C128.127 93.2313 128.214 92.7569 127.697 85.1813C127.437 81.4366 127.136 76.6159 127.008 74.5077C126.89 72.5246 126.732 70.5441 126.535 68.5673C126.405 67.4489 126.062 66.5439 125.803 66.5876ZM180.165 53.5037V56.6892C180.165 59.7872 181.456 91.6809 181.586 91.7671C181.628 91.8094 182.576 91.9393 183.738 92.0678L185.761 92.3686L185.717 85.9989C185.675 75.4114 185.072 54.5359 184.814 54.2789C184.685 54.149 183.609 53.9343 182.361 53.7621L180.165 53.5037ZM144.009 42.2955C144 40.7205 143.899 40.7232 142.632 40.7642C141.857 40.7642 140.652 40.9789 139.963 41.2373C138.801 41.6679 138.759 41.7541 139.017 43.906C139.139 45.0435 139.53 50.1363 139.862 55.4847L139.921 56.4308C140.265 62.1115 140.782 69.5571 140.997 73.0011C141.255 76.4437 141.47 80.1884 141.557 81.3942C141.642 83.5462 141.642 83.5462 143.063 83.5024C145.947 83.3302 145.86 83.5886 145.559 76.1005C145.387 72.3982 144.999 63.8327 144.655 57.0761C144.311 50.3181 144.01 43.906 144.01 42.7439L144.009 42.2955ZM202.245 17.1338C200.438 16.833 199.965 16.8754 199.793 17.3498C199.534 17.9951 199.835 43.8623 200.179 51.4802C200.266 53.9767 200.48 61.6384 200.654 68.5673L200.955 81.0921L202.934 81.2643C204.01 81.3942 205.086 81.3942 205.259 81.2643C205.475 81.1782 205.518 79.8015 205.388 78.2087C205.259 76.6597 205.044 62.4136 204.872 46.531C204.742 30.6922 204.613 17.6943 204.571 17.6506C204.527 17.6082 203.493 17.3922 202.247 17.1338H202.245ZM263.409 48.6406C261.645 47.9078 261.645 47.9078 261.472 48.5544C261.386 48.8552 261.343 55.5271 261.429 63.4021L261.558 77.6919L263.367 78.5532L265.174 79.4569L265.303 70.0739C265.389 64.9525 265.303 58.1521 265.174 55.0103L264.873 49.2421L263.409 48.6406ZM223.509 40.7205C220.564 39.7252 220.616 38.9295 220.624 51.3818V53.3191C220.631 60.0566 220.757 65.9109 220.884 66.4167C221.099 67.2329 223.681 68.6972 224.93 68.6972C225.403 68.6972 225.531 48.1238 225.102 43.8199C224.842 41.3658 224.714 41.1511 223.509 40.7205Z" fill="#E4EBF7" />
</svg>