<svg width="349" height="311" viewBox="0 0 349 311" fill="none" xmlns="http://www.w3.org/2000/svg">
  <g opacity="0.1">
    <path d="M205.661 154.962C205.661 172.172 191.71 186.123 174.5 186.123C157.29 186.123 143.339 172.172 143.339 154.962C143.339 137.752 157.29 123.801 174.5 123.801C191.71 123.801 205.661 137.752 205.661 154.962Z" fill="#E4EBF7" />
    <path fill-rule="evenodd" clip-rule="evenodd" d="M103.703 310.379C97.8885 310.513 92.1424 309.103 87.0507 306.291C69.2017 295.995 63.0198 266.305 70.5102 226.856C71.4361 222.624 72.4372 218.413 73.5145 214.224C70.2706 213.346 67.0381 212.421 63.8171 211.45C47.2477 206.198 31.7929 197.924 18.2354 187.045C13.0615 183.329 8.7533 178.538 5.60604 173C2.45801 167.461 0.545465 161.308 0 154.962C0 134.359 22.6349 114.167 60.5511 100.954C64.9179 99.5667 69.3075 98.2628 73.7184 97.044C72.7126 93.155 71.7716 89.2493 70.8967 85.3238C67.2983 68.9522 66.6319 52.0725 68.9279 35.4666C69.4581 29.3075 71.3342 23.3386 74.4221 17.9828C77.5108 12.6271 81.736 8.01384 86.8012 4.4687C105.336 -6.2641 136.783 4.76692 168.879 33.2604C170.824 35.0984 172.748 36.9577 174.65 38.8368C177.502 36.0387 180.402 33.2848 183.35 30.581C195.729 19.2974 210.009 10.2961 225.529 3.99551C231.142 1.36328 237.266 0 243.465 0C249.665 0 255.788 1.36328 261.401 3.99551C279.96 14.6887 286.105 47.4455 277.442 89.4866C276.823 92.0839 276.175 94.6735 275.498 97.254C279.333 98.3236 283.152 99.4556 286.952 100.655C302.911 105.743 317.841 113.616 331.051 123.914C336.136 127.456 340.381 132.074 343.482 137.44C346.584 142.805 348.467 148.788 349 154.962C349 176.376 323.697 198.076 282.939 211.563C280.694 212.231 278.443 212.876 276.187 213.5C277.022 216.648 277.815 219.808 278.564 222.98C282.318 239.953 282.897 257.473 280.272 274.657C279.648 280.994 277.66 287.121 274.446 292.617C271.231 298.114 266.867 302.851 261.65 306.503C256.642 309.279 250.984 310.673 245.26 310.542C228.371 310.542 206.92 300.321 184.584 281.113C181.383 278.201 178.238 275.232 175.148 272.21C172.753 274.596 170.322 276.95 167.856 279.269C155.028 290.995 140.14 300.246 123.944 306.553C117.461 308.96 110.617 310.253 103.703 310.379ZM164.697 261.549C162.523 263.716 160.319 265.855 158.084 267.964C128.694 293.64 104.488 299.111 94.5168 293.341C84.8939 287.782 78.2761 265.931 85.1686 229.599C86.0457 225.654 86.9906 221.726 88.0032 217.819C103.397 221.296 119.001 223.738 134.71 225.13C143.892 237.911 153.909 250.077 164.697 261.549ZM185.517 261.434C188.396 264.262 191.326 267.042 194.306 269.771C222.338 293.889 244.574 299.074 254.134 293.452C264.106 287.657 271.46 264 263.882 225.722C263.199 222.862 262.48 220.012 261.725 217.173C246.344 220.741 230.75 223.289 215.046 224.803C206.03 237.651 196.166 249.888 185.517 261.434ZM272.064 199.188C274.136 198.618 276.203 198.026 278.265 197.416C316.593 184.714 334.043 166.504 334.043 154.962C333.414 151.002 331.97 147.215 329.804 143.84C327.637 140.465 324.794 137.576 321.454 135.356C309.634 126.221 296.298 119.243 282.055 114.739C278.525 113.632 274.98 112.582 271.42 111.59C266.876 126.388 261.382 140.871 254.974 154.95C261.651 169.292 267.361 184.07 272.064 199.188ZM246.42 172.466C250.617 182.404 254.339 192.542 257.573 202.846C247.064 205.258 236.452 207.172 225.775 208.584C229.387 202.782 232.835 196.872 236.111 190.859C239.73 184.825 243.168 178.692 246.42 172.466ZM246.288 137.558C250.302 127.846 253.872 117.95 256.984 107.902C246.625 105.495 236.164 103.574 225.636 102.143C229.273 107.886 232.751 113.737 236.061 119.689C239.646 125.55 243.056 131.509 246.288 137.558ZM206.438 100.083C212.402 108.822 217.966 117.842 223.111 127.117C228.676 136.194 233.803 145.517 238.48 155.05C233.847 164.698 228.761 174.135 223.235 183.331C218.155 192.675 212.646 201.763 206.727 210.566C196.019 211.38 185.265 211.694 174.5 211.5C163.965 211.762 153.437 211.531 142.95 210.814C136.838 201.959 131.131 192.813 125.852 183.405L125.865 183.431C120.388 174.285 115.349 164.902 110.761 155.312C115.336 145.714 120.354 136.317 125.802 127.155L125.889 127.229C131.078 117.913 136.693 108.857 142.712 100.087C153.273 99.2624 163.88 98.9185 174.5 99.0601C185.17 98.9033 195.828 99.2457 206.438 100.083ZM214.686 85.8548C230.301 87.4006 245.802 89.972 261.088 93.5567C261.712 91.1816 262.311 88.7989 262.884 86.4086C271.036 46.8339 263.993 22.6037 253.997 16.8447C250.25 15.4099 246.247 14.7679 242.24 14.9581C238.232 15.1498 234.307 16.1692 230.714 17.9555C216.899 23.6551 204.199 31.748 193.196 41.8616C190.447 44.3903 187.74 46.9632 185.078 49.5772C195.731 61.016 205.62 73.1364 214.686 85.8548ZM174.683 60.2415C181.868 67.9997 188.687 76.0805 195.122 84.4595C188.258 84.1583 181.382 84.0563 174.5 84.1522C167.701 84.0503 160.907 84.1415 154.126 84.4261C160.598 76.0547 167.458 67.9845 174.683 60.2415ZM164.259 49.4661C153.527 60.9125 143.563 73.0481 134.431 85.7954C118.864 87.3094 103.409 89.8427 88.1644 93.3772C87.2272 89.7575 86.3493 86.121 85.5299 82.4694C82.2868 67.8856 81.6409 52.8439 83.6227 38.0349C83.8707 34.0333 84.9457 30.1261 86.7799 26.5596C88.6148 22.9947 91.1679 19.8482 94.2802 17.3195C104.264 11.5362 128.768 17.5309 158.982 44.3538C160.76 46.0397 162.52 47.7438 164.259 49.4661ZM92.2337 107.784C102.533 105.431 112.929 103.547 123.392 102.14C122.316 103.832 121.254 105.533 120.206 107.243C117.684 111.36 115.245 115.53 112.889 119.751C109.387 125.617 106.058 131.576 102.903 137.621C98.8889 127.85 95.3293 117.893 92.2337 107.784ZM77.7588 111.419C73.6362 112.55 69.5327 113.756 65.4497 115.039C30.5498 127.217 14.9071 143.869 14.9071 154.924C14.9071 166.492 31.7214 184.677 68.6411 197.303C71.5951 198.189 74.5598 199.035 77.5336 199.839C82.1278 184.627 87.727 169.741 94.2931 155.28C87.8297 141.042 82.3058 126.39 77.7588 111.419ZM102.928 172.991C98.8394 182.958 95.2136 193.114 92.0633 203.427C102.535 205.769 113.107 207.611 123.743 208.95C119.973 203.05 116.375 197.034 112.952 190.91C109.436 185.027 106.094 179.052 102.928 172.991ZM154.296 226.32C161.022 226.542 167.76 226.571 174.5 226.408C181.542 226.527 188.579 226.44 195.602 226.146C189.155 234.656 182.308 242.86 175.08 250.731C167.779 242.914 160.843 234.769 154.296 226.32Z" fill="#E4EBF7" />
  </g>
</svg>