<svg width="770" height="462" viewBox="0 0 770 462" fill="none" xmlns="http://www.w3.org/2000/svg">
<g clip-path="url(#clip0_262_42)">
<rect width="770" height="462" fill="#FF4B4B"/>
<path d="M12.3178 26.3173V19.6781H7.8524V26.3173H1.66821V30.5973H7.8524V37.5398H12.3178V30.5973H18.4852V26.3173H12.3178ZM32.3539 26.3173V19.6781H27.8885V26.3173H21.7043V30.5973H27.8885V37.5398H32.3539V30.5973H38.5213V26.3173H32.3539ZM52.39 26.3173V19.6781H47.9246V26.3173H41.7404V30.5973H47.9246V37.5398H52.39V30.5973H58.5574V26.3173H52.39ZM74.3808 15.1453V11.5224H66.8486V45.645H74.3808V42.0221H71.5162V15.1453H74.3808ZM82.8574 37.5904L98.0229 31.4062V27.5811L82.8574 21.4137V25.9466L92.5296 29.1313L93.5407 29.4683L92.5128 29.8054L82.8574 33.0407V37.5904ZM112.498 26.3173V19.6781H108.033V26.3173H101.849V30.5973H108.033V37.5398H112.498V30.5973H118.666V26.3173H112.498ZM132.534 26.3173V19.6781H128.069V26.3173H121.885V30.5973H128.069V37.5398H132.534V30.5973H138.702V26.3173H132.534ZM152.571 26.3173V19.6781H148.105V26.3173H141.921V30.5973H148.105V37.5398H152.571V30.5973H158.738V26.3173H152.571ZM172.607 26.3173V19.6781H168.141V26.3173H161.957V30.5973H168.141V37.5398H172.607V30.5973H178.774V26.3173H172.607ZM194.597 15.1453V11.5224H187.065V45.645H194.597V42.0221H191.733V15.1453H194.597ZM203.074 37.5904L218.24 31.4062V27.5811L203.074 21.4137V25.9466L212.746 29.1313L213.757 29.4683L212.729 29.8054L203.074 33.0407V37.5904ZM232.715 26.3173V19.6781H228.25V26.3173H222.065V30.5973H228.25V37.5398H232.715V30.5973H238.882V26.3173H232.715ZM252.751 26.3173V19.6781H248.286V26.3173H242.101V30.5973H248.286V37.5398H252.751V30.5973H258.918V26.3173H252.751ZM272.787 26.3173V19.6781H268.322V26.3173H262.138V30.5973H268.322V37.5398H272.787V30.5973H278.954V26.3173H272.787ZM292.823 26.3173V19.6781H288.358V26.3173H282.174V30.5973H288.358V37.5398H292.823V30.5973H298.991V26.3173H292.823ZM312.859 26.3173V19.6781H308.394V26.3173H302.21V30.5973H308.394V37.5398H312.859V30.5973H319.027V26.3173H312.859ZM332.895 26.3173V19.6781H328.43V26.3173H322.246V30.5973H328.43V37.5398H332.895V30.5973H339.063V26.3173H332.895ZM358.155 37.5735V33.007L348.921 29.9233L347.775 29.5189L348.921 29.0976L358.155 25.9634V21.4137L343.242 27.5979V31.3893L358.155 37.5735ZM379.438 31.0692V27.2778H365.402V31.0692H379.438ZM387.426 11.5224V15.1453H390.308V42.0221H387.426V45.645H394.975V11.5224H387.426ZM418.264 37.5735V33.007L409.029 29.9233L407.884 29.5189L409.029 29.0976L418.264 25.9634V21.4137L403.351 27.5979V31.3893L418.264 37.5735ZM439.547 31.0692V27.2778H425.51V31.0692H439.547ZM447.534 11.5224V15.1453H450.416V42.0221H447.534V45.645H455.084V11.5224H447.534ZM463.543 37.5904L478.709 31.4062V27.5811L463.543 21.4137V25.9466L473.216 29.1313L474.227 29.4683L473.199 29.8054L463.543 33.0407V37.5904ZM483.579 37.5904L498.745 31.4062V27.5811L483.579 21.4137V25.9466L493.252 29.1313L494.263 29.4683L493.235 29.8054L483.579 33.0407V37.5904ZM508.013 37.287C508.013 38.152 508.306 38.8766 508.89 39.4608C509.474 40.0449 510.266 40.337 511.266 40.337C512.254 40.337 513.041 40.0506 513.625 39.4776C514.22 38.8935 514.518 38.1633 514.518 37.287C514.518 36.4108 514.226 35.675 513.642 35.0796C513.069 34.4842 512.277 34.1865 511.266 34.1865C510.243 34.1865 509.446 34.4898 508.873 35.0965C508.3 35.6918 508.013 36.422 508.013 37.287ZM538.48 37.5735V33.007L529.246 29.9233L528.1 29.5189L529.246 29.0976L538.48 25.9634V21.4137L523.567 27.5979V31.3893L538.48 37.5735ZM553.293 26.3173V19.6781H548.827V26.3173H542.643V30.5973H548.827V37.5398H553.293V30.5973H559.46V26.3173H553.293ZM573.329 26.3173V19.6781H568.863V26.3173H562.679V30.5973H568.863V37.5398H573.329V30.5973H579.496V26.3173H573.329ZM593.365 26.3173V19.6781H588.899V26.3173H582.715V30.5973H588.899V37.5398H593.365V30.5973H599.532V26.3173H593.365ZM615.356 15.1453V11.5224H607.823V45.645H615.356V42.0221H612.491V15.1453H615.356ZM623.832 37.5904L638.998 31.4062V27.5811L623.832 21.4137V25.9466L633.504 29.1313L634.515 29.4683L633.488 29.8054L623.832 33.0407V37.5904ZM653.473 26.3173V19.6781H649.008V26.3173H642.823V30.5973H649.008V37.5398H653.473V30.5973H659.64V26.3173H653.473ZM673.509 26.3173V19.6781H669.044V26.3173H662.859V30.5973H669.044V37.5398H673.509V30.5973H679.676V26.3173H673.509ZM693.545 26.3173V19.6781H689.08V26.3173H682.896V30.5973H689.08V37.5398H693.545V30.5973H699.713V26.3173H693.545ZM713.581 26.3173V19.6781H709.116V26.3173H702.932V30.5973H709.116V37.5398H713.581V30.5973H719.749V26.3173H713.581ZM733.617 26.3173V19.6781H729.152V26.3173H722.968V30.5973H729.152V37.5398H733.617V30.5973H739.785V26.3173H733.617ZM753.654 26.3173V19.6781H749.188V26.3173H743.004V30.5973H749.188V37.5398H753.654V30.5973H759.821V26.3173H753.654ZM12.3178 65.3173V58.6781H7.8524V65.3173H1.66821V69.5973H7.8524V76.5398H12.3178V69.5973H18.4852V65.3173H12.3178ZM32.3539 65.3173V58.6781H27.8885V65.3173H21.7043V69.5973H27.8885V76.5398H32.3539V69.5973H38.5213V65.3173H32.3539ZM52.39 65.3173V58.6781H47.9246V65.3173H41.7404V69.5973H47.9246V76.5398H52.39V69.5973H58.5574V65.3173H52.39ZM72.4261 65.3173V58.6781H67.9607V65.3173H61.7765V69.5973H67.9607V76.5398H72.4261V69.5973H78.5935V65.3173H72.4261ZM92.4622 65.3173V58.6781H87.9968V65.3173H81.8126V69.5973H87.9968V76.5398H92.4622V69.5973H98.6296V65.3173H92.4622ZM112.498 65.3173V58.6781H108.033V65.3173H101.849V69.5973H108.033V76.5398H112.498V69.5973H118.666V65.3173H112.498ZM132.534 65.3173V58.6781H128.069V65.3173H121.885V69.5973H128.069V76.5398H132.534V69.5973H138.702V65.3173H132.534ZM157.794 76.5735V72.007L148.56 68.9233L147.414 68.5189L148.56 68.0976L157.794 64.9634V60.4137L142.881 66.5979V70.3893L157.794 76.5735ZM179.077 70.0692V66.2778H165.041V70.0692H179.077ZM187.065 50.5224V54.1453H189.947V81.0221H187.065V84.645H194.614V50.5224H187.065ZM203.074 76.5904L218.24 70.4062V66.5811L203.074 60.4137V64.9466L212.746 68.1313L213.757 68.4683L212.729 68.8054L203.074 72.0407V76.5904ZM227.508 76.287C227.508 77.152 227.8 77.8766 228.384 78.4608C228.968 79.0449 229.76 79.337 230.76 79.337C231.749 79.337 232.535 79.0506 233.119 78.4776C233.715 77.8935 234.012 77.1633 234.012 76.287C234.012 75.4108 233.72 74.675 233.136 74.0796C232.563 73.4842 231.771 73.1865 230.76 73.1865C229.738 73.1865 228.94 73.4898 228.367 74.0965C227.795 74.6918 227.508 75.422 227.508 76.287ZM252.751 65.3173V58.6781H248.286V65.3173H242.101V69.5973H248.286V76.5398H252.751V69.5973H258.918V65.3173H252.751ZM272.787 65.3173V58.6781H268.322V65.3173H262.138V69.5973H268.322V76.5398H272.787V69.5973H278.954V65.3173H272.787ZM292.823 65.3173V58.6781H288.358V65.3173H282.174V69.5973H288.358V76.5398H292.823V69.5973H298.991V65.3173H292.823ZM312.859 65.3173V58.6781H308.394V65.3173H302.21V69.5973H308.394V76.5398H312.859V69.5973H319.027V65.3173H312.859ZM332.895 65.3173V58.6781H328.43V65.3173H322.246V69.5973H328.43V76.5398H332.895V69.5973H339.063V65.3173H332.895ZM352.932 65.3173V58.6781H348.466V65.3173H342.282V69.5973H348.466V76.5398H352.932V69.5973H359.099V65.3173H352.932ZM372.968 65.3173V58.6781H368.502V65.3173H362.318V69.5973H368.502V76.5398H372.968V69.5973H379.135V65.3173H372.968ZM393.004 65.3173V58.6781H388.538V65.3173H382.354V69.5973H388.538V76.5398H393.004V69.5973H399.171V65.3173H393.004ZM407.833 76.287C407.833 77.152 408.125 77.8766 408.709 78.4608C409.293 79.0449 410.085 79.337 411.085 79.337C412.074 79.337 412.86 79.0506 413.444 78.4776C414.04 77.8935 414.337 77.1633 414.337 76.287C414.337 75.4108 414.045 74.675 413.461 74.0796C412.888 73.4842 412.096 73.1865 411.085 73.1865C410.063 73.1865 409.265 73.4898 408.692 74.0965C408.119 74.6918 407.833 75.422 407.833 76.287ZM438.3 76.5735V72.007L429.065 68.9233L427.92 68.5189L429.065 68.0976L438.3 64.9634V60.4137L423.387 66.5979V70.3893L438.3 76.5735ZM458.336 76.5735V72.007L449.102 68.9233L447.956 68.5189L449.102 68.0976L458.336 64.9634V60.4137L443.423 66.5979V70.3893L458.336 76.5735ZM473.148 65.3173V58.6781H468.683V65.3173H462.499V69.5973H468.683V76.5398H473.148V69.5973H479.315V65.3173H473.148ZM493.184 65.3173V58.6781H488.719V65.3173H482.535V69.5973H488.719V76.5398H493.184V69.5973H499.352V65.3173H493.184ZM513.22 65.3173V58.6781H508.755V65.3173H502.571V69.5973H508.755V76.5398H513.22V69.5973H519.388V65.3173H513.22ZM533.256 65.3173V58.6781H528.791V65.3173H522.607V69.5973H528.791V76.5398H533.256V69.5973H539.424V65.3173H533.256ZM555.247 54.1453V50.5224H547.715V84.645H555.247V81.0221H552.383V54.1453H555.247ZM563.724 76.5904L578.889 70.4062V66.5811L563.724 60.4137V64.9466L573.396 68.1313L574.407 68.4683L573.379 68.8054L563.724 72.0407V76.5904ZM583.76 76.5904L598.925 70.4062V66.5811L583.76 60.4137V64.9466L593.432 68.1313L594.443 68.4683L593.415 68.8054L583.76 72.0407V76.5904ZM603.796 76.5904L618.962 70.4062V66.5811L603.796 60.4137V64.9466L613.468 68.1313L614.479 68.4683L613.451 68.8054L603.796 72.0407V76.5904ZM633.437 65.3173V58.6781H628.972V65.3173H622.787V69.5973H628.972V76.5398H633.437V69.5973H639.604V65.3173H633.437ZM653.473 65.3173V58.6781H649.008V65.3173H642.823V69.5973H649.008V76.5398H653.473V69.5973H659.64V65.3173H653.473ZM673.509 65.3173V58.6781H669.044V65.3173H662.859V69.5973H669.044V76.5398H673.509V69.5973H679.676V65.3173H673.509ZM693.545 65.3173V58.6781H689.08V65.3173H682.896V69.5973H689.08V76.5398H693.545V69.5973H699.713V65.3173H693.545ZM713.581 65.3173V58.6781H709.116V65.3173H702.932V69.5973H709.116V76.5398H713.581V69.5973H719.749V65.3173H713.581ZM733.617 65.3173V58.6781H729.152V65.3173H722.968V69.5973H729.152V76.5398H733.617V69.5973H739.785V65.3173H733.617ZM753.654 65.3173V58.6781H749.188V65.3173H743.004V69.5973H749.188V76.5398H753.654V69.5973H759.821V65.3173H753.654ZM12.3178 104.317V97.6781H7.8524V104.317H1.66821V108.597H7.8524V115.54H12.3178V108.597H18.4852V104.317H12.3178ZM37.5776 115.574V111.007L28.3435 107.923L27.1976 107.519L28.3435 107.098L37.5776 103.963V99.4137L22.6648 105.598V109.389L37.5776 115.574ZM57.6137 115.574V111.007L48.3796 107.923L47.2337 107.519L48.3796 107.098L57.6137 103.963V99.4137L42.7009 105.598V109.389L57.6137 115.574ZM77.6498 115.574V111.007L68.4157 107.923L67.2698 107.519L68.4157 107.098L77.6498 103.963V99.4137L62.737 105.598V109.389L77.6498 115.574ZM98.9329 109.069V105.278H84.8963V109.069H98.9329ZM106.921 89.5224V93.1453H109.802V120.022H106.921V123.645H114.47V89.5224H106.921ZM122.93 115.59L138.095 109.406V105.581L122.93 99.4137V103.947L132.602 107.131L133.613 107.468L132.585 107.805L122.93 111.041V115.59ZM142.966 115.59L158.131 109.406V105.581L142.966 99.4137V103.947L152.638 107.131L153.649 107.468L152.621 107.805L142.966 111.041V115.59ZM163.002 115.59L178.167 109.406V105.581L163.002 99.4137V103.947L172.674 107.131L173.685 107.468L172.657 107.805L163.002 111.041V115.59ZM187.436 115.287C187.436 116.152 187.728 116.877 188.312 117.461C188.896 118.045 189.688 118.337 190.688 118.337C191.677 118.337 192.463 118.051 193.047 117.478C193.643 116.893 193.94 116.163 193.94 115.287C193.94 114.411 193.648 113.675 193.064 113.08C192.491 112.484 191.699 112.187 190.688 112.187C189.666 112.187 188.868 112.49 188.295 113.096C187.722 113.692 187.436 114.422 187.436 115.287ZM217.903 115.574V111.007L208.668 107.923L207.523 107.519L208.668 107.098L217.903 103.963V99.4137L202.99 105.598V109.389L217.903 115.574ZM239.186 109.069V105.278H225.149V109.069H239.186ZM259.222 109.069V105.278H245.185V109.069H259.222ZM279.258 109.069V105.278H265.221V109.069H279.258ZM287.616 115.287C287.616 116.152 287.908 116.877 288.493 117.461C289.077 118.045 289.869 118.337 290.869 118.337C291.857 118.337 292.643 118.051 293.228 117.478C293.823 116.893 294.121 116.163 294.121 115.287C294.121 114.411 293.829 113.675 293.244 113.08C292.672 112.484 291.88 112.187 290.869 112.187C289.846 112.187 289.049 112.49 288.476 113.096C287.903 113.692 287.616 114.422 287.616 115.287ZM319.33 109.069V105.278H305.293V109.069H319.33ZM339.366 109.069V105.278H325.329V109.069H339.366ZM359.402 109.069V105.278H345.366V109.069H359.402ZM379.438 109.069V105.278H365.402V109.069H379.438ZM399.474 109.069V105.278H385.438V109.069H399.474ZM407.833 115.287C407.833 116.152 408.125 116.877 408.709 117.461C409.293 118.045 410.085 118.337 411.085 118.337C412.074 118.337 412.86 118.051 413.444 117.478C414.04 116.893 414.337 116.163 414.337 115.287C414.337 114.411 414.045 113.675 413.461 113.08C412.888 112.484 412.096 112.187 411.085 112.187C410.063 112.187 409.265 112.49 408.692 113.096C408.119 113.692 407.833 114.422 407.833 115.287ZM423.471 115.59L438.637 109.406V105.581L423.471 99.4137V103.947L433.143 107.131L434.154 107.468L433.126 107.805L423.471 111.041V115.59ZM447.905 115.287C447.905 116.152 448.197 116.877 448.781 117.461C449.366 118.045 450.158 118.337 451.157 118.337C452.146 118.337 452.932 118.051 453.516 117.478C454.112 116.893 454.41 116.163 454.41 115.287C454.41 114.411 454.117 113.675 453.533 113.08C452.96 112.484 452.168 112.187 451.157 112.187C450.135 112.187 449.338 112.49 448.765 113.096C448.192 113.692 447.905 114.422 447.905 115.287ZM478.372 115.574V111.007L469.138 107.923L467.992 107.519L469.138 107.098L478.372 103.963V99.4137L463.459 105.598V109.389L478.372 115.574ZM493.184 104.317V97.6781H488.719V104.317H482.535V108.597H488.719V115.54H493.184V108.597H499.352V104.317H493.184ZM513.22 104.317V97.6781H508.755V104.317H502.571V108.597H508.755V115.54H513.22V108.597H519.388V104.317H513.22ZM533.256 104.317V97.6781H528.791V104.317H522.607V108.597H528.791V115.54H533.256V108.597H539.424V104.317H533.256ZM553.293 104.317V97.6781H548.827V104.317H542.643V108.597H548.827V115.54H553.293V108.597H559.46V104.317H553.293ZM573.329 104.317V97.6781H568.863V104.317H562.679V108.597H568.863V115.54H573.329V108.597H579.496V104.317H573.329ZM593.365 104.317V97.6781H588.899V104.317H582.715V108.597H588.899V115.54H593.365V108.597H599.532V104.317H593.365ZM613.401 104.317V97.6781H608.935V104.317H602.751V108.597H608.935V115.54H613.401V108.597H619.568V104.317H613.401ZM633.437 104.317V97.6781H628.972V104.317H622.787V108.597H628.972V115.54H633.437V108.597H639.604V104.317H633.437ZM648.266 115.287C648.266 116.152 648.558 116.877 649.142 117.461C649.727 118.045 650.519 118.337 651.518 118.337C652.507 118.337 653.293 118.051 653.877 117.478C654.473 116.893 654.771 116.163 654.771 115.287C654.771 114.411 654.478 113.675 653.894 113.08C653.321 112.484 652.529 112.187 651.518 112.187C650.496 112.187 649.698 112.49 649.126 113.096C648.553 113.692 648.266 114.422 648.266 115.287ZM679.98 109.069V105.278H665.943V109.069H679.98ZM700.016 109.069V105.278H685.979V109.069H700.016ZM720.052 109.069V105.278H706.015V109.069H720.052ZM740.088 109.069V105.278H726.052V109.069H740.088ZM760.124 109.069V105.278H746.088V109.069H760.124ZM7.11098 154.287C7.11098 155.152 7.40305 155.877 7.98721 156.461C8.57137 157.045 9.36335 157.337 10.3632 157.337C11.3517 157.337 12.1381 157.051 12.7222 156.478C13.3176 155.893 13.6153 155.163 13.6153 154.287C13.6153 153.411 13.3232 152.675 12.7391 152.08C12.1662 151.484 11.3742 151.187 10.3632 151.187C9.34088 151.187 8.54328 151.49 7.97036 152.096C7.39744 152.692 7.11098 153.422 7.11098 154.287ZM37.5776 154.574V150.007L28.3435 146.923L27.1976 146.519L28.3435 146.098L37.5776 142.963V138.414L22.6648 144.598V148.389L37.5776 154.574ZM57.6137 154.574V150.007L48.3796 146.923L47.2337 146.519L48.3796 146.098L57.6137 142.963V138.414L42.7009 144.598V148.389L57.6137 154.574ZM72.4261 143.317V136.678H67.9607V143.317H61.7765V147.597H67.9607V154.54H72.4261V147.597H78.5935V143.317H72.4261ZM92.4622 143.317V136.678H87.9968V143.317H81.8126V147.597H87.9968V154.54H92.4622V147.597H98.6296V143.317H92.4622ZM114.453 132.145V128.522H106.921V162.645H114.453V159.022H111.588V132.145H114.453ZM122.93 154.59L138.095 148.406V144.581L122.93 138.414V142.947L132.602 146.131L133.613 146.468L132.585 146.805L122.93 150.041V154.59ZM142.966 154.59L158.131 148.406V144.581L142.966 138.414V142.947L152.638 146.131L153.649 146.468L152.621 146.805L142.966 150.041V154.59ZM179.077 148.069V144.278H165.041V148.069H179.077ZM199.113 148.069V144.278H185.077V148.069H199.113ZM219.149 148.069V144.278H205.113V148.069H219.149ZM239.186 148.069V144.278H225.149V148.069H239.186ZM259.222 148.069V144.278H245.185V148.069H259.222ZM278.011 154.574V150.007L268.777 146.923L267.631 146.519L268.777 146.098L278.011 142.963V138.414L263.098 144.598V148.389L278.011 154.574ZM298.047 154.574V150.007L288.813 146.923L287.667 146.519L288.813 146.098L298.047 142.963V138.414L283.134 144.598V148.389L298.047 154.574ZM319.33 148.069V144.278H305.293V148.069H319.33ZM327.318 128.522V132.145H330.199V159.022H327.318V162.645H334.867V128.522H327.318ZM343.327 154.59L358.492 148.406V144.581L343.327 138.414V142.947L352.999 146.131L354.01 146.468L352.982 146.805L343.327 150.041V154.59ZM363.363 154.59L378.528 148.406V144.581L363.363 138.414V142.947L373.035 146.131L374.046 146.468L373.018 146.805L363.363 150.041V154.59ZM393.004 143.317V136.678H388.538V143.317H382.354V147.597H388.538V154.54H393.004V147.597H399.171V143.317H393.004ZM407.833 154.287C407.833 155.152 408.125 155.877 408.709 156.461C409.293 157.045 410.085 157.337 411.085 157.337C412.074 157.337 412.86 157.051 413.444 156.478C414.04 155.893 414.337 155.163 414.337 154.287C414.337 153.411 414.045 152.675 413.461 152.08C412.888 151.484 412.096 151.187 411.085 151.187C410.063 151.187 409.265 151.49 408.692 152.096C408.119 152.692 407.833 153.422 407.833 154.287ZM438.3 154.574V150.007L429.065 146.923L427.92 146.519L429.065 146.098L438.3 142.963V138.414L423.387 144.598V148.389L438.3 154.574ZM458.336 154.574V150.007L449.102 146.923L447.956 146.519L449.102 146.098L458.336 142.963V138.414L443.423 144.598V148.389L458.336 154.574ZM473.148 143.317V136.678H468.683V143.317H462.499V147.597H468.683V154.54H473.148V147.597H479.315V143.317H473.148ZM493.184 143.317V136.678H488.719V143.317H482.535V147.597H488.719V154.54H493.184V147.597H499.352V143.317H493.184ZM515.175 132.145V128.522H507.643V162.645H515.175V159.022H512.31V132.145H515.175ZM523.652 154.59L538.817 148.406V144.581L523.652 138.414V142.947L533.324 146.131L534.335 146.468L533.307 146.805L523.652 150.041V154.59ZM543.688 154.59L558.853 148.406V144.581L543.688 138.414V142.947L553.36 146.131L554.371 146.468L553.343 146.805L543.688 150.041V154.59ZM573.329 143.317V136.678H568.863V143.317H562.679V147.597H568.863V154.54H573.329V147.597H579.496V143.317H573.329ZM593.365 143.317V136.678H588.899V143.317H582.715V147.597H588.899V154.54H593.365V147.597H599.532V143.317H593.365ZM613.401 143.317V136.678H608.935V143.317H602.751V147.597H608.935V154.54H613.401V147.597H619.568V143.317H613.401ZM633.437 143.317V136.678H628.972V143.317H622.787V147.597H628.972V154.54H633.437V147.597H639.604V143.317H633.437ZM653.473 143.317V136.678H649.008V143.317H642.823V147.597H649.008V154.54H653.473V147.597H659.64V143.317H653.473ZM678.733 154.574V150.007L669.499 146.923L668.353 146.519L669.499 146.098L678.733 142.963V138.414L663.82 144.598V148.389L678.733 154.574ZM698.769 154.574V150.007L689.535 146.923L688.389 146.519L689.535 146.098L698.769 142.963V138.414L683.856 144.598V148.389L698.769 154.574ZM720.052 148.069V144.278H706.015V148.069H720.052ZM728.04 128.522V132.145H730.921V159.022H728.04V162.645H735.589V128.522H728.04ZM744.049 154.59L759.214 148.406V144.581L744.049 138.414V142.947L753.721 146.131L754.732 146.468L753.704 146.805L744.049 150.041V154.59ZM2.71295 193.59L17.8785 187.406V183.581L2.71295 177.414V181.947L12.3852 185.131L13.3963 185.468L12.3684 185.805L2.71295 189.041V193.59ZM32.3539 182.317V175.678H27.8885V182.317H21.7043V186.597H27.8885V193.54H32.3539V186.597H38.5213V182.317H32.3539ZM47.1832 193.287C47.1832 194.152 47.4753 194.877 48.0594 195.461C48.6436 196.045 49.4355 196.337 50.4354 196.337C51.4239 196.337 52.2103 196.051 52.7944 195.478C53.3898 194.893 53.6875 194.163 53.6875 193.287C53.6875 192.411 53.3954 191.675 52.8113 191.08C52.2384 190.484 51.4464 190.187 50.4354 190.187C49.4131 190.187 48.6155 190.49 48.0426 191.096C47.4696 191.692 47.1832 192.422 47.1832 193.287ZM77.6498 193.574V189.007L68.4157 185.923L67.2698 185.519L68.4157 185.098L77.6498 181.963V177.414L62.737 183.598V187.389L77.6498 193.574ZM92.4622 182.317V175.678H87.9968V182.317H81.8126V186.597H87.9968V193.54H92.4622V186.597H98.6296V182.317H92.4622ZM112.498 182.317V175.678H108.033V182.317H101.849V186.597H108.033V193.54H112.498V186.597H118.666V182.317H112.498ZM132.534 182.317V175.678H128.069V182.317H121.885V186.597H128.069V193.54H132.534V186.597H138.702V182.317H132.534ZM154.525 171.145V167.522H146.993V201.645H154.525V198.022H151.661V171.145H154.525ZM163.002 193.59L178.167 187.406V183.581L163.002 177.414V181.947L172.674 185.131L173.685 185.468L172.657 185.805L163.002 189.041V193.59ZM199.113 187.069V183.278H185.077V187.069H199.113ZM219.149 187.069V183.278H205.113V187.069H219.149ZM239.186 187.069V183.278H225.149V187.069H239.186ZM259.222 187.069V183.278H245.185V187.069H259.222ZM279.258 187.069V183.278H265.221V187.069H279.258ZM298.047 193.574V189.007L288.813 185.923L287.667 185.519L288.813 185.098L298.047 181.963V177.414L283.134 183.598V187.389L298.047 193.574ZM319.33 187.069V183.278H305.293V187.069H319.33ZM327.318 167.522V171.145H330.199V198.022H327.318V201.645H334.867V167.522H327.318ZM343.327 193.59L358.492 187.406V183.581L343.327 177.414V181.947L352.999 185.131L354.01 185.468L352.982 185.805L343.327 189.041V193.59ZM367.761 193.287C367.761 194.152 368.053 194.877 368.637 195.461C369.221 196.045 370.013 196.337 371.013 196.337C372.002 196.337 372.788 196.051 373.372 195.478C373.967 194.893 374.265 194.163 374.265 193.287C374.265 192.411 373.973 191.675 373.389 191.08C372.816 190.484 372.024 190.187 371.013 190.187C369.991 190.187 369.193 190.49 368.62 191.096C368.047 191.692 367.761 192.422 367.761 193.287ZM383.399 193.59L398.564 187.406V183.581L383.399 177.414V181.947L393.071 185.131L394.082 185.468L393.054 185.805L383.399 189.041V193.59ZM407.833 193.287C407.833 194.152 408.125 194.877 408.709 195.461C409.293 196.045 410.085 196.337 411.085 196.337C412.074 196.337 412.86 196.051 413.444 195.478C414.04 194.893 414.337 194.163 414.337 193.287C414.337 192.411 414.045 191.675 413.461 191.08C412.888 190.484 412.096 190.187 411.085 190.187C410.063 190.187 409.265 190.49 408.692 191.096C408.119 191.692 407.833 192.422 407.833 193.287ZM433.076 182.317V175.678H428.611V182.317H422.426V186.597H428.611V193.54H433.076V186.597H439.243V182.317H433.076ZM453.112 182.317V175.678H448.647V182.317H442.462V186.597H448.647V193.54H453.112V186.597H459.279V182.317H453.112ZM473.148 182.317V175.678H468.683V182.317H462.499V186.597H468.683V193.54H473.148V186.597H479.315V182.317H473.148ZM493.184 182.317V175.678H488.719V182.317H482.535V186.597H488.719V193.54H493.184V186.597H499.352V182.317H493.184ZM513.22 182.317V175.678H508.755V182.317H502.571V186.597H508.755V193.54H513.22V186.597H519.388V182.317H513.22ZM533.256 182.317V175.678H528.791V182.317H522.607V186.597H528.791V193.54H533.256V186.597H539.424V182.317H533.256ZM553.293 182.317V175.678H548.827V182.317H542.643V186.597H548.827V193.54H553.293V186.597H559.46V182.317H553.293ZM568.122 193.287C568.122 194.152 568.414 194.877 568.998 195.461C569.582 196.045 570.374 196.337 571.374 196.337C572.363 196.337 573.149 196.051 573.733 195.478C574.328 194.893 574.626 194.163 574.626 193.287C574.626 192.411 574.334 191.675 573.75 191.08C573.177 190.484 572.385 190.187 571.374 190.187C570.352 190.187 569.554 190.49 568.981 191.096C568.408 191.692 568.122 192.422 568.122 193.287ZM598.588 193.574V189.007L589.354 185.923L588.208 185.519L589.354 185.098L598.588 181.963V177.414L583.676 183.598V187.389L598.588 193.574ZM613.401 182.317V175.678H608.935V182.317H602.751V186.597H608.935V193.54H613.401V186.597H619.568V182.317H613.401ZM633.437 182.317V175.678H628.972V182.317H622.787V186.597H628.972V193.54H633.437V186.597H639.604V182.317H633.437ZM653.473 182.317V175.678H649.008V182.317H642.823V186.597H649.008V193.54H653.473V186.597H659.64V182.317H653.473ZM668.302 193.287C668.302 194.152 668.594 194.877 669.178 195.461C669.763 196.045 670.555 196.337 671.554 196.337C672.543 196.337 673.329 196.051 673.914 195.478C674.509 194.893 674.807 194.163 674.807 193.287C674.807 192.411 674.515 191.675 673.93 191.08C673.357 190.484 672.565 190.187 671.554 190.187C670.532 190.187 669.735 190.49 669.162 191.096C668.589 191.692 668.302 192.422 668.302 193.287ZM700.016 187.069V183.278H685.979V187.069H700.016ZM720.052 187.069V183.278H706.015V187.069H720.052ZM740.088 187.069V183.278H726.052V187.069H740.088ZM748.447 193.287C748.447 194.152 748.739 194.877 749.323 195.461C749.907 196.045 750.699 196.337 751.699 196.337C752.687 196.337 753.474 196.051 754.058 195.478C754.653 194.893 754.951 194.163 754.951 193.287C754.951 192.411 754.659 191.675 754.075 191.08C753.502 190.484 752.71 190.187 751.699 190.187C750.677 190.187 749.879 190.49 749.306 191.096C748.733 191.692 748.447 192.422 748.447 193.287ZM12.3178 221.317V214.678H7.8524V221.317H1.66821V225.597H7.8524V232.54H12.3178V225.597H18.4852V221.317H12.3178ZM32.3539 221.317V214.678H27.8885V221.317H21.7043V225.597H27.8885V232.54H32.3539V225.597H38.5213V221.317H32.3539ZM52.39 221.317V214.678H47.9246V221.317H41.7404V225.597H47.9246V232.54H52.39V225.597H58.5574V221.317H52.39ZM72.4261 221.317V214.678H67.9607V221.317H61.7765V225.597H67.9607V232.54H72.4261V225.597H78.5935V221.317H72.4261ZM92.4622 221.317V214.678H87.9968V221.317H81.8126V225.597H87.9968V232.54H92.4622V225.597H98.6296V221.317H92.4622ZM112.498 221.317V214.678H108.033V221.317H101.849V225.597H108.033V232.54H112.498V225.597H118.666V221.317H112.498ZM132.534 221.317V214.678H128.069V221.317H121.885V225.597H128.069V232.54H132.534V225.597H138.702V221.317H132.534ZM147.364 232.287C147.364 233.152 147.656 233.877 148.24 234.461C148.824 235.045 149.616 235.337 150.616 235.337C151.604 235.337 152.391 235.051 152.975 234.478C153.57 233.893 153.868 233.163 153.868 232.287C153.868 231.411 153.576 230.675 152.992 230.08C152.419 229.484 151.627 229.187 150.616 229.187C149.594 229.187 148.796 229.49 148.223 230.096C147.65 230.692 147.364 231.422 147.364 232.287ZM167.4 232.287C167.4 233.152 167.692 233.877 168.276 234.461C168.86 235.045 169.652 235.337 170.652 235.337C171.641 235.337 172.427 235.051 173.011 234.478C173.606 233.893 173.904 233.163 173.904 232.287C173.904 231.411 173.612 230.675 173.028 230.08C172.455 229.484 171.663 229.187 170.652 229.187C169.63 229.187 168.832 229.49 168.259 230.096C167.686 230.692 167.4 231.422 167.4 232.287ZM192.643 221.317V214.678H188.177V221.317H181.993V225.597H188.177V232.54H192.643V225.597H198.81V221.317H192.643ZM212.679 221.317V214.678H208.213V221.317H202.029V225.597H208.213V232.54H212.679V225.597H218.846V221.317H212.679ZM232.715 221.317V214.678H228.25V221.317H222.065V225.597H228.25V232.54H232.715V225.597H238.882V221.317H232.715ZM247.544 232.287C247.544 233.152 247.836 233.877 248.42 234.461C249.005 235.045 249.797 235.337 250.796 235.337C251.785 235.337 252.571 235.051 253.155 234.478C253.751 233.893 254.049 233.163 254.049 232.287C254.049 231.411 253.756 230.675 253.172 230.08C252.599 229.484 251.807 229.187 250.796 229.187C249.774 229.187 248.976 229.49 248.404 230.096C247.831 230.692 247.544 231.422 247.544 232.287ZM263.182 232.59L278.348 226.406V222.581L263.182 216.414V220.947L272.855 224.131L273.866 224.468L272.838 224.805L263.182 228.041V232.59ZM299.294 226.069V222.278H285.257V226.069H299.294ZM319.33 226.069V222.278H305.293V226.069H319.33ZM339.366 226.069V222.278H325.329V226.069H339.366ZM359.402 226.069V222.278H345.366V226.069H359.402ZM379.438 226.069V222.278H365.402V226.069H379.438ZM399.474 226.069V222.278H385.438V226.069H399.474ZM419.51 226.069V222.278H405.474V226.069H419.51ZM427.869 232.287C427.869 233.152 428.161 233.877 428.745 234.461C429.329 235.045 430.121 235.337 431.121 235.337C432.11 235.337 432.896 235.051 433.48 234.478C434.076 233.893 434.373 233.163 434.373 232.287C434.373 231.411 434.081 230.675 433.497 230.08C432.924 229.484 432.132 229.187 431.121 229.187C430.099 229.187 429.301 229.49 428.728 230.096C428.156 230.692 427.869 231.422 427.869 232.287ZM458.336 232.574V228.007L449.102 224.923L447.956 224.519L449.102 224.098L458.336 220.963V216.414L443.423 222.598V226.389L458.336 232.574ZM473.148 221.317V214.678H468.683V221.317H462.499V225.597H468.683V232.54H473.148V225.597H479.315V221.317H473.148ZM493.184 221.317V214.678H488.719V221.317H482.535V225.597H488.719V232.54H493.184V225.597H499.352V221.317H493.184ZM513.22 221.317V214.678H508.755V221.317H502.571V225.597H508.755V232.54H513.22V225.597H519.388V221.317H513.22ZM533.256 221.317V214.678H528.791V221.317H522.607V225.597H528.791V232.54H533.256V225.597H539.424V221.317H533.256ZM553.293 221.317V214.678H548.827V221.317H542.643V225.597H548.827V232.54H553.293V225.597H559.46V221.317H553.293ZM573.329 221.317V214.678H568.863V221.317H562.679V225.597H568.863V232.54H573.329V225.597H579.496V221.317H573.329ZM593.365 221.317V214.678H588.899V221.317H582.715V225.597H588.899V232.54H593.365V225.597H599.532V221.317H593.365ZM613.401 221.317V214.678H608.935V221.317H602.751V225.597H608.935V232.54H613.401V225.597H619.568V221.317H613.401ZM628.23 232.287C628.23 233.152 628.522 233.877 629.106 234.461C629.691 235.045 630.482 235.337 631.482 235.337C632.471 235.337 633.257 235.051 633.841 234.478C634.437 233.893 634.734 233.163 634.734 232.287C634.734 231.411 634.442 230.675 633.858 230.08C633.285 229.484 632.493 229.187 631.482 229.187C630.46 229.187 629.662 229.49 629.089 230.096C628.517 230.692 628.23 231.422 628.23 232.287ZM659.944 226.069V222.278H645.907V226.069H659.944ZM679.98 226.069V222.278H665.943V226.069H679.98ZM700.016 226.069V222.278H685.979V226.069H700.016ZM720.052 226.069V222.278H706.015V226.069H720.052ZM740.088 226.069V222.278H726.052V226.069H740.088ZM760.124 226.069V222.278H746.088V226.069H760.124ZM18.7885 265.069V261.278H4.75188V265.069H18.7885ZM38.8246 265.069V261.278H24.788V265.069H38.8246ZM47.1832 271.287C47.1832 272.152 47.4753 272.877 48.0594 273.461C48.6436 274.045 49.4355 274.337 50.4354 274.337C51.4239 274.337 52.2103 274.051 52.7944 273.478C53.3898 272.893 53.6875 272.163 53.6875 271.287C53.6875 270.411 53.3954 269.675 52.8113 269.08C52.2384 268.484 51.4464 268.187 50.4354 268.187C49.4131 268.187 48.6155 268.49 48.0426 269.096C47.4696 269.692 47.1832 270.422 47.1832 271.287ZM72.4261 260.317V253.678H67.9607V260.317H61.7765V264.597H67.9607V271.54H72.4261V264.597H78.5935V260.317H72.4261ZM92.4622 260.317V253.678H87.9968V260.317H81.8126V264.597H87.9968V271.54H92.4622V264.597H98.6296V260.317H92.4622ZM112.498 260.317V253.678H108.033V260.317H101.849V264.597H108.033V271.54H112.498V264.597H118.666V260.317H112.498ZM127.328 271.287C127.328 272.152 127.62 272.877 128.204 273.461C128.788 274.045 129.58 274.337 130.58 274.337C131.568 274.337 132.355 274.051 132.939 273.478C133.534 272.893 133.832 272.163 133.832 271.287C133.832 270.411 133.54 269.675 132.956 269.08C132.383 268.484 131.591 268.187 130.58 268.187C129.557 268.187 128.76 268.49 128.187 269.096C127.614 269.692 127.328 270.422 127.328 271.287ZM159.041 265.069V261.278H145.005V265.069H159.041ZM179.077 265.069V261.278H165.041V265.069H179.077ZM199.113 265.069V261.278H185.077V265.069H199.113ZM219.149 265.069V261.278H205.113V265.069H219.149ZM239.186 265.069V261.278H225.149V265.069H239.186ZM259.222 265.069V261.278H245.185V265.069H259.222ZM267.58 271.287C267.58 272.152 267.872 272.877 268.457 273.461C269.041 274.045 269.833 274.337 270.832 274.337C271.821 274.337 272.607 274.051 273.192 273.478C273.787 272.893 274.085 272.163 274.085 271.287C274.085 270.411 273.793 269.675 273.208 269.08C272.635 268.484 271.843 268.187 270.832 268.187C269.81 268.187 269.013 268.49 268.44 269.096C267.867 269.692 267.58 270.422 267.58 271.287ZM299.294 265.069V261.278H285.257V265.069H299.294ZM319.33 265.069V261.278H305.293V265.069H319.33ZM339.366 265.069V261.278H325.329V265.069H339.366ZM359.402 265.069V261.278H345.366V265.069H359.402ZM379.438 265.069V261.278H365.402V265.069H379.438ZM399.474 265.069V261.278H385.438V265.069H399.474ZM419.51 265.069V261.278H405.474V265.069H419.51ZM439.547 265.069V261.278H425.51V265.069H439.547ZM447.905 271.287C447.905 272.152 448.197 272.877 448.781 273.461C449.366 274.045 450.158 274.337 451.157 274.337C452.146 274.337 452.932 274.051 453.516 273.478C454.112 272.893 454.41 272.163 454.41 271.287C454.41 270.411 454.117 269.675 453.533 269.08C452.96 268.484 452.168 268.187 451.157 268.187C450.135 268.187 449.338 268.49 448.765 269.096C448.192 269.692 447.905 270.422 447.905 271.287ZM463.543 271.59L478.709 265.406V261.581L463.543 255.414V259.947L473.216 263.131L474.227 263.468L473.199 263.805L463.543 267.041V271.59ZM493.184 260.317V253.678H488.719V260.317H482.535V264.597H488.719V271.54H493.184V264.597H499.352V260.317H493.184ZM513.22 260.317V253.678H508.755V260.317H502.571V264.597H508.755V271.54H513.22V264.597H519.388V260.317H513.22ZM533.256 260.317V253.678H528.791V260.317H522.607V264.597H528.791V271.54H533.256V264.597H539.424V260.317H533.256ZM553.293 260.317V253.678H548.827V260.317H542.643V264.597H548.827V271.54H553.293V264.597H559.46V260.317H553.293ZM573.329 260.317V253.678H568.863V260.317H562.679V264.597H568.863V271.54H573.329V264.597H579.496V260.317H573.329ZM593.365 260.317V253.678H588.899V260.317H582.715V264.597H588.899V271.54H593.365V264.597H599.532V260.317H593.365ZM613.401 260.317V253.678H608.935V260.317H602.751V264.597H608.935V271.54H613.401V264.597H619.568V260.317H613.401ZM628.23 271.287C628.23 272.152 628.522 272.877 629.106 273.461C629.691 274.045 630.482 274.337 631.482 274.337C632.471 274.337 633.257 274.051 633.841 273.478C634.437 272.893 634.734 272.163 634.734 271.287C634.734 270.411 634.442 269.675 633.858 269.08C633.285 268.484 632.493 268.187 631.482 268.187C630.46 268.187 629.662 268.49 629.089 269.096C628.517 269.692 628.23 270.422 628.23 271.287ZM659.944 265.069V261.278H645.907V265.069H659.944ZM679.98 265.069V261.278H665.943V265.069H679.98ZM700.016 265.069V261.278H685.979V265.069H700.016ZM720.052 265.069V261.278H706.015V265.069H720.052ZM740.088 265.069V261.278H726.052V265.069H740.088ZM760.124 265.069V261.278H746.088V265.069H760.124ZM18.7885 304.069V300.278H4.75188V304.069H18.7885ZM27.1471 310.287C27.1471 311.152 27.4392 311.877 28.0233 312.461C28.6075 313.045 29.3994 313.337 30.3993 313.337C31.3878 313.337 32.1742 313.051 32.7583 312.478C33.3537 311.893 33.6514 311.163 33.6514 310.287C33.6514 309.411 33.3593 308.675 32.7752 308.08C32.2023 307.484 31.4103 307.187 30.3993 307.187C29.377 307.187 28.5794 307.49 28.0065 308.096C27.4335 308.692 27.1471 309.422 27.1471 310.287ZM57.6137 310.574V306.007L48.3796 302.923L47.2337 302.519L48.3796 302.098L57.6137 298.963V294.414L42.7009 300.598V304.389L57.6137 310.574ZM72.4261 299.317V292.678H67.9607V299.317H61.7765V303.597H67.9607V310.54H72.4261V303.597H78.5935V299.317H72.4261ZM92.4622 299.317V292.678H87.9968V299.317H81.8126V303.597H87.9968V310.54H92.4622V303.597H98.6296V299.317H92.4622ZM112.498 299.317V292.678H108.033V299.317H101.849V303.597H108.033V310.54H112.498V303.597H118.666V299.317H112.498ZM132.534 299.317V292.678H128.069V299.317H121.885V303.597H128.069V310.54H132.534V303.597H138.702V299.317H132.534ZM152.571 299.317V292.678H148.105V299.317H141.921V303.597H148.105V310.54H152.571V303.597H158.738V299.317H152.571ZM167.4 310.287C167.4 311.152 167.692 311.877 168.276 312.461C168.86 313.045 169.652 313.337 170.652 313.337C171.641 313.337 172.427 313.051 173.011 312.478C173.606 311.893 173.904 311.163 173.904 310.287C173.904 309.411 173.612 308.675 173.028 308.08C172.455 307.484 171.663 307.187 170.652 307.187C169.63 307.187 168.832 307.49 168.259 308.096C167.686 308.692 167.4 309.422 167.4 310.287ZM192.643 299.317V292.678H188.177V299.317H181.993V303.597H188.177V310.54H192.643V303.597H198.81V299.317H192.643ZM212.679 299.317V292.678H208.213V299.317H202.029V303.597H208.213V310.54H212.679V303.597H218.846V299.317H212.679ZM232.715 299.317V292.678H228.25V299.317H222.065V303.597H228.25V310.54H232.715V303.597H238.882V299.317H232.715ZM252.751 299.317V292.678H248.286V299.317H242.101V303.597H248.286V310.54H252.751V303.597H258.918V299.317H252.751ZM272.787 299.317V292.678H268.322V299.317H262.138V303.597H268.322V310.54H272.787V303.597H278.954V299.317H272.787ZM287.616 310.287C287.616 311.152 287.908 311.877 288.493 312.461C289.077 313.045 289.869 313.337 290.869 313.337C291.857 313.337 292.643 313.051 293.228 312.478C293.823 311.893 294.121 311.163 294.121 310.287C294.121 309.411 293.829 308.675 293.244 308.08C292.672 307.484 291.88 307.187 290.869 307.187C289.846 307.187 289.049 307.49 288.476 308.096C287.903 308.692 287.616 309.422 287.616 310.287ZM303.254 310.59L318.42 304.406V300.581L303.254 294.414V298.947L312.927 302.131L313.938 302.468L312.91 302.805L303.254 306.041V310.59ZM327.689 310.287C327.689 311.152 327.981 311.877 328.565 312.461C329.149 313.045 329.941 313.337 330.941 313.337C331.929 313.337 332.716 313.051 333.3 312.478C333.895 311.893 334.193 311.163 334.193 310.287C334.193 309.411 333.901 308.675 333.317 308.08C332.744 307.484 331.952 307.187 330.941 307.187C329.918 307.187 329.121 307.49 328.548 308.096C327.975 308.692 327.689 309.422 327.689 310.287ZM358.155 310.574V306.007L348.921 302.923L347.775 302.519L348.921 302.098L358.155 298.963V294.414L343.242 300.598V304.389L358.155 310.574ZM378.191 310.574V306.007L368.957 302.923L367.811 302.519L368.957 302.098L378.191 298.963V294.414L363.279 300.598V304.389L378.191 310.574ZM398.227 310.574V306.007L388.993 302.923L387.847 302.519L388.993 302.098L398.227 298.963V294.414L383.315 300.598V304.389L398.227 310.574ZM413.04 299.317V292.678H408.574V299.317H402.39V303.597H408.574V310.54H413.04V303.597H419.207V299.317H413.04ZM433.076 299.317V292.678H428.611V299.317H422.426V303.597H428.611V310.54H433.076V303.597H439.243V299.317H433.076ZM453.112 299.317V292.678H448.647V299.317H442.462V303.597H448.647V310.54H453.112V303.597H459.279V299.317H453.112ZM475.103 288.145V284.522H467.571V318.645H475.103V315.022H472.238V288.145H475.103ZM483.579 310.59L498.745 304.406V300.581L483.579 294.414V298.947L493.252 302.131L494.263 302.468L493.235 302.805L483.579 306.041V310.59ZM503.615 310.59L518.781 304.406V300.581L503.615 294.414V298.947L513.288 302.131L514.299 302.468L513.271 302.805L503.615 306.041V310.59ZM539.727 304.069V300.278H525.69V304.069H539.727ZM559.763 304.069V300.278H545.727V304.069H559.763ZM579.799 304.069V300.278H565.763V304.069H579.799ZM599.835 304.069V300.278H585.799V304.069H599.835ZM618.625 310.574V306.007L609.39 302.923L608.245 302.519L609.39 302.098L618.625 298.963V294.414L603.712 300.598V304.389L618.625 310.574ZM638.661 310.574V306.007L629.427 302.923L628.281 302.519L629.427 302.098L638.661 298.963V294.414L623.748 300.598V304.389L638.661 310.574ZM659.944 304.069V300.278H645.907V304.069H659.944ZM667.932 284.522V288.145H670.813V315.022H667.932V318.645H675.481V284.522H667.932ZM683.94 310.59L699.106 304.406V300.581L683.94 294.414V298.947L693.613 302.131L694.624 302.468L693.596 302.805L683.94 306.041V310.59ZM703.976 310.59L719.142 304.406V300.581L703.976 294.414V298.947L713.649 302.131L714.66 302.468L713.632 302.805L703.976 306.041V310.59ZM728.411 310.287C728.411 311.152 728.703 311.877 729.287 312.461C729.871 313.045 730.663 313.337 731.663 313.337C732.651 313.337 733.438 313.051 734.022 312.478C734.617 311.893 734.915 311.163 734.915 310.287C734.915 309.411 734.623 308.675 734.039 308.08C733.466 307.484 732.674 307.187 731.663 307.187C730.64 307.187 729.843 307.49 729.27 308.096C728.697 308.692 728.411 309.422 728.411 310.287ZM758.877 310.574V306.007L749.643 302.923L748.497 302.519L749.643 302.098L758.877 298.963V294.414L743.964 300.598V304.389L758.877 310.574ZM17.5415 349.574V345.007L8.30737 341.923L7.16153 341.519L8.30737 341.098L17.5415 337.963V333.414L2.6287 339.598V343.389L17.5415 349.574ZM32.3539 338.317V331.678H27.8885V338.317H21.7043V342.597H27.8885V349.54H32.3539V342.597H38.5213V338.317H32.3539ZM52.39 338.317V331.678H47.9246V338.317H41.7404V342.597H47.9246V349.54H52.39V342.597H58.5574V338.317H52.39ZM72.4261 338.317V331.678H67.9607V338.317H61.7765V342.597H67.9607V349.54H72.4261V342.597H78.5935V338.317H72.4261ZM92.4622 338.317V331.678H87.9968V338.317H81.8126V342.597H87.9968V349.54H92.4622V342.597H98.6296V338.317H92.4622ZM114.453 327.145V323.522H106.921V357.645H114.453V354.022H111.588V327.145H114.453ZM122.93 349.59L138.095 343.406V339.581L122.93 333.414V337.947L132.602 341.131L133.613 341.468L132.585 341.805L122.93 345.041V349.59ZM142.966 349.59L158.131 343.406V339.581L142.966 333.414V337.947L152.638 341.131L153.649 341.468L152.621 341.805L142.966 345.041V349.59ZM172.607 338.317V331.678H168.141V338.317H161.957V342.597H168.141V349.54H172.607V342.597H178.774V338.317H172.607ZM192.643 338.317V331.678H188.177V338.317H181.993V342.597H188.177V349.54H192.643V342.597H198.81V338.317H192.643ZM212.679 338.317V331.678H208.213V338.317H202.029V342.597H208.213V349.54H212.679V342.597H218.846V338.317H212.679ZM232.715 338.317V331.678H228.25V338.317H222.065V342.597H228.25V349.54H232.715V342.597H238.882V338.317H232.715ZM257.975 349.574V345.007L248.741 341.923L247.595 341.519L248.741 341.098L257.975 337.963V333.414L243.062 339.598V343.389L257.975 349.574ZM278.011 349.574V345.007L268.777 341.923L267.631 341.519L268.777 341.098L278.011 337.963V333.414L263.098 339.598V343.389L278.011 349.574ZM299.294 343.069V339.278H285.257V343.069H299.294ZM307.282 323.522V327.145H310.163V354.022H307.282V357.645H314.831V323.522H307.282ZM323.291 349.59L338.456 343.406V339.581L323.291 333.414V337.947L332.963 341.131L333.974 341.468L332.946 341.805L323.291 345.041V349.59ZM343.327 349.59L358.492 343.406V339.581L343.327 333.414V337.947L352.999 341.131L354.01 341.468L352.982 341.805L343.327 345.041V349.59ZM367.761 349.287C367.761 350.152 368.053 350.877 368.637 351.461C369.221 352.045 370.013 352.337 371.013 352.337C372.002 352.337 372.788 352.051 373.372 351.478C373.967 350.893 374.265 350.163 374.265 349.287C374.265 348.411 373.973 347.675 373.389 347.08C372.816 346.484 372.024 346.187 371.013 346.187C369.991 346.187 369.193 346.49 368.62 347.096C368.047 347.692 367.761 348.422 367.761 349.287ZM398.227 349.574V345.007L388.993 341.923L387.847 341.519L388.993 341.098L398.227 337.963V333.414L383.315 339.598V343.389L398.227 349.574ZM418.264 349.574V345.007L409.029 341.923L407.884 341.519L409.029 341.098L418.264 337.963V333.414L403.351 339.598V343.389L418.264 349.574ZM433.076 338.317V331.678H428.611V338.317H422.426V342.597H428.611V349.54H433.076V342.597H439.243V338.317H433.076ZM453.112 338.317V331.678H448.647V338.317H442.462V342.597H448.647V349.54H453.112V342.597H459.279V338.317H453.112ZM473.148 338.317V331.678H468.683V338.317H462.499V342.597H468.683V349.54H473.148V342.597H479.315V338.317H473.148ZM493.184 338.317V331.678H488.719V338.317H482.535V342.597H488.719V349.54H493.184V342.597H499.352V338.317H493.184ZM515.175 327.145V323.522H507.643V357.645H515.175V354.022H512.31V327.145H515.175ZM523.652 349.59L538.817 343.406V339.581L523.652 333.414V337.947L533.324 341.131L534.335 341.468L533.307 341.805L523.652 345.041V349.59ZM543.688 349.59L558.853 343.406V339.581L543.688 333.414V337.947L553.36 341.131L554.371 341.468L553.343 341.805L543.688 345.041V349.59ZM579.799 343.069V339.278H565.763V343.069H579.799ZM599.835 343.069V339.278H585.799V343.069H599.835ZM619.871 343.069V339.278H605.835V343.069H619.871ZM639.908 343.069V339.278H625.871V343.069H639.908ZM658.697 349.574V345.007L649.463 341.923L648.317 341.519L649.463 341.098L658.697 337.963V333.414L643.784 339.598V343.389L658.697 349.574ZM678.733 349.574V345.007L669.499 341.923L668.353 341.519L669.499 341.098L678.733 337.963V333.414L663.82 339.598V343.389L678.733 349.574ZM700.016 343.069V339.278H685.979V343.069H700.016ZM708.004 323.522V327.145H710.885V354.022H708.004V357.645H715.553V323.522H708.004ZM724.013 349.59L739.178 343.406V339.581L724.013 333.414V337.947L733.685 341.131L734.696 341.468L733.668 341.805L724.013 345.041V349.59ZM744.049 349.59L759.214 343.406V339.581L744.049 333.414V337.947L753.721 341.131L754.732 341.468L753.704 341.805L744.049 345.041V349.59ZM18.7885 382.069V378.278H4.75188V382.069H18.7885ZM27.1471 388.287C27.1471 389.152 27.4392 389.877 28.0233 390.461C28.6075 391.045 29.3994 391.337 30.3993 391.337C31.3878 391.337 32.1742 391.051 32.7583 390.478C33.3537 389.893 33.6514 389.163 33.6514 388.287C33.6514 387.411 33.3593 386.675 32.7752 386.08C32.2023 385.484 31.4103 385.187 30.3993 385.187C29.377 385.187 28.5794 385.49 28.0065 386.096C27.4335 386.692 27.1471 387.422 27.1471 388.287ZM52.39 377.317V370.678H47.9246V377.317H41.7404V381.597H47.9246V388.54H52.39V381.597H58.5574V377.317H52.39ZM72.4261 377.317V370.678H67.9607V377.317H61.7765V381.597H67.9607V388.54H72.4261V381.597H78.5935V377.317H72.4261ZM92.4622 377.317V370.678H87.9968V377.317H81.8126V381.597H87.9968V388.54H92.4622V381.597H98.6296V377.317H92.4622ZM112.498 377.317V370.678H108.033V377.317H101.849V381.597H108.033V388.54H112.498V381.597H118.666V377.317H112.498ZM132.534 377.317V370.678H128.069V377.317H121.885V381.597H128.069V388.54H132.534V381.597H138.702V377.317H132.534ZM152.571 377.317V370.678H148.105V377.317H141.921V381.597H148.105V388.54H152.571V381.597H158.738V377.317H152.571ZM172.607 377.317V370.678H168.141V377.317H161.957V381.597H168.141V388.54H172.607V381.597H178.774V377.317H172.607ZM192.643 377.317V370.678H188.177V377.317H181.993V381.597H188.177V388.54H192.643V381.597H198.81V377.317H192.643ZM207.472 388.287C207.472 389.152 207.764 389.877 208.348 390.461C208.932 391.045 209.724 391.337 210.724 391.337C211.713 391.337 212.499 391.051 213.083 390.478C213.679 389.893 213.976 389.163 213.976 388.287C213.976 387.411 213.684 386.675 213.1 386.08C212.527 385.484 211.735 385.187 210.724 385.187C209.702 385.187 208.904 385.49 208.331 386.096C207.758 386.692 207.472 387.422 207.472 388.287ZM232.715 377.317V370.678H228.25V377.317H222.065V381.597H228.25V388.54H232.715V381.597H238.882V377.317H232.715ZM252.751 377.317V370.678H248.286V377.317H242.101V381.597H248.286V388.54H252.751V381.597H258.918V377.317H252.751ZM272.787 377.317V370.678H268.322V377.317H262.138V381.597H268.322V388.54H272.787V381.597H278.954V377.317H272.787ZM292.823 377.317V370.678H288.358V377.317H282.174V381.597H288.358V388.54H292.823V381.597H298.991V377.317H292.823ZM312.859 377.317V370.678H308.394V377.317H302.21V381.597H308.394V388.54H312.859V381.597H319.027V377.317H312.859ZM327.689 388.287C327.689 389.152 327.981 389.877 328.565 390.461C329.149 391.045 329.941 391.337 330.941 391.337C331.929 391.337 332.716 391.051 333.3 390.478C333.895 389.893 334.193 389.163 334.193 388.287C334.193 387.411 333.901 386.675 333.317 386.08C332.744 385.484 331.952 385.187 330.941 385.187C329.918 385.187 329.121 385.49 328.548 386.096C327.975 386.692 327.689 387.422 327.689 388.287ZM359.402 382.069V378.278H345.366V382.069H359.402ZM379.438 382.069V378.278H365.402V382.069H379.438ZM399.474 382.069V378.278H385.438V382.069H399.474ZM419.51 382.069V378.278H405.474V382.069H419.51ZM439.547 382.069V378.278H425.51V382.069H439.547ZM459.583 382.069V378.278H445.546V382.069H459.583ZM479.619 382.069V378.278H465.582V382.069H479.619ZM499.655 382.069V378.278H485.618V382.069H499.655ZM508.013 388.287C508.013 389.152 508.306 389.877 508.89 390.461C509.474 391.045 510.266 391.337 511.266 391.337C512.254 391.337 513.041 391.051 513.625 390.478C514.22 389.893 514.518 389.163 514.518 388.287C514.518 387.411 514.226 386.675 513.642 386.08C513.069 385.484 512.277 385.187 511.266 385.187C510.243 385.187 509.446 385.49 508.873 386.096C508.3 386.692 508.013 387.422 508.013 388.287ZM538.48 388.574V384.007L529.246 380.923L528.1 380.519L529.246 380.098L538.48 376.963V372.414L523.567 378.598V382.389L538.48 388.574ZM558.516 388.574V384.007L549.282 380.923L548.136 380.519L549.282 380.098L558.516 376.963V372.414L543.603 378.598V382.389L558.516 388.574ZM573.329 377.317V370.678H568.863V377.317H562.679V381.597H568.863V388.54H573.329V381.597H579.496V377.317H573.329ZM593.365 377.317V370.678H588.899V377.317H582.715V381.597H588.899V388.54H593.365V381.597H599.532V377.317H593.365ZM613.401 377.317V370.678H608.935V377.317H602.751V381.597H608.935V388.54H613.401V381.597H619.568V377.317H613.401ZM635.392 366.145V362.522H627.859V396.645H635.392V393.022H632.527V366.145H635.392ZM643.868 388.59L659.034 382.406V378.581L643.868 372.414V376.947L653.54 380.131L654.551 380.468L653.524 380.805L643.868 384.041V388.59ZM663.904 388.59L679.07 382.406V378.581L663.904 372.414V376.947L673.577 380.131L674.588 380.468L673.56 380.805L663.904 384.041V388.59ZM693.545 377.317V370.678H689.08V377.317H682.896V381.597H689.08V388.54H693.545V381.597H699.713V377.317H693.545ZM713.581 377.317V370.678H709.116V377.317H702.932V381.597H709.116V388.54H713.581V381.597H719.749V377.317H713.581ZM733.617 377.317V370.678H729.152V377.317H722.968V381.597H729.152V388.54H733.617V381.597H739.785V377.317H733.617ZM753.654 377.317V370.678H749.188V377.317H743.004V381.597H749.188V388.54H753.654V381.597H759.821V377.317H753.654ZM12.3178 416.317V409.678H7.8524V416.317H1.66821V420.597H7.8524V427.54H12.3178V420.597H18.4852V416.317H12.3178ZM37.5776 427.574V423.007L28.3435 419.923L27.1976 419.519L28.3435 419.098L37.5776 415.963V411.414L22.6648 417.598V421.389L37.5776 427.574ZM57.6137 427.574V423.007L48.3796 419.923L47.2337 419.519L48.3796 419.098L57.6137 415.963V411.414L42.7009 417.598V421.389L57.6137 427.574ZM78.8968 421.069V417.278H64.8602V421.069H78.8968ZM86.8847 401.522V405.145H89.7661V432.022H86.8847V435.645H94.4338V401.522H86.8847ZM102.893 427.59L118.059 421.406V417.581L102.893 411.414V415.947L112.566 419.131L113.577 419.468L112.549 419.805L102.893 423.041V427.59ZM122.93 427.59L138.095 421.406V417.581L122.93 411.414V415.947L132.602 419.131L133.613 419.468L132.585 419.805L122.93 423.041V427.59ZM147.364 427.287C147.364 428.152 147.656 428.877 148.24 429.461C148.824 430.045 149.616 430.337 150.616 430.337C151.604 430.337 152.391 430.051 152.975 429.478C153.57 428.893 153.868 428.163 153.868 427.287C153.868 426.411 153.576 425.675 152.992 425.08C152.419 424.484 151.627 424.187 150.616 424.187C149.594 424.187 148.796 424.49 148.223 425.096C147.65 425.692 147.364 426.422 147.364 427.287ZM177.83 427.574V423.007L168.596 419.923L167.45 419.519L168.596 419.098L177.83 415.963V411.414L162.918 417.598V421.389L177.83 427.574ZM197.866 427.574V423.007L188.632 419.923L187.486 419.519L188.632 419.098L197.866 415.963V411.414L182.954 417.598V421.389L197.866 427.574ZM212.679 416.317V409.678H208.213V416.317H202.029V420.597H208.213V427.54H212.679V420.597H218.846V416.317H212.679ZM232.715 416.317V409.678H228.25V416.317H222.065V420.597H228.25V427.54H232.715V420.597H238.882V416.317H232.715ZM252.751 416.317V409.678H248.286V416.317H242.101V420.597H248.286V427.54H252.751V420.597H258.918V416.317H252.751ZM274.742 405.145V401.522H267.21V435.645H274.742V432.022H271.877V405.145H274.742ZM283.218 427.59L298.384 421.406V417.581L283.218 411.414V415.947L292.891 419.131L293.902 419.468L292.874 419.805L283.218 423.041V427.59ZM303.254 427.59L318.42 421.406V417.581L303.254 411.414V415.947L312.927 419.131L313.938 419.468L312.91 419.805L303.254 423.041V427.59ZM339.366 421.069V417.278H325.329V421.069H339.366ZM359.402 421.069V417.278H345.366V421.069H359.402ZM379.438 421.069V417.278H365.402V421.069H379.438ZM399.474 421.069V417.278H385.438V421.069H399.474ZM419.51 421.069V417.278H405.474V421.069H419.51ZM439.547 421.069V417.278H425.51V421.069H439.547ZM458.336 427.574V423.007L449.102 419.923L447.956 419.519L449.102 419.098L458.336 415.963V411.414L443.423 417.598V421.389L458.336 427.574ZM478.372 427.574V423.007L469.138 419.923L467.992 419.519L469.138 419.098L478.372 415.963V411.414L463.459 417.598V421.389L478.372 427.574ZM499.655 421.069V417.278H485.618V421.069H499.655ZM507.643 401.522V405.145H510.524V432.022H507.643V435.645H515.192V401.522H507.643ZM523.652 427.59L538.817 421.406V417.581L523.652 411.414V415.947L533.324 419.131L534.335 419.468L533.307 419.805L523.652 423.041V427.59ZM543.688 427.59L558.853 421.406V417.581L543.688 411.414V415.947L553.36 419.131L554.371 419.468L553.343 419.805L543.688 423.041V427.59ZM568.122 427.287C568.122 428.152 568.414 428.877 568.998 429.461C569.582 430.045 570.374 430.337 571.374 430.337C572.363 430.337 573.149 430.051 573.733 429.478C574.328 428.893 574.626 428.163 574.626 427.287C574.626 426.411 574.334 425.675 573.75 425.08C573.177 424.484 572.385 424.187 571.374 424.187C570.352 424.187 569.554 424.49 568.981 425.096C568.408 425.692 568.122 426.422 568.122 427.287ZM598.588 427.574V423.007L589.354 419.923L588.208 419.519L589.354 419.098L598.588 415.963V411.414L583.676 417.598V421.389L598.588 427.574ZM618.625 427.574V423.007L609.39 419.923L608.245 419.519L609.39 419.098L618.625 415.963V411.414L603.712 417.598V421.389L618.625 427.574ZM633.437 416.317V409.678H628.972V416.317H622.787V420.597H628.972V427.54H633.437V420.597H639.604V416.317H633.437ZM653.473 416.317V409.678H649.008V416.317H642.823V420.597H649.008V427.54H653.473V420.597H659.64V416.317H653.473ZM675.464 405.145V401.522H667.932V435.645H675.464V432.022H672.599V405.145H675.464ZM683.94 427.59L699.106 421.406V417.581L683.94 411.414V415.947L693.613 419.131L694.624 419.468L693.596 419.805L683.94 423.041V427.59ZM703.976 427.59L719.142 421.406V417.581L703.976 411.414V415.947L713.649 419.131L714.66 419.468L713.632 419.805L703.976 423.041V427.59ZM733.617 416.317V409.678H729.152V416.317H722.968V420.597H729.152V427.54H733.617V420.597H739.785V416.317H733.617ZM753.654 416.317V409.678H749.188V416.317H743.004V420.597H749.188V427.54H753.654V420.597H759.821V416.317H753.654ZM12.3178 455.317V448.678H7.8524V455.317H1.66821V459.597H7.8524V466.54H12.3178V459.597H18.4852V455.317H12.3178ZM32.3539 455.317V448.678H27.8885V455.317H21.7043V459.597H27.8885V466.54H32.3539V459.597H38.5213V455.317H32.3539ZM57.6137 466.574V462.007L48.3796 458.923L47.2337 458.519L48.3796 458.098L57.6137 454.963V450.414L42.7009 456.598V460.389L57.6137 466.574ZM77.6498 466.574V462.007L68.4157 458.923L67.2698 458.519L68.4157 458.098L77.6498 454.963V450.414L62.737 456.598V460.389L77.6498 466.574ZM98.9329 460.069V456.278H84.8963V460.069H98.9329ZM106.921 440.522V444.145H109.802V471.022H106.921V474.645H114.47V440.522H106.921ZM122.93 466.59L138.095 460.406V456.581L122.93 450.414V454.947L132.602 458.131L133.613 458.468L132.585 458.805L122.93 462.041V466.59ZM142.966 466.59L158.131 460.406V456.581L142.966 450.414V454.947L152.638 458.131L153.649 458.468L152.621 458.805L142.966 462.041V466.59ZM167.4 466.287C167.4 467.152 167.692 467.877 168.276 468.461C168.86 469.045 169.652 469.337 170.652 469.337C171.641 469.337 172.427 469.051 173.011 468.478C173.606 467.893 173.904 467.163 173.904 466.287C173.904 465.411 173.612 464.675 173.028 464.08C172.455 463.484 171.663 463.187 170.652 463.187C169.63 463.187 168.832 463.49 168.259 464.096C167.686 464.692 167.4 465.422 167.4 466.287Z" fill="white" fill-opacity="0.45"/>
<path d="M204.415 225.968V208.665H219.645C221.095 208.665 222.477 208.803 223.789 209.08C225.171 209.287 226.379 209.701 227.415 210.323C228.451 210.945 229.28 211.808 229.902 212.913C230.524 214.018 230.834 215.434 230.834 217.161C230.834 220.269 229.902 222.514 228.037 223.895C226.172 225.277 223.789 225.968 220.888 225.968H204.415ZM188.149 196.025V270H223.996C227.312 270 230.524 269.586 233.632 268.757C236.809 267.928 239.606 266.65 242.024 264.923C244.51 263.197 246.479 260.986 247.929 258.293C249.38 255.53 250.105 252.283 250.105 248.554C250.105 243.926 248.965 239.989 246.686 236.743C244.476 233.427 241.091 231.113 236.533 229.801C239.848 228.212 242.335 226.175 243.992 223.688C245.719 221.202 246.582 218.093 246.582 214.364C246.582 210.91 245.995 208.009 244.821 205.661C243.716 203.312 242.127 201.447 240.055 200.066C237.983 198.616 235.497 197.58 232.596 196.958C229.695 196.336 226.483 196.025 222.96 196.025H188.149ZM204.415 257.36V237.053H222.132C225.654 237.053 228.486 237.882 230.627 239.54C232.768 241.129 233.839 243.822 233.839 247.621C233.839 249.555 233.494 251.144 232.803 252.387C232.181 253.63 231.318 254.632 230.213 255.392C229.108 256.082 227.83 256.6 226.379 256.946C224.929 257.222 223.409 257.36 221.821 257.36H204.415ZM255.399 216.436V270H270.112V245.86C270.112 243.442 270.353 241.198 270.837 239.125C271.32 237.053 272.115 235.258 273.22 233.738C274.394 232.149 275.913 230.906 277.778 230.008C279.643 229.11 281.923 228.661 284.616 228.661C285.514 228.661 286.447 228.73 287.414 228.868C288.381 228.938 289.21 229.041 289.9 229.179V215.503C288.726 215.158 287.655 214.985 286.688 214.985C284.824 214.985 283.028 215.262 281.301 215.814C279.574 216.367 277.951 217.161 276.431 218.197C274.912 219.164 273.565 220.373 272.391 221.823C271.217 223.205 270.284 224.724 269.593 226.382H269.386V216.436H255.399ZM290.902 232.909C291.11 229.456 291.973 226.589 293.492 224.31C295.012 222.031 296.946 220.2 299.294 218.819C301.643 217.437 304.267 216.47 307.168 215.918C310.138 215.296 313.108 214.985 316.079 214.985C318.772 214.985 321.501 215.193 324.263 215.607C327.026 215.952 329.547 216.678 331.827 217.783C334.106 218.888 335.971 220.442 337.421 222.445C338.872 224.379 339.597 226.969 339.597 230.215V258.085C339.597 260.503 339.735 262.817 340.011 265.027C340.288 267.237 340.771 268.895 341.462 270H326.543C326.266 269.171 326.025 268.342 325.817 267.513C325.679 266.616 325.576 265.718 325.507 264.82C323.158 267.237 320.395 268.929 317.218 269.896C314.041 270.863 310.795 271.347 307.479 271.347C304.924 271.347 302.541 271.036 300.33 270.414C298.12 269.793 296.186 268.826 294.528 267.513C292.871 266.201 291.558 264.543 290.591 262.54C289.694 260.537 289.245 258.154 289.245 255.392C289.245 252.352 289.763 249.866 290.799 247.932C291.904 245.929 293.285 244.34 294.943 243.166C296.67 241.992 298.604 241.129 300.745 240.576C302.955 239.954 305.165 239.471 307.376 239.125C309.586 238.78 311.762 238.504 313.903 238.297C316.044 238.089 317.943 237.779 319.601 237.364C321.259 236.95 322.571 236.363 323.538 235.603C324.505 234.774 324.954 233.6 324.885 232.08C324.885 230.492 324.609 229.248 324.056 228.35C323.573 227.383 322.882 226.658 321.984 226.175C321.155 225.622 320.154 225.277 318.979 225.139C317.874 224.931 316.666 224.828 315.353 224.828C312.452 224.828 310.173 225.449 308.515 226.693C306.858 227.936 305.891 230.008 305.614 232.909H290.902ZM324.885 243.788C324.263 244.34 323.469 244.789 322.502 245.135C321.604 245.411 320.603 245.653 319.497 245.86C318.461 246.067 317.356 246.24 316.182 246.378C315.008 246.516 313.834 246.689 312.66 246.896C311.554 247.103 310.449 247.379 309.344 247.725C308.308 248.07 307.376 248.554 306.547 249.175C305.787 249.728 305.165 250.453 304.682 251.351C304.198 252.249 303.957 253.389 303.957 254.77C303.957 256.082 304.198 257.187 304.682 258.085C305.165 258.983 305.822 259.708 306.65 260.261C307.479 260.745 308.446 261.09 309.551 261.297C310.656 261.504 311.796 261.608 312.97 261.608C315.871 261.608 318.116 261.124 319.705 260.157C321.293 259.19 322.468 258.051 323.227 256.738C323.987 255.357 324.436 253.976 324.574 252.594C324.781 251.213 324.885 250.108 324.885 249.279V243.788ZM361.999 208.147V196.025H347.287V208.147H361.999ZM347.287 216.436V270H361.999V216.436H347.287ZM369.439 216.436V270H384.151V241.923C384.151 236.466 385.049 232.564 386.845 230.215C388.64 227.798 391.541 226.589 395.547 226.589C399.07 226.589 401.522 227.694 402.903 229.905C404.285 232.046 404.976 235.327 404.976 239.747V270H419.688V237.053C419.688 233.738 419.377 230.733 418.755 228.04C418.203 225.277 417.201 222.963 415.751 221.098C414.3 219.164 412.297 217.679 409.741 216.643C407.255 215.538 404.043 214.985 400.106 214.985C396.998 214.985 393.959 215.711 390.989 217.161C388.019 218.542 385.601 220.787 383.736 223.895H383.426V216.436H369.439ZM429.921 226.278V270H444.633V226.278H454.786V216.436H444.633V213.224C444.633 211.014 445.048 209.46 445.876 208.562C446.774 207.595 448.225 207.111 450.228 207.111C452.093 207.111 453.889 207.215 455.615 207.422V196.44C454.372 196.371 453.094 196.302 451.782 196.233C450.47 196.095 449.157 196.025 447.845 196.025C441.836 196.025 437.346 197.545 434.376 200.584C431.406 203.623 429.921 207.526 429.921 212.292V216.436H421.115V226.278H429.921ZM476.544 208.976V196.025H468.256V208.976L456.549 204.418L453.751 212.395L465.769 216.436L458.103 226.589L465.044 231.666L472.297 220.994L479.963 231.666L486.801 226.589L479.135 216.436L491.36 212.395L488.563 204.418L476.544 208.976ZM514.591 208.976V196.025H506.303V208.976L494.595 204.418L491.798 212.395L503.816 216.436L496.149 226.589L503.091 231.666L510.343 220.994L518.01 231.666L524.848 226.589L517.181 216.436L529.407 212.395L526.61 204.418L514.591 208.976ZM534.507 196.025V270H549.219V251.558L554.917 246.067L569.629 270H587.45L564.967 236.121L585.17 216.436H567.765L549.219 235.706V196.025H534.507Z" fill="white"/>
</g>
<defs>
<clipPath id="clip0_262_42">
<rect width="770" height="462" fill="white"/>
</clipPath>
</defs>
</svg>
