<svg width="770" height="462" viewBox="0 0 770 462" fill="none" xmlns="http://www.w3.org/2000/svg">
<rect width="770" height="462" fill="#62A6FF"/>
<path d="M72.696 267.328V224.128H83.448C87.16 224.128 90.264 224.672 92.76 225.76C95.32 226.784 97.368 228.288 98.904 230.272C100.44 232.256 101.528 234.656 102.168 237.472C102.872 240.224 103.224 243.328 103.224 246.784C103.224 250.56 102.744 253.76 101.784 256.384C100.824 259.008 99.544 261.152 97.944 262.816C96.344 264.416 94.52 265.568 92.472 266.272C90.424 266.976 88.312 267.328 86.136 267.328H72.696ZM57.624 211.456V280H87.192C92.44 280 96.984 279.136 100.824 277.408C104.728 275.616 107.96 273.184 110.52 270.112C113.144 267.04 115.096 263.392 116.376 259.168C117.656 254.944 118.296 250.336 118.296 245.344C118.296 239.648 117.496 234.688 115.896 230.464C114.36 226.24 112.184 222.72 109.368 219.904C106.616 217.088 103.32 214.976 99.48 213.568C95.704 212.16 91.608 211.456 87.192 211.456H57.624ZM135.596 255.232C135.596 253.248 135.788 251.296 136.172 249.376C136.556 247.456 137.196 245.76 138.092 244.288C139.052 242.816 140.3 241.632 141.836 240.736C143.372 239.776 145.292 239.296 147.596 239.296C149.9 239.296 151.82 239.776 153.356 240.736C154.956 241.632 156.204 242.816 157.1 244.288C158.06 245.76 158.732 247.456 159.116 249.376C159.5 251.296 159.692 253.248 159.692 255.232C159.692 257.216 159.5 259.168 159.116 261.088C158.732 262.944 158.06 264.64 157.1 266.176C156.204 267.648 154.956 268.832 153.356 269.728C151.82 270.624 149.9 271.072 147.596 271.072C145.292 271.072 143.372 270.624 141.836 269.728C140.3 268.832 139.052 267.648 138.092 266.176C137.196 264.64 136.556 262.944 136.172 261.088C135.788 259.168 135.596 257.216 135.596 255.232ZM121.964 255.232C121.964 259.2 122.572 262.784 123.788 265.984C125.004 269.184 126.732 271.936 128.972 274.24C131.212 276.48 133.9 278.208 137.036 279.424C140.172 280.64 143.692 281.248 147.596 281.248C151.5 281.248 155.02 280.64 158.156 279.424C161.356 278.208 164.076 276.48 166.316 274.24C168.556 271.936 170.284 269.184 171.5 265.984C172.716 262.784 173.324 259.2 173.324 255.232C173.324 251.264 172.716 247.68 171.5 244.48C170.284 241.216 168.556 238.464 166.316 236.224C164.076 233.92 161.356 232.16 158.156 230.944C155.02 229.664 151.5 229.024 147.596 229.024C143.692 229.024 140.172 229.664 137.036 230.944C133.9 232.16 131.212 233.92 128.972 236.224C126.732 238.464 125.004 241.216 123.788 244.48C122.572 247.68 121.964 251.264 121.964 255.232ZM212.14 247.84H225.484C225.292 244.64 224.524 241.888 223.18 239.584C221.836 237.216 220.076 235.264 217.9 233.728C215.788 232.128 213.356 230.944 210.604 230.176C207.916 229.408 205.1 229.024 202.156 229.024C198.124 229.024 194.54 229.696 191.404 231.04C188.268 232.384 185.612 234.272 183.436 236.704C181.26 239.072 179.596 241.92 178.444 245.248C177.356 248.512 176.812 252.064 176.812 255.904C176.812 259.616 177.42 263.04 178.636 266.176C179.852 269.248 181.548 271.904 183.724 274.144C185.9 276.384 188.524 278.144 191.596 279.424C194.732 280.64 198.156 281.248 201.868 281.248C208.46 281.248 213.868 279.52 218.092 276.064C222.316 272.608 224.876 267.584 225.772 260.992H212.62C212.172 264.064 211.052 266.528 209.26 268.384C207.532 270.176 205.036 271.072 201.772 271.072C199.66 271.072 197.868 270.592 196.396 269.632C194.924 268.672 193.74 267.456 192.844 265.984C192.012 264.448 191.404 262.752 191.02 260.896C190.636 259.04 190.444 257.216 190.444 255.424C190.444 253.568 190.636 251.712 191.02 249.856C191.404 247.936 192.044 246.208 192.94 244.672C193.9 243.072 195.116 241.792 196.588 240.832C198.06 239.808 199.884 239.296 202.06 239.296C207.884 239.296 211.244 242.144 212.14 247.84ZM230.881 211.456V280H244.513V262.912L249.793 257.824L263.425 280H279.937L259.105 248.608L277.825 230.368H261.697L244.513 248.224V211.456H230.881ZM314.326 249.856H292.15C292.214 248.896 292.406 247.808 292.726 246.592C293.11 245.376 293.718 244.224 294.55 243.136C295.446 242.048 296.598 241.152 298.006 240.448C299.478 239.68 301.302 239.296 303.478 239.296C306.806 239.296 309.27 240.192 310.87 241.984C312.534 243.776 313.686 246.4 314.326 249.856ZM292.15 258.496H327.958C328.214 254.656 327.894 250.976 326.998 247.456C326.102 243.936 324.63 240.8 322.582 238.048C320.598 235.296 318.038 233.12 314.902 231.52C311.766 229.856 308.086 229.024 303.862 229.024C300.086 229.024 296.63 229.696 293.494 231.04C290.422 232.384 287.766 234.24 285.526 236.608C283.286 238.912 281.558 241.664 280.342 244.864C279.126 248.064 278.518 251.52 278.518 255.232C278.518 259.072 279.094 262.592 280.246 265.792C281.462 268.992 283.158 271.744 285.334 274.048C287.51 276.352 290.166 278.144 293.302 279.424C296.438 280.64 299.958 281.248 303.862 281.248C309.494 281.248 314.294 279.968 318.262 277.408C322.23 274.848 325.174 270.592 327.094 264.64H315.094C314.646 266.176 313.43 267.648 311.446 269.056C309.462 270.4 307.094 271.072 304.342 271.072C300.502 271.072 297.558 270.08 295.51 268.096C293.462 266.112 292.342 262.912 292.15 258.496ZM332.203 230.368V280H345.835V257.632C345.835 255.392 346.059 253.312 346.507 251.392C346.955 249.472 347.691 247.808 348.715 246.4C349.803 244.928 351.211 243.776 352.939 242.944C354.667 242.112 356.779 241.696 359.275 241.696C360.107 241.696 360.971 241.76 361.867 241.888C362.763 241.952 363.531 242.048 364.171 242.176V229.504C363.083 229.184 362.091 229.024 361.195 229.024C359.467 229.024 357.803 229.28 356.203 229.792C354.603 230.304 353.099 231.04 351.691 232C350.283 232.896 349.035 234.016 347.947 235.36C346.859 236.64 345.995 238.048 345.355 239.584H345.163V230.368H332.203ZM72.696 384.328V341.128H83.448C87.16 341.128 90.264 341.672 92.76 342.76C95.32 343.784 97.368 345.288 98.904 347.272C100.44 349.256 101.528 351.656 102.168 354.472C102.872 357.224 103.224 360.328 103.224 363.784C103.224 367.56 102.744 370.76 101.784 373.384C100.824 376.008 99.544 378.152 97.944 379.816C96.344 381.416 94.52 382.568 92.472 383.272C90.424 383.976 88.312 384.328 86.136 384.328H72.696ZM57.624 328.456V397H87.192C92.44 397 96.984 396.136 100.824 394.408C104.728 392.616 107.96 390.184 110.52 387.112C113.144 384.04 115.096 380.392 116.376 376.168C117.656 371.944 118.296 367.336 118.296 362.344C118.296 356.648 117.496 351.688 115.896 347.464C114.36 343.24 112.184 339.72 109.368 336.904C106.616 334.088 103.32 331.976 99.48 330.568C95.704 329.16 91.608 328.456 87.192 328.456H57.624ZM156.908 366.856H134.732C134.796 365.896 134.988 364.808 135.308 363.592C135.692 362.376 136.3 361.224 137.132 360.136C138.028 359.048 139.18 358.152 140.588 357.448C142.06 356.68 143.884 356.296 146.06 356.296C149.388 356.296 151.852 357.192 153.452 358.984C155.116 360.776 156.268 363.4 156.908 366.856ZM134.732 375.496H170.54C170.796 371.656 170.476 367.976 169.58 364.456C168.684 360.936 167.212 357.8 165.164 355.048C163.18 352.296 160.62 350.12 157.484 348.52C154.348 346.856 150.668 346.024 146.444 346.024C142.668 346.024 139.212 346.696 136.076 348.04C133.004 349.384 130.348 351.24 128.108 353.608C125.868 355.912 124.14 358.664 122.924 361.864C121.708 365.064 121.1 368.52 121.1 372.232C121.1 376.072 121.676 379.592 122.828 382.792C124.044 385.992 125.74 388.744 127.916 391.048C130.092 393.352 132.748 395.144 135.884 396.424C139.02 397.64 142.54 398.248 146.444 398.248C152.076 398.248 156.876 396.968 160.844 394.408C164.812 391.848 167.756 387.592 169.676 381.64H157.676C157.228 383.176 156.012 384.648 154.028 386.056C152.044 387.4 149.676 388.072 146.924 388.072C143.084 388.072 140.14 387.08 138.092 385.096C136.044 383.112 134.924 379.912 134.732 375.496ZM202.241 397L219.041 347.368H205.505L195.041 381.256H194.849L184.385 347.368H170.081L187.073 397H202.241ZM254.228 366.856H232.052C232.116 365.896 232.308 364.808 232.628 363.592C233.012 362.376 233.62 361.224 234.452 360.136C235.348 359.048 236.5 358.152 237.908 357.448C239.38 356.68 241.204 356.296 243.38 356.296C246.708 356.296 249.172 357.192 250.772 358.984C252.436 360.776 253.588 363.4 254.228 366.856ZM232.052 375.496H267.86C268.116 371.656 267.796 367.976 266.9 364.456C266.004 360.936 264.532 357.8 262.484 355.048C260.5 352.296 257.94 350.12 254.804 348.52C251.668 346.856 247.988 346.024 243.764 346.024C239.988 346.024 236.532 346.696 233.396 348.04C230.324 349.384 227.668 351.24 225.428 353.608C223.188 355.912 221.46 358.664 220.244 361.864C219.028 365.064 218.42 368.52 218.42 372.232C218.42 376.072 218.996 379.592 220.148 382.792C221.364 385.992 223.06 388.744 225.236 391.048C227.412 393.352 230.068 395.144 233.204 396.424C236.34 397.64 239.86 398.248 243.764 398.248C249.396 398.248 254.196 396.968 258.164 394.408C262.132 391.848 265.076 387.592 266.996 381.64H254.996C254.548 383.176 253.332 384.648 251.348 386.056C249.364 387.4 246.996 388.072 244.244 388.072C240.404 388.072 237.46 387.08 235.412 385.096C233.364 383.112 232.244 379.912 232.052 375.496ZM272.489 328.456V397H286.121V328.456H272.489ZM305.111 372.232C305.111 370.248 305.303 368.296 305.687 366.376C306.071 364.456 306.711 362.76 307.607 361.288C308.567 359.816 309.815 358.632 311.351 357.736C312.887 356.776 314.807 356.296 317.111 356.296C319.415 356.296 321.335 356.776 322.871 357.736C324.471 358.632 325.719 359.816 326.615 361.288C327.575 362.76 328.247 364.456 328.631 366.376C329.015 368.296 329.207 370.248 329.207 372.232C329.207 374.216 329.015 376.168 328.631 378.088C328.247 379.944 327.575 381.64 326.615 383.176C325.719 384.648 324.471 385.832 322.871 386.728C321.335 387.624 319.415 388.072 317.111 388.072C314.807 388.072 312.887 387.624 311.351 386.728C309.815 385.832 308.567 384.648 307.607 383.176C306.711 381.64 306.071 379.944 305.687 378.088C305.303 376.168 305.111 374.216 305.111 372.232ZM291.479 372.232C291.479 376.2 292.087 379.784 293.303 382.984C294.519 386.184 296.247 388.936 298.487 391.24C300.727 393.48 303.415 395.208 306.551 396.424C309.687 397.64 313.207 398.248 317.111 398.248C321.015 398.248 324.535 397.64 327.671 396.424C330.871 395.208 333.591 393.48 335.831 391.24C338.071 388.936 339.799 386.184 341.015 382.984C342.231 379.784 342.839 376.2 342.839 372.232C342.839 368.264 342.231 364.68 341.015 361.48C339.799 358.216 338.071 355.464 335.831 353.224C333.591 350.92 330.871 349.16 327.671 347.944C324.535 346.664 321.015 346.024 317.111 346.024C313.207 346.024 309.687 346.664 306.551 347.944C303.415 349.16 300.727 350.92 298.487 353.224C296.247 355.464 294.519 358.216 293.303 361.48C292.087 364.68 291.479 368.264 291.479 372.232ZM372.919 388.072C370.743 388.072 368.887 387.624 367.351 386.728C365.815 385.832 364.567 384.68 363.607 383.272C362.711 381.8 362.039 380.104 361.591 378.184C361.207 376.264 361.015 374.312 361.015 372.328C361.015 370.28 361.207 368.296 361.591 366.376C361.975 364.456 362.615 362.76 363.511 361.288C364.471 359.816 365.687 358.632 367.159 357.736C368.695 356.776 370.583 356.296 372.823 356.296C374.999 356.296 376.823 356.776 378.295 357.736C379.831 358.632 381.079 359.848 382.039 361.384C382.999 362.856 383.671 364.552 384.055 366.472C384.503 368.392 384.727 370.344 384.727 372.328C384.727 374.312 384.535 376.264 384.151 378.184C383.767 380.104 383.095 381.8 382.135 383.272C381.239 384.68 380.023 385.832 378.487 386.728C377.015 387.624 375.159 388.072 372.919 388.072ZM347.863 347.368V414.376H361.495V390.856H361.687C363.351 393.288 365.463 395.144 368.023 396.424C370.647 397.64 373.495 398.248 376.567 398.248C380.215 398.248 383.383 397.544 386.071 396.136C388.823 394.728 391.095 392.84 392.887 390.472C394.743 388.104 396.119 385.384 397.015 382.312C397.911 379.24 398.359 376.04 398.359 372.712C398.359 369.192 397.911 365.832 397.015 362.632C396.119 359.368 394.743 356.52 392.887 354.088C391.031 351.656 388.695 349.704 385.879 348.232C383.063 346.76 379.703 346.024 375.799 346.024C372.727 346.024 369.911 346.632 367.351 347.848C364.791 349.064 362.679 351.016 361.015 353.704H360.823V347.368H347.863ZM403.094 347.368V397H416.726V368.2C416.726 365.768 417.078 363.816 417.782 362.344C418.486 360.808 419.318 359.656 420.278 358.888C421.302 358.056 422.326 357.512 423.35 357.256C424.438 356.936 425.302 356.776 425.942 356.776C428.118 356.776 429.75 357.16 430.838 357.928C431.99 358.632 432.79 359.592 433.238 360.808C433.75 362.024 434.038 363.368 434.102 364.84C434.166 366.248 434.198 367.688 434.198 369.16V397H447.83V369.352C447.83 367.816 447.926 366.312 448.118 364.84C448.374 363.304 448.822 361.96 449.462 360.808C450.166 359.592 451.094 358.632 452.246 357.928C453.462 357.16 455.03 356.776 456.95 356.776C458.87 356.776 460.374 357.096 461.462 357.736C462.614 358.376 463.478 359.24 464.054 360.328C464.63 361.416 464.982 362.696 465.11 364.168C465.238 365.64 465.302 367.208 465.302 368.872V397H478.934V363.784C478.934 360.584 478.486 357.864 477.59 355.624C476.694 353.32 475.446 351.464 473.846 350.056C472.246 348.648 470.326 347.624 468.086 346.984C465.846 346.344 463.414 346.024 460.79 346.024C457.334 346.024 454.326 346.856 451.766 348.52C449.27 350.184 447.286 352.104 445.814 354.28C444.47 351.208 442.486 349.064 439.862 347.848C437.302 346.632 434.454 346.024 431.318 346.024C428.054 346.024 425.142 346.728 422.582 348.136C420.086 349.544 417.942 351.528 416.15 354.088H415.958V347.368H403.094ZM519.278 366.856H497.102C497.166 365.896 497.358 364.808 497.678 363.592C498.062 362.376 498.67 361.224 499.502 360.136C500.398 359.048 501.55 358.152 502.958 357.448C504.43 356.68 506.254 356.296 508.43 356.296C511.758 356.296 514.222 357.192 515.822 358.984C517.486 360.776 518.638 363.4 519.278 366.856ZM497.102 375.496H532.91C533.166 371.656 532.846 367.976 531.95 364.456C531.054 360.936 529.582 357.8 527.534 355.048C525.55 352.296 522.99 350.12 519.854 348.52C516.718 346.856 513.038 346.024 508.814 346.024C505.038 346.024 501.582 346.696 498.446 348.04C495.374 349.384 492.718 351.24 490.478 353.608C488.238 355.912 486.51 358.664 485.294 361.864C484.078 365.064 483.47 368.52 483.47 372.232C483.47 376.072 484.046 379.592 485.198 382.792C486.414 385.992 488.11 388.744 490.286 391.048C492.462 393.352 495.118 395.144 498.254 396.424C501.39 397.64 504.91 398.248 508.814 398.248C514.446 398.248 519.246 396.968 523.214 394.408C527.182 391.848 530.126 387.592 532.046 381.64H520.046C519.598 383.176 518.382 384.648 516.398 386.056C514.414 387.4 512.046 388.072 509.294 388.072C505.454 388.072 502.51 387.08 500.462 385.096C498.414 383.112 497.294 379.912 497.102 375.496ZM537.155 347.368V397H550.787V370.984C550.787 365.928 551.619 362.312 553.283 360.136C554.947 357.896 557.635 356.776 561.347 356.776C564.611 356.776 566.883 357.8 568.163 359.848C569.443 361.832 570.083 364.872 570.083 368.968V397H583.715V366.472C583.715 363.4 583.427 360.616 582.851 358.12C582.339 355.56 581.411 353.416 580.067 351.688C578.723 349.896 576.867 348.52 574.499 347.56C572.195 346.536 569.219 346.024 565.571 346.024C562.691 346.024 559.875 346.696 557.123 348.04C554.371 349.32 552.131 351.4 550.403 354.28H550.115V347.368H537.155ZM607.501 347.368V332.488H593.869V347.368H585.613V356.488H593.869V385.768C593.869 388.264 594.285 390.28 595.117 391.816C595.949 393.352 597.069 394.536 598.477 395.368C599.949 396.2 601.613 396.744 603.469 397C605.389 397.32 607.405 397.48 609.517 397.48C610.861 397.48 612.237 397.448 613.645 397.384C615.053 397.32 616.333 397.192 617.485 397V386.44C616.845 386.568 616.173 386.664 615.469 386.728C614.765 386.792 614.029 386.824 613.261 386.824C610.957 386.824 609.421 386.44 608.653 385.672C607.885 384.904 607.501 383.368 607.501 381.064V356.488H617.485V347.368H607.501Z" fill="white"/>
<path d="M629.846 104.46H647.315V122.02H629.846V104.46Z" fill="white"/>
<path d="M609.661 104.46H627.13V122.02H609.661V104.46Z" fill="white"/>
<path d="M589.476 104.46H606.945V122.02H589.476V104.46Z" fill="white"/>
<path d="M569.292 104.46H586.761V122.02H569.292V104.46Z" fill="white"/>
<path d="M549.016 104.46H566.486V122.02H549.016V104.46Z" fill="white"/>
<path d="M609.661 84.2752H627.13V101.835H609.661V84.2752Z" fill="white"/>
<path d="M609.661 64H627.13V81.5597H609.661V64Z" fill="white"/>
<path d="M589.476 84.2752H606.945V101.835H589.476V84.2752Z" fill="white"/>
<path d="M569.292 84.1846H586.761V101.744H569.292V84.1846Z" fill="white"/>
<path d="M685.443 86.0029C690.332 89.931 698.214 98.2037 696.858 108.737C703.01 105.645 713.693 104.116 722 108.91C716.785 119.091 705.319 122.133 693.39 120.909C677.625 162.679 643.265 182.732 602.143 185.076C599.401 185.232 596.63 185.309 593.832 185.309C568.378 185.309 551.991 175.604 542.169 162.493C541.136 161.115 540.175 159.685 539.291 158.207C539.232 158.109 539.173 158.01 539.115 157.911L537.641 155.215C533.187 146.46 531.237 136.23 532.271 125.122H661.806C672.448 125.122 682.84 121.151 687.773 116.771C678.935 109.584 679.81 92.5156 685.443 86.0029Z" fill="white"/>
</svg>
