<svg width="770" height="462" viewBox="0 0 770 462" fill="none" xmlns="http://www.w3.org/2000/svg">
<rect width="770" height="462" fill="white"/>
<path d="M254.601 272L274.493 198.025H258.538L246.416 249H246.209L233.569 198.025H218.339L205.492 248.378H205.284L193.577 198.025H177.311L196.892 272H213.366L225.695 221.648H225.902L238.438 272H254.601ZM306.476 239.468H282.543C282.612 238.432 282.819 237.258 283.164 235.945C283.579 234.633 284.235 233.39 285.133 232.215C286.1 231.041 287.343 230.074 288.863 229.314C290.451 228.486 292.42 228.071 294.768 228.071C298.36 228.071 301.019 229.038 302.746 230.972C304.542 232.906 305.785 235.738 306.476 239.468ZM282.543 248.792H321.188C321.464 244.648 321.119 240.677 320.152 236.878C319.185 233.079 317.596 229.694 315.386 226.724C313.245 223.754 310.482 221.406 307.097 219.679C303.713 217.883 299.741 216.985 295.183 216.985C291.107 216.985 287.378 217.711 283.993 219.161C280.678 220.612 277.811 222.615 275.394 225.17C272.976 227.657 271.112 230.627 269.799 234.08C268.487 237.534 267.831 241.264 267.831 245.27C267.831 249.414 268.452 253.213 269.696 256.666C271.008 260.12 272.838 263.09 275.187 265.576C277.535 268.063 280.402 269.997 283.786 271.378C287.17 272.691 290.969 273.347 295.183 273.347C301.261 273.347 306.441 271.965 310.724 269.203C315.006 266.44 318.183 261.847 320.255 255.423H307.305C306.821 257.081 305.509 258.669 303.368 260.189C301.226 261.639 298.671 262.365 295.701 262.365C291.556 262.365 288.379 261.294 286.169 259.153C283.959 257.012 282.75 253.558 282.543 248.792ZM326.183 198.025V272H340.895V198.025H326.183ZM384.805 237.292H399.206C398.999 233.839 398.17 230.868 396.72 228.382C395.269 225.826 393.37 223.72 391.021 222.062C388.742 220.335 386.117 219.057 383.147 218.229C380.246 217.4 377.207 216.985 374.03 216.985C369.678 216.985 365.811 217.711 362.426 219.161C359.042 220.612 356.175 222.649 353.827 225.274C351.478 227.829 349.683 230.903 348.439 234.495C347.265 238.017 346.678 241.851 346.678 245.995C346.678 250.001 347.334 253.696 348.646 257.081C349.959 260.396 351.789 263.263 354.138 265.68C356.486 268.098 359.318 269.997 362.633 271.378C366.018 272.691 369.713 273.347 373.719 273.347C380.833 273.347 386.67 271.482 391.228 267.752C395.787 264.022 398.55 258.6 399.517 251.486H385.323C384.839 254.801 383.631 257.461 381.697 259.464C379.832 261.398 377.138 262.365 373.615 262.365C371.336 262.365 369.402 261.847 367.814 260.811C366.225 259.775 364.947 258.462 363.98 256.874C363.082 255.216 362.426 253.385 362.012 251.382C361.597 249.379 361.39 247.411 361.39 245.477C361.39 243.474 361.597 241.471 362.012 239.468C362.426 237.396 363.117 235.531 364.084 233.873C365.12 232.146 366.432 230.765 368.021 229.729C369.609 228.624 371.578 228.071 373.926 228.071C380.212 228.071 383.838 231.145 384.805 237.292ZM416.738 245.27C416.738 243.129 416.945 241.022 417.36 238.95C417.774 236.878 418.465 235.047 419.432 233.459C420.468 231.87 421.815 230.592 423.473 229.625C425.13 228.589 427.202 228.071 429.689 228.071C432.175 228.071 434.248 228.589 435.905 229.625C437.632 230.592 438.979 231.87 439.946 233.459C440.982 235.047 441.707 236.878 442.122 238.95C442.536 241.022 442.743 243.129 442.743 245.27C442.743 247.411 442.536 249.518 442.122 251.59C441.707 253.593 440.982 255.423 439.946 257.081C438.979 258.669 437.632 259.947 435.905 260.914C434.248 261.881 432.175 262.365 429.689 262.365C427.202 262.365 425.13 261.881 423.473 260.914C421.815 259.947 420.468 258.669 419.432 257.081C418.465 255.423 417.774 253.593 417.36 251.59C416.945 249.518 416.738 247.411 416.738 245.27ZM402.026 245.27C402.026 249.552 402.682 253.42 403.995 256.874C405.307 260.327 407.172 263.297 409.589 265.784C412.007 268.201 414.908 270.066 418.292 271.378C421.677 272.691 425.476 273.347 429.689 273.347C433.902 273.347 437.701 272.691 441.086 271.378C444.539 270.066 447.475 268.201 449.892 265.784C452.31 263.297 454.174 260.327 455.487 256.874C456.799 253.42 457.455 249.552 457.455 245.27C457.455 240.987 456.799 237.119 455.487 233.666C454.174 230.143 452.31 227.173 449.892 224.756C447.475 222.269 444.539 220.37 441.086 219.057C437.701 217.676 433.902 216.985 429.689 216.985C425.476 216.985 421.677 217.676 418.292 219.057C414.908 220.37 412.007 222.269 409.589 224.756C407.172 227.173 405.307 230.143 403.995 233.666C402.682 237.119 402.026 240.987 402.026 245.27ZM463.291 218.436V272H478.003V240.918C478.003 238.294 478.383 236.187 479.143 234.598C479.903 232.941 480.801 231.697 481.837 230.868C482.942 229.971 484.047 229.383 485.152 229.107C486.326 228.762 487.259 228.589 487.949 228.589C490.298 228.589 492.059 229.004 493.233 229.832C494.477 230.592 495.34 231.628 495.823 232.941C496.376 234.253 496.687 235.703 496.756 237.292C496.825 238.812 496.859 240.366 496.859 241.954V272H511.571V242.162C511.571 240.504 511.675 238.881 511.882 237.292C512.159 235.634 512.642 234.184 513.333 232.941C514.093 231.628 515.094 230.592 516.337 229.832C517.65 229.004 519.342 228.589 521.414 228.589C523.486 228.589 525.109 228.935 526.284 229.625C527.527 230.316 528.459 231.248 529.081 232.423C529.703 233.597 530.082 234.978 530.221 236.567C530.359 238.155 530.428 239.848 530.428 241.643V272H545.14V236.152C545.14 232.699 544.656 229.763 543.689 227.346C542.722 224.859 541.375 222.856 539.649 221.337C537.922 219.817 535.85 218.712 533.432 218.021C531.015 217.331 528.39 216.985 525.558 216.985C521.828 216.985 518.582 217.883 515.819 219.679C513.126 221.475 510.984 223.547 509.396 225.895C507.945 222.58 505.804 220.266 502.972 218.954C500.209 217.641 497.136 216.985 493.751 216.985C490.229 216.985 487.086 217.745 484.323 219.265C481.629 220.784 479.316 222.925 477.382 225.688H477.174V218.436H463.291ZM588.68 239.468H564.747C564.816 238.432 565.023 237.258 565.369 235.945C565.783 234.633 566.439 233.39 567.337 232.215C568.304 231.041 569.548 230.074 571.067 229.314C572.656 228.486 574.624 228.071 576.973 228.071C580.564 228.071 583.224 229.038 584.95 230.972C586.746 232.906 587.989 235.738 588.68 239.468ZM564.747 248.792H603.392C603.668 244.648 603.323 240.677 602.356 236.878C601.389 233.079 599.8 229.694 597.59 226.724C595.449 223.754 592.686 221.406 589.302 219.679C585.917 217.883 581.946 216.985 577.387 216.985C573.312 216.985 569.582 217.711 566.198 219.161C562.882 220.612 560.016 222.615 557.598 225.17C555.181 227.657 553.316 230.627 552.004 234.08C550.691 237.534 550.035 241.264 550.035 245.27C550.035 249.414 550.657 253.213 551.9 256.666C553.212 260.12 555.043 263.09 557.391 265.576C559.74 268.063 562.606 269.997 565.99 271.378C569.375 272.691 573.174 273.347 577.387 273.347C583.465 273.347 588.646 271.965 592.928 269.203C597.21 266.44 600.388 261.847 602.46 255.423H589.509C589.025 257.081 587.713 258.669 585.572 260.189C583.431 261.639 580.875 262.365 577.905 262.365C573.761 262.365 570.584 261.294 568.373 259.153C566.163 257.012 564.954 253.558 564.747 248.792Z" fill="black"/>
</svg>
