<svg width="770" height="462" viewBox="0 0 770 462" fill="none" xmlns="http://www.w3.org/2000/svg">
<g clip-path="url(#clip0_131_43)">
<rect width="770" height="462" fill="white"/>
<g filter="url(#filter0_f_131_43)">
<circle cx="187.687" cy="230.037" r="156.887" fill="#9450DA"/>
</g>
<path d="M182.132 148.268C181.745 148.308 180.503 148.451 179.384 148.553C163.463 150.222 147.788 156.961 135.003 167.669C132.641 169.623 127.266 174.998 125.312 177.36C114.726 190.002 108.537 204.192 106.257 220.987C105.748 224.713 105.748 237.294 106.257 241.02C108.537 257.815 114.726 272.005 125.312 284.648C127.266 287.009 132.641 292.384 135.003 294.338C147.645 304.924 161.835 311.113 178.63 313.393C182.356 313.902 194.937 313.902 198.663 313.393C215.458 311.113 229.648 304.924 242.291 294.338C244.652 292.384 250.027 287.009 251.981 284.648C262.567 272.005 268.756 257.815 271.036 241.02C271.545 237.294 271.545 224.713 271.036 220.987C268.756 204.192 262.567 190.002 251.981 177.36C250.027 174.998 244.652 169.623 242.291 167.669C229.689 157.123 215.357 150.853 198.785 148.634C196.993 148.39 194.388 148.288 189.563 148.247C185.878 148.207 182.519 148.227 182.132 148.268ZM183.15 157.062C183.15 159.444 183.313 164.615 183.537 169.522C183.659 171.924 183.801 175.364 183.862 177.156C184.086 183.508 184.758 200.181 184.86 201.667L184.962 203.153L184.046 203.052C183.537 203.011 183.068 202.889 182.987 202.828C182.926 202.746 182.783 201.342 182.702 199.693C182.335 192.445 181.134 164.33 181.012 160.218L180.89 155.698L181.46 155.617C181.765 155.576 182.274 155.515 182.6 155.495L183.15 155.474V157.062ZM202.633 156.574C202.653 156.594 202.714 162.742 202.775 170.234C202.857 177.746 202.958 184.485 203.019 185.218C203.081 185.971 203.06 186.623 202.958 186.663C202.877 186.724 202.368 186.724 201.859 186.663L200.923 186.582L200.78 180.658C200.699 177.38 200.597 173.756 200.556 172.575C200.393 168.972 200.251 156.737 200.373 156.431C200.454 156.207 200.678 156.187 201.533 156.33C202.124 156.452 202.612 156.553 202.633 156.574ZM155.544 163.394C155.666 163.577 156.623 174.794 157.804 189.473C158.191 194.461 158.577 199.021 158.638 199.591C158.74 200.629 158.72 200.67 158.068 201.077C157.702 201.301 157.336 201.484 157.254 201.484C157.193 201.484 157.071 200.955 157.01 200.303C156.725 197.657 155.625 184.872 154.852 175.629C154.404 170.193 153.997 165.328 153.936 164.799C153.834 163.903 153.854 163.821 154.384 163.536C155.035 163.19 155.402 163.129 155.544 163.394ZM211.59 167.486C212.16 167.689 212.221 167.791 212.344 168.952C212.547 170.987 212.486 180.719 212.262 180.719C211.672 180.719 210.45 180.027 210.348 179.64C210.287 179.395 210.226 176.505 210.226 173.227C210.226 166.61 210.145 166.997 211.59 167.486ZM173.989 168.443C173.989 168.992 174.131 172.026 174.294 175.222C174.457 178.418 174.64 182.47 174.722 184.22C174.864 187.763 174.905 187.64 173.541 187.722C172.869 187.742 172.869 187.742 172.828 186.724C172.787 186.154 172.686 184.383 172.564 182.755C172.462 181.126 172.217 177.604 172.055 174.917C171.892 172.229 171.688 169.562 171.627 168.992C171.505 167.974 171.525 167.934 172.075 167.73C172.401 167.608 172.971 167.506 173.337 167.506C173.989 167.486 173.989 167.486 173.989 168.443ZM230.462 171.232L231.155 171.517L231.297 174.245C231.358 175.731 231.399 178.948 231.358 181.37L231.297 185.808L230.442 185.381L229.587 184.974L229.526 178.215C229.485 174.489 229.506 171.334 229.546 171.191C229.628 170.886 229.628 170.886 230.462 171.232ZM193.288 173.899C193.41 174.021 193.695 183.895 193.716 188.903L193.736 191.916L192.779 191.773C192.23 191.712 191.782 191.651 191.761 191.631C191.7 191.59 191.09 176.505 191.09 175.039V173.532L192.128 173.654C192.718 173.736 193.227 173.838 193.288 173.899ZM240.173 175.344C240.418 175.629 240.458 180.088 240.519 204.68C240.58 232.917 240.58 233.65 240.214 233.65C239.99 233.65 239.685 233.528 239.501 233.385C239.196 233.162 239.155 230.698 239.054 206.574C238.972 191.956 238.87 178.683 238.809 177.075L238.687 174.143L239.277 174.571C239.624 174.815 240.01 175.161 240.173 175.344ZM221.912 179.518C222.014 179.599 222.116 180.759 222.136 182.083C222.238 186.582 222.258 214.167 222.156 214.249C222.116 214.289 221.749 214.188 221.342 214.025L220.609 213.719V179.09L221.179 179.212C221.484 179.294 221.81 179.416 221.912 179.518ZM165.723 180.658C165.784 181.207 165.886 182.449 165.947 183.467C166.008 184.465 166.151 186.745 166.273 188.516C166.517 192.099 166.476 192.323 165.316 192.323C164.705 192.323 164.624 192.262 164.542 191.651C164.339 190.45 163.626 180.434 163.728 180.271C163.83 180.128 164.888 179.762 165.377 179.721C165.499 179.701 165.662 180.128 165.723 180.658ZM132.051 185.849C132.275 188.007 132.722 192.526 133.048 195.886C133.394 199.245 133.679 202.095 133.679 202.217C133.679 202.461 132.112 203.235 131.949 203.072C131.847 202.97 129.811 184.953 129.811 184.139C129.811 183.65 131.379 181.594 131.582 181.818C131.643 181.859 131.847 183.671 132.051 185.849ZM211.875 187.987L212.466 188.333L212.486 192.73C212.506 195.132 212.547 197.82 212.547 198.695C212.588 200.527 212.364 200.833 211.265 200.446L210.633 200.222V198.471C210.633 197.494 210.572 194.664 210.491 192.16L210.369 187.64H210.837C211.081 187.64 211.55 187.803 211.875 187.987ZM140.988 195.886C141.354 199.794 141.945 206.39 142.332 210.544L143.024 218.076L142.23 218.87L141.456 219.664L141.314 218.056C141.232 217.16 140.825 213.007 140.397 208.813C139.97 204.619 139.359 198.532 139.054 195.295L138.484 189.432L139.278 188.699C139.99 188.027 140.072 188.007 140.214 188.373C140.296 188.577 140.642 191.956 140.988 195.886ZM125.74 198.349C126.187 202.36 127.368 213.027 128.386 222.046C129.404 231.065 130.361 239.758 130.544 241.386C130.707 243.015 130.992 245.478 131.155 246.883C131.44 249.265 131.44 249.428 131.114 249.672C130.626 250.039 130.422 249.998 130.422 249.57C130.422 249.387 130.239 247.84 130.015 246.17C129.648 243.381 129.038 238.658 127.674 228.052C127.389 225.914 126.839 221.659 126.452 218.585C126.045 215.511 125.455 210.93 125.129 208.406C124.803 205.881 124.253 201.566 123.907 198.776C123.541 196.008 123.317 193.544 123.378 193.28C123.521 192.73 124.722 190.816 124.844 190.939C124.885 191 125.292 194.318 125.74 198.349ZM119.51 207.123C119.815 209.566 120.385 214.025 120.772 217.058C121.159 220.071 121.648 223.837 121.871 225.405L122.258 228.255L121.831 228.622C121.586 228.825 121.342 228.907 121.261 228.825C121.179 228.744 121.016 227.929 120.894 227.034C120.772 226.138 120.019 220.906 119.205 215.429L117.759 205.454L118.227 204.07C118.472 203.316 118.736 202.706 118.797 202.706C118.879 202.706 119.184 204.701 119.51 207.123ZM231.277 204.456C231.562 204.741 231.602 206.004 231.602 215.348V225.914H231.032C229.791 225.914 229.811 226.219 229.729 214.656L229.668 204.131H230.32C230.666 204.131 231.114 204.273 231.277 204.456ZM186.713 208.101C191.313 208.793 195.324 210.075 199.294 212.111C201.859 213.434 203.081 214.351 205.931 217.079C210.165 221.13 212.771 224.672 215.214 229.68C218.777 236.969 220.161 243.422 221.912 260.727C222.706 268.483 223.744 282.551 223.968 288.312C224.029 289.981 224.172 292.73 224.294 294.419C224.518 298.003 224.782 297.514 221.627 299.041C217.25 301.158 213.036 302.624 207.478 303.988C200.678 305.657 196.281 306.187 189.563 306.207L184.677 306.227L184.717 303.886C184.717 302.604 184.84 299.611 184.962 297.27C185.572 285.93 185.45 271.618 184.656 263.679C184.208 259.118 183.333 253.581 182.844 252.359C182.743 252.095 183.211 251.871 185.226 251.179C188.911 249.896 192.107 248.288 192.596 247.494C193.471 245.987 191.904 243.829 189.909 243.829C189.563 243.829 188.524 244.196 187.568 244.623C183.007 246.72 173.866 249.183 168.594 249.733C164.95 250.12 159.29 249.896 155.361 249.183C153.223 248.797 149.396 247.351 146.2 245.702C142.515 243.789 140.255 241.244 139.583 238.231C139.217 236.602 139.319 233.345 139.787 231.513C140.296 229.497 141.721 226.565 143.024 224.855C148.826 217.221 160.796 210.605 173.072 208.284C176.981 207.551 182.519 207.469 186.713 208.101ZM249.518 208.732C250.251 209.037 250.332 209.118 250.332 209.811C250.373 215.368 250.251 228.072 250.149 228.601C250.128 228.785 249.07 228.805 248.622 228.642C248.337 228.54 248.296 227.441 248.296 218.463C248.296 212.03 248.378 208.406 248.5 208.406C248.602 208.406 249.07 208.548 249.518 208.732ZM258.414 219.908L259.147 220.214L259.005 237.07C258.842 258.548 258.821 259.179 258.048 261.032C256.786 264.065 256.847 264.676 256.969 251.362C257.01 244.705 257.111 237.966 257.152 236.398C257.193 234.831 257.233 230.413 257.254 226.565C257.254 221.924 257.315 219.603 257.457 219.603C257.58 219.603 258.007 219.745 258.414 219.908ZM135.98 224.978C136.102 226.627 136.061 226.789 135.471 228.092L134.819 229.477L134.575 227.441C134.188 224.184 134.188 224.041 134.962 223.552C135.308 223.308 135.674 223.145 135.735 223.186C135.797 223.227 135.919 224.041 135.98 224.978ZM123.398 237.254C123.582 238.923 125.007 249.998 125.74 255.433C126.839 263.841 126.92 265.043 126.432 264.534C126.371 264.473 125.902 261.643 125.414 258.243C122.238 236.297 122.258 236.439 122.523 236.276C123.073 235.91 123.256 236.113 123.398 237.254ZM138.056 246.578C138.178 247.087 138.769 252.604 138.769 253.275C138.769 253.846 138.036 254.375 137.71 254.049C137.608 253.947 137.344 252.217 137.14 250.222C136.916 248.206 136.692 246.109 136.631 245.56L136.509 244.542L137.222 245.356C137.629 245.804 137.995 246.354 138.056 246.578ZM154.485 254.253C154.709 254.456 154.852 255.271 155.035 257.469C155.34 261.439 155.381 261.134 154.546 261.134C153.691 261.134 153.712 261.195 153.427 257.612C153.142 253.968 153.142 254.008 153.691 254.008C153.956 254.008 154.302 254.131 154.485 254.253ZM170.609 254.558C170.65 254.762 170.752 255.983 170.833 257.266C170.894 258.548 171.077 261.439 171.24 263.679C171.81 271.903 171.831 272.942 171.485 272.942C171.098 272.942 171.057 272.636 170.609 266.834C170.446 264.432 170.141 260.645 169.937 258.426C169.754 256.207 169.632 254.354 169.693 254.314C169.917 254.069 170.507 254.253 170.609 254.558ZM132.336 258.467C132.458 258.65 133.231 265.165 134.188 274.061C134.473 276.749 134.758 279.334 134.819 279.823L134.921 280.698L134.412 280.372C134.025 280.108 133.883 279.843 133.883 279.375C133.883 278.092 133.007 269.644 132.336 264.473C131.949 261.541 131.643 258.955 131.643 258.711C131.643 258.284 132.132 258.121 132.336 258.467ZM249.823 266.977L249.681 275.486L249.172 276.24C248.011 277.95 248.072 278.275 248.133 268.748L248.174 260.014L248.927 259.24C249.334 258.833 249.742 258.487 249.823 258.487C249.884 258.487 249.884 262.315 249.823 266.977ZM230.992 280.474C231.093 292.302 231.073 293.218 230.747 293.585C230.544 293.809 230.361 293.951 230.3 293.89C230.157 293.727 229.953 267.933 230.116 267.791C230.198 267.709 230.401 267.669 230.585 267.689C230.849 267.75 230.91 269.196 230.992 280.474ZM164.502 272.372C164.644 273.634 165.153 279.68 165.357 282.53C165.479 284.444 165.479 284.505 165.031 284.648C164.787 284.729 164.502 284.709 164.42 284.607C164.278 284.464 163.83 279.945 163.28 272.982L163.138 271.313H163.769C164.359 271.313 164.4 271.354 164.502 272.372ZM148.5 279.497C148.643 279.639 148.744 280.148 148.744 280.657C148.744 281.187 148.989 283.935 149.253 286.785C150.027 294.582 150.088 295.641 149.742 295.437C149.213 295.132 148.744 294.664 148.846 294.542C148.887 294.46 148.805 293.442 148.643 292.282C148.5 291.101 148.317 289.187 148.235 288.007C148.154 286.826 147.971 284.668 147.808 283.222C147.421 279.66 147.441 279.253 147.889 279.253C148.093 279.253 148.358 279.354 148.5 279.497ZM158.13 293.198C158.191 293.646 158.313 295.315 158.394 296.903C158.537 299.957 158.476 300.181 157.641 299.55C157.397 299.367 157.234 298.593 156.989 296.272C156.562 292.078 156.542 292.241 157.336 292.323C157.926 292.384 158.007 292.465 158.13 293.198Z" fill="black"/>
<path d="M150.862 217.852C148.744 218.768 148.582 221.639 150.577 222.657C152.022 223.39 153.488 223.043 154.241 221.781C155.666 219.46 153.345 216.773 150.862 217.852Z" fill="black"/>
<path d="M164.665 219.807C162.71 221.008 162.71 223.899 164.665 225.1C166.599 226.26 169.103 224.733 169.103 222.412C169.103 220.173 166.537 218.666 164.665 219.807Z" fill="black"/>
<path d="M345.191 262.534V206.401H359.162C363.985 206.401 368.019 207.108 371.262 208.522C374.588 209.852 377.249 211.807 379.245 214.385C381.241 216.963 382.655 220.081 383.486 223.74C384.401 227.316 384.859 231.349 384.859 235.84C384.859 240.746 384.235 244.904 382.987 248.314C381.74 251.724 380.077 254.509 377.998 256.672C375.919 258.751 373.549 260.247 370.888 261.162C368.227 262.077 365.482 262.534 362.655 262.534H345.191ZM325.607 189.936V279H364.027C370.846 279 376.75 277.877 381.74 275.632C386.813 273.304 391.012 270.143 394.339 266.152C397.748 262.16 400.285 257.42 401.948 251.931C403.611 246.443 404.443 240.455 404.443 233.969C404.443 226.568 403.403 220.123 401.324 214.634C399.328 209.146 396.501 204.572 392.842 200.913C389.266 197.254 384.983 194.509 379.994 192.68C375.087 190.85 369.765 189.936 364.027 189.936H325.607ZM413.076 189.936V279H480.685V262.534H432.66V240.705H475.82V225.487H432.66V206.401H479.687V189.936H413.076ZM488.973 189.936V279H507.309V219.374H507.559L544.607 279H564.191V189.936H545.854V249.686H545.605L508.432 189.936H488.973ZM592.159 234.842C592.159 230.934 592.575 227.15 593.406 223.491C594.321 219.832 595.735 216.588 597.647 213.761C599.56 210.85 602.055 208.563 605.132 206.9C608.209 205.154 611.951 204.281 616.358 204.281C620.766 204.281 624.508 205.154 627.585 206.9C630.662 208.563 633.157 210.85 635.069 213.761C636.982 216.588 638.354 219.832 639.186 223.491C640.101 227.15 640.558 230.934 640.558 234.842C640.558 238.584 640.101 242.243 639.186 245.819C638.354 249.312 636.982 252.472 635.069 255.299C633.157 258.127 630.662 260.414 627.585 262.16C624.508 263.823 620.766 264.655 616.358 264.655C611.951 264.655 608.209 263.823 605.132 262.16C602.055 260.414 599.56 258.127 597.647 255.299C595.735 252.472 594.321 249.312 593.406 245.819C592.575 242.243 592.159 238.584 592.159 234.842ZM572.575 234.842C572.575 241.329 573.573 247.399 575.569 253.054C577.564 258.626 580.433 263.491 584.176 267.649C587.918 271.807 592.492 275.091 597.897 277.503C603.386 279.832 609.539 280.996 616.358 280.996C623.261 280.996 629.415 279.832 634.82 277.503C640.225 275.091 644.799 271.807 648.541 267.649C652.284 263.491 655.153 258.626 657.148 253.054C659.144 247.399 660.142 241.329 660.142 234.842C660.142 228.189 659.144 222.035 657.148 216.381C655.153 210.642 652.284 205.653 648.541 201.412C644.799 197.171 640.225 193.844 634.82 191.433C629.415 189.021 623.261 187.815 616.358 187.815C609.539 187.815 603.386 189.021 597.897 191.433C592.492 193.844 587.918 197.171 584.176 201.412C580.433 205.653 577.564 210.642 575.569 216.381C573.573 222.035 572.575 228.189 572.575 234.842Z" fill="black"/>
</g>
<defs>
<filter id="filter0_f_131_43" x="-444.675" y="-402.325" width="1264.72" height="1264.72" filterUnits="userSpaceOnUse" color-interpolation-filters="sRGB">
<feFlood flood-opacity="0" result="BackgroundImageFix"/>
<feBlend mode="normal" in="SourceGraphic" in2="BackgroundImageFix" result="shape"/>
<feGaussianBlur stdDeviation="237.738" result="effect1_foregroundBlur_131_43"/>
</filter>
<clipPath id="clip0_131_43">
<rect width="770" height="462" fill="white"/>
</clipPath>
</defs>
</svg>
