<svg width="770" height="462" viewBox="0 0 770 462" fill="none" xmlns="http://www.w3.org/2000/svg">
<rect width="770" height="462" fill="#62A6FF"/>
<path d="M69.696 246.328V203.128H80.448C84.16 203.128 87.264 203.672 89.76 204.76C92.32 205.784 94.368 207.288 95.904 209.272C97.44 211.256 98.528 213.656 99.168 216.472C99.872 219.224 100.224 222.328 100.224 225.784C100.224 229.56 99.744 232.76 98.784 235.384C97.824 238.008 96.544 240.152 94.944 241.816C93.344 243.416 91.52 244.568 89.472 245.272C87.424 245.976 85.312 246.328 83.136 246.328H69.696ZM54.624 190.456V259H84.192C89.44 259 93.984 258.136 97.824 256.408C101.728 254.616 104.96 252.184 107.52 249.112C110.144 246.04 112.096 242.392 113.376 238.168C114.656 233.944 115.296 229.336 115.296 224.344C115.296 218.648 114.496 213.688 112.896 209.464C111.36 205.24 109.184 201.72 106.368 198.904C103.616 196.088 100.32 193.976 96.48 192.568C92.704 191.16 88.608 190.456 84.192 190.456H54.624ZM132.596 234.232C132.596 232.248 132.788 230.296 133.172 228.376C133.556 226.456 134.196 224.76 135.092 223.288C136.052 221.816 137.3 220.632 138.836 219.736C140.372 218.776 142.292 218.296 144.596 218.296C146.9 218.296 148.82 218.776 150.356 219.736C151.956 220.632 153.204 221.816 154.1 223.288C155.06 224.76 155.732 226.456 156.116 228.376C156.5 230.296 156.692 232.248 156.692 234.232C156.692 236.216 156.5 238.168 156.116 240.088C155.732 241.944 155.06 243.64 154.1 245.176C153.204 246.648 151.956 247.832 150.356 248.728C148.82 249.624 146.9 250.072 144.596 250.072C142.292 250.072 140.372 249.624 138.836 248.728C137.3 247.832 136.052 246.648 135.092 245.176C134.196 243.64 133.556 241.944 133.172 240.088C132.788 238.168 132.596 236.216 132.596 234.232ZM118.964 234.232C118.964 238.2 119.572 241.784 120.788 244.984C122.004 248.184 123.732 250.936 125.972 253.24C128.212 255.48 130.9 257.208 134.036 258.424C137.172 259.64 140.692 260.248 144.596 260.248C148.5 260.248 152.02 259.64 155.156 258.424C158.356 257.208 161.076 255.48 163.316 253.24C165.556 250.936 167.284 248.184 168.5 244.984C169.716 241.784 170.324 238.2 170.324 234.232C170.324 230.264 169.716 226.68 168.5 223.48C167.284 220.216 165.556 217.464 163.316 215.224C161.076 212.92 158.356 211.16 155.156 209.944C152.02 208.664 148.5 208.024 144.596 208.024C140.692 208.024 137.172 208.664 134.036 209.944C130.9 211.16 128.212 212.92 125.972 215.224C123.732 217.464 122.004 220.216 120.788 223.48C119.572 226.68 118.964 230.264 118.964 234.232ZM209.14 226.84H222.484C222.292 223.64 221.524 220.888 220.18 218.584C218.836 216.216 217.076 214.264 214.9 212.728C212.788 211.128 210.356 209.944 207.604 209.176C204.916 208.408 202.1 208.024 199.156 208.024C195.124 208.024 191.54 208.696 188.404 210.04C185.268 211.384 182.612 213.272 180.436 215.704C178.26 218.072 176.596 220.92 175.444 224.248C174.356 227.512 173.812 231.064 173.812 234.904C173.812 238.616 174.42 242.04 175.636 245.176C176.852 248.248 178.548 250.904 180.724 253.144C182.9 255.384 185.524 257.144 188.596 258.424C191.732 259.64 195.156 260.248 198.868 260.248C205.46 260.248 210.868 258.52 215.092 255.064C219.316 251.608 221.876 246.584 222.772 239.992H209.62C209.172 243.064 208.052 245.528 206.26 247.384C204.532 249.176 202.036 250.072 198.772 250.072C196.66 250.072 194.868 249.592 193.396 248.632C191.924 247.672 190.74 246.456 189.844 244.984C189.012 243.448 188.404 241.752 188.02 239.896C187.636 238.04 187.444 236.216 187.444 234.424C187.444 232.568 187.636 230.712 188.02 228.856C188.404 226.936 189.044 225.208 189.94 223.672C190.9 222.072 192.116 220.792 193.588 219.832C195.06 218.808 196.884 218.296 199.06 218.296C204.884 218.296 208.244 221.144 209.14 226.84ZM227.881 190.456V259H241.513V241.912L246.793 236.824L260.425 259H276.937L256.105 227.608L274.825 209.368H258.697L241.513 227.224V190.456H227.881ZM311.326 228.856H289.15C289.214 227.896 289.406 226.808 289.726 225.592C290.11 224.376 290.718 223.224 291.55 222.136C292.446 221.048 293.598 220.152 295.006 219.448C296.478 218.68 298.302 218.296 300.478 218.296C303.806 218.296 306.27 219.192 307.87 220.984C309.534 222.776 310.686 225.4 311.326 228.856ZM289.15 237.496H324.958C325.214 233.656 324.894 229.976 323.998 226.456C323.102 222.936 321.63 219.8 319.582 217.048C317.598 214.296 315.038 212.12 311.902 210.52C308.766 208.856 305.086 208.024 300.862 208.024C297.086 208.024 293.63 208.696 290.494 210.04C287.422 211.384 284.766 213.24 282.526 215.608C280.286 217.912 278.558 220.664 277.342 223.864C276.126 227.064 275.518 230.52 275.518 234.232C275.518 238.072 276.094 241.592 277.246 244.792C278.462 247.992 280.158 250.744 282.334 253.048C284.51 255.352 287.166 257.144 290.302 258.424C293.438 259.64 296.958 260.248 300.862 260.248C306.494 260.248 311.294 258.968 315.262 256.408C319.23 253.848 322.174 249.592 324.094 243.64H312.094C311.646 245.176 310.43 246.648 308.446 248.056C306.462 249.4 304.094 250.072 301.342 250.072C297.502 250.072 294.558 249.08 292.51 247.096C290.462 245.112 289.342 241.912 289.15 237.496ZM329.203 209.368V259H342.835V236.632C342.835 234.392 343.059 232.312 343.507 230.392C343.955 228.472 344.691 226.808 345.715 225.4C346.803 223.928 348.211 222.776 349.939 221.944C351.667 221.112 353.779 220.696 356.275 220.696C357.107 220.696 357.971 220.76 358.867 220.888C359.763 220.952 360.531 221.048 361.171 221.176V208.504C360.083 208.184 359.091 208.024 358.195 208.024C356.467 208.024 354.803 208.28 353.203 208.792C351.603 209.304 350.099 210.04 348.691 211C347.283 211.896 346.035 213.016 344.947 214.36C343.859 215.64 342.995 217.048 342.355 218.584H342.163V209.368H329.203ZM69.696 363.328V320.128H80.448C84.16 320.128 87.264 320.672 89.76 321.76C92.32 322.784 94.368 324.288 95.904 326.272C97.44 328.256 98.528 330.656 99.168 333.472C99.872 336.224 100.224 339.328 100.224 342.784C100.224 346.56 99.744 349.76 98.784 352.384C97.824 355.008 96.544 357.152 94.944 358.816C93.344 360.416 91.52 361.568 89.472 362.272C87.424 362.976 85.312 363.328 83.136 363.328H69.696ZM54.624 307.456V376H84.192C89.44 376 93.984 375.136 97.824 373.408C101.728 371.616 104.96 369.184 107.52 366.112C110.144 363.04 112.096 359.392 113.376 355.168C114.656 350.944 115.296 346.336 115.296 341.344C115.296 335.648 114.496 330.688 112.896 326.464C111.36 322.24 109.184 318.72 106.368 315.904C103.616 313.088 100.32 310.976 96.48 309.568C92.704 308.16 88.608 307.456 84.192 307.456H54.624ZM153.908 345.856H131.732C131.796 344.896 131.988 343.808 132.308 342.592C132.692 341.376 133.3 340.224 134.132 339.136C135.028 338.048 136.18 337.152 137.588 336.448C139.06 335.68 140.884 335.296 143.06 335.296C146.388 335.296 148.852 336.192 150.452 337.984C152.116 339.776 153.268 342.4 153.908 345.856ZM131.732 354.496H167.54C167.796 350.656 167.476 346.976 166.58 343.456C165.684 339.936 164.212 336.8 162.164 334.048C160.18 331.296 157.62 329.12 154.484 327.52C151.348 325.856 147.668 325.024 143.444 325.024C139.668 325.024 136.212 325.696 133.076 327.04C130.004 328.384 127.348 330.24 125.108 332.608C122.868 334.912 121.14 337.664 119.924 340.864C118.708 344.064 118.1 347.52 118.1 351.232C118.1 355.072 118.676 358.592 119.828 361.792C121.044 364.992 122.74 367.744 124.916 370.048C127.092 372.352 129.748 374.144 132.884 375.424C136.02 376.64 139.54 377.248 143.444 377.248C149.076 377.248 153.876 375.968 157.844 373.408C161.812 370.848 164.756 366.592 166.676 360.64H154.676C154.228 362.176 153.012 363.648 151.028 365.056C149.044 366.4 146.676 367.072 143.924 367.072C140.084 367.072 137.14 366.08 135.092 364.096C133.044 362.112 131.924 358.912 131.732 354.496ZM199.241 376L216.041 326.368H202.505L192.041 360.256H191.849L181.385 326.368H167.081L184.073 376H199.241ZM251.228 345.856H229.052C229.116 344.896 229.308 343.808 229.628 342.592C230.012 341.376 230.62 340.224 231.452 339.136C232.348 338.048 233.5 337.152 234.908 336.448C236.38 335.68 238.204 335.296 240.38 335.296C243.708 335.296 246.172 336.192 247.772 337.984C249.436 339.776 250.588 342.4 251.228 345.856ZM229.052 354.496H264.86C265.116 350.656 264.796 346.976 263.9 343.456C263.004 339.936 261.532 336.8 259.484 334.048C257.5 331.296 254.94 329.12 251.804 327.52C248.668 325.856 244.988 325.024 240.764 325.024C236.988 325.024 233.532 325.696 230.396 327.04C227.324 328.384 224.668 330.24 222.428 332.608C220.188 334.912 218.46 337.664 217.244 340.864C216.028 344.064 215.42 347.52 215.42 351.232C215.42 355.072 215.996 358.592 217.148 361.792C218.364 364.992 220.06 367.744 222.236 370.048C224.412 372.352 227.068 374.144 230.204 375.424C233.34 376.64 236.86 377.248 240.764 377.248C246.396 377.248 251.196 375.968 255.164 373.408C259.132 370.848 262.076 366.592 263.996 360.64H251.996C251.548 362.176 250.332 363.648 248.348 365.056C246.364 366.4 243.996 367.072 241.244 367.072C237.404 367.072 234.46 366.08 232.412 364.096C230.364 362.112 229.244 358.912 229.052 354.496ZM269.489 307.456V376H283.121V307.456H269.489ZM302.111 351.232C302.111 349.248 302.303 347.296 302.687 345.376C303.071 343.456 303.711 341.76 304.607 340.288C305.567 338.816 306.815 337.632 308.351 336.736C309.887 335.776 311.807 335.296 314.111 335.296C316.415 335.296 318.335 335.776 319.871 336.736C321.471 337.632 322.719 338.816 323.615 340.288C324.575 341.76 325.247 343.456 325.631 345.376C326.015 347.296 326.207 349.248 326.207 351.232C326.207 353.216 326.015 355.168 325.631 357.088C325.247 358.944 324.575 360.64 323.615 362.176C322.719 363.648 321.471 364.832 319.871 365.728C318.335 366.624 316.415 367.072 314.111 367.072C311.807 367.072 309.887 366.624 308.351 365.728C306.815 364.832 305.567 363.648 304.607 362.176C303.711 360.64 303.071 358.944 302.687 357.088C302.303 355.168 302.111 353.216 302.111 351.232ZM288.479 351.232C288.479 355.2 289.087 358.784 290.303 361.984C291.519 365.184 293.247 367.936 295.487 370.24C297.727 372.48 300.415 374.208 303.551 375.424C306.687 376.64 310.207 377.248 314.111 377.248C318.015 377.248 321.535 376.64 324.671 375.424C327.871 374.208 330.591 372.48 332.831 370.24C335.071 367.936 336.799 365.184 338.015 361.984C339.231 358.784 339.839 355.2 339.839 351.232C339.839 347.264 339.231 343.68 338.015 340.48C336.799 337.216 335.071 334.464 332.831 332.224C330.591 329.92 327.871 328.16 324.671 326.944C321.535 325.664 318.015 325.024 314.111 325.024C310.207 325.024 306.687 325.664 303.551 326.944C300.415 328.16 297.727 329.92 295.487 332.224C293.247 334.464 291.519 337.216 290.303 340.48C289.087 343.68 288.479 347.264 288.479 351.232ZM369.919 367.072C367.743 367.072 365.887 366.624 364.351 365.728C362.815 364.832 361.567 363.68 360.607 362.272C359.711 360.8 359.039 359.104 358.591 357.184C358.207 355.264 358.015 353.312 358.015 351.328C358.015 349.28 358.207 347.296 358.591 345.376C358.975 343.456 359.615 341.76 360.511 340.288C361.471 338.816 362.687 337.632 364.159 336.736C365.695 335.776 367.583 335.296 369.823 335.296C371.999 335.296 373.823 335.776 375.295 336.736C376.831 337.632 378.079 338.848 379.039 340.384C379.999 341.856 380.671 343.552 381.055 345.472C381.503 347.392 381.727 349.344 381.727 351.328C381.727 353.312 381.535 355.264 381.151 357.184C380.767 359.104 380.095 360.8 379.135 362.272C378.239 363.68 377.023 364.832 375.487 365.728C374.015 366.624 372.159 367.072 369.919 367.072ZM344.863 326.368V393.376H358.495V369.856H358.687C360.351 372.288 362.463 374.144 365.023 375.424C367.647 376.64 370.495 377.248 373.567 377.248C377.215 377.248 380.383 376.544 383.071 375.136C385.823 373.728 388.095 371.84 389.887 369.472C391.743 367.104 393.119 364.384 394.015 361.312C394.911 358.24 395.359 355.04 395.359 351.712C395.359 348.192 394.911 344.832 394.015 341.632C393.119 338.368 391.743 335.52 389.887 333.088C388.031 330.656 385.695 328.704 382.879 327.232C380.063 325.76 376.703 325.024 372.799 325.024C369.727 325.024 366.911 325.632 364.351 326.848C361.791 328.064 359.679 330.016 358.015 332.704H357.823V326.368H344.863ZM400.094 326.368V376H413.726V347.2C413.726 344.768 414.078 342.816 414.782 341.344C415.486 339.808 416.318 338.656 417.278 337.888C418.302 337.056 419.326 336.512 420.35 336.256C421.438 335.936 422.302 335.776 422.942 335.776C425.118 335.776 426.75 336.16 427.838 336.928C428.99 337.632 429.79 338.592 430.238 339.808C430.75 341.024 431.038 342.368 431.102 343.84C431.166 345.248 431.198 346.688 431.198 348.16V376H444.83V348.352C444.83 346.816 444.926 345.312 445.118 343.84C445.374 342.304 445.822 340.96 446.462 339.808C447.166 338.592 448.094 337.632 449.246 336.928C450.462 336.16 452.03 335.776 453.95 335.776C455.87 335.776 457.374 336.096 458.462 336.736C459.614 337.376 460.478 338.24 461.054 339.328C461.63 340.416 461.982 341.696 462.11 343.168C462.238 344.64 462.302 346.208 462.302 347.872V376H475.934V342.784C475.934 339.584 475.486 336.864 474.59 334.624C473.694 332.32 472.446 330.464 470.846 329.056C469.246 327.648 467.326 326.624 465.086 325.984C462.846 325.344 460.414 325.024 457.79 325.024C454.334 325.024 451.326 325.856 448.766 327.52C446.27 329.184 444.286 331.104 442.814 333.28C441.47 330.208 439.486 328.064 436.862 326.848C434.302 325.632 431.454 325.024 428.318 325.024C425.054 325.024 422.142 325.728 419.582 327.136C417.086 328.544 414.942 330.528 413.15 333.088H412.958V326.368H400.094ZM516.278 345.856H494.102C494.166 344.896 494.358 343.808 494.678 342.592C495.062 341.376 495.67 340.224 496.502 339.136C497.398 338.048 498.55 337.152 499.958 336.448C501.43 335.68 503.254 335.296 505.43 335.296C508.758 335.296 511.222 336.192 512.822 337.984C514.486 339.776 515.638 342.4 516.278 345.856ZM494.102 354.496H529.91C530.166 350.656 529.846 346.976 528.95 343.456C528.054 339.936 526.582 336.8 524.534 334.048C522.55 331.296 519.99 329.12 516.854 327.52C513.718 325.856 510.038 325.024 505.814 325.024C502.038 325.024 498.582 325.696 495.446 327.04C492.374 328.384 489.718 330.24 487.478 332.608C485.238 334.912 483.51 337.664 482.294 340.864C481.078 344.064 480.47 347.52 480.47 351.232C480.47 355.072 481.046 358.592 482.198 361.792C483.414 364.992 485.11 367.744 487.286 370.048C489.462 372.352 492.118 374.144 495.254 375.424C498.39 376.64 501.91 377.248 505.814 377.248C511.446 377.248 516.246 375.968 520.214 373.408C524.182 370.848 527.126 366.592 529.046 360.64H517.046C516.598 362.176 515.382 363.648 513.398 365.056C511.414 366.4 509.046 367.072 506.294 367.072C502.454 367.072 499.51 366.08 497.462 364.096C495.414 362.112 494.294 358.912 494.102 354.496ZM534.155 326.368V376H547.787V349.984C547.787 344.928 548.619 341.312 550.283 339.136C551.947 336.896 554.635 335.776 558.347 335.776C561.611 335.776 563.883 336.8 565.163 338.848C566.443 340.832 567.083 343.872 567.083 347.968V376H580.715V345.472C580.715 342.4 580.427 339.616 579.851 337.12C579.339 334.56 578.411 332.416 577.067 330.688C575.723 328.896 573.867 327.52 571.499 326.56C569.195 325.536 566.219 325.024 562.571 325.024C559.691 325.024 556.875 325.696 554.123 327.04C551.371 328.32 549.131 330.4 547.403 333.28H547.115V326.368H534.155ZM604.501 326.368V311.488H590.869V326.368H582.613V335.488H590.869V364.768C590.869 367.264 591.285 369.28 592.117 370.816C592.949 372.352 594.069 373.536 595.477 374.368C596.949 375.2 598.613 375.744 600.469 376C602.389 376.32 604.405 376.48 606.517 376.48C607.861 376.48 609.237 376.448 610.645 376.384C612.053 376.32 613.333 376.192 614.485 376V365.44C613.845 365.568 613.173 365.664 612.469 365.728C611.765 365.792 611.029 365.824 610.261 365.824C607.957 365.824 606.421 365.44 605.653 364.672C604.885 363.904 604.501 362.368 604.501 360.064V335.488H614.485V326.368H604.501Z" fill="white"/>
<path d="M629.846 104.46H647.315V122.02H629.846V104.46Z" fill="white"/>
<path d="M609.661 104.46H627.13V122.02H609.661V104.46Z" fill="white"/>
<path d="M589.476 104.46H606.945V122.02H589.476V104.46Z" fill="white"/>
<path d="M569.292 104.46H586.761V122.02H569.292V104.46Z" fill="white"/>
<path d="M549.016 104.46H566.486V122.02H549.016V104.46Z" fill="white"/>
<path d="M609.661 84.2752H627.13V101.835H609.661V84.2752Z" fill="white"/>
<path d="M609.661 64H627.13V81.5597H609.661V64Z" fill="white"/>
<path d="M589.476 84.2752H606.945V101.835H589.476V84.2752Z" fill="white"/>
<path d="M569.292 84.1846H586.761V101.744H569.292V84.1846Z" fill="white"/>
<path d="M685.443 86.0029C690.332 89.931 698.214 98.2037 696.858 108.737C703.01 105.645 713.693 104.116 722 108.91C716.785 119.091 705.319 122.133 693.39 120.909C677.625 162.679 643.265 182.732 602.143 185.076C599.401 185.232 596.63 185.309 593.832 185.309C568.378 185.309 551.991 175.604 542.169 162.493C541.136 161.115 540.175 159.685 539.291 158.207C539.232 158.109 539.173 158.01 539.115 157.911L537.641 155.215C533.187 146.46 531.237 136.23 532.271 125.122H661.806C672.448 125.122 682.84 121.151 687.773 116.771C678.935 109.584 679.81 92.5156 685.443 86.0029Z" fill="white"/>
</svg>
