<svg width="400" height="240" viewBox="0 0 400 240" fill="none" xmlns="http://www.w3.org/2000/svg">
<rect width="400" height="240" fill="white"/>
<path d="M64.384 98.304H72.512L80.768 133.248H80.896L90.112 98.304H98.304L107.264 133.248H107.392L115.904 98.304H124.032L111.424 144H103.296L94.144 109.056H94.016L84.672 144H76.416L64.384 98.304ZM146.673 124.544C146.587 123.392 146.331 122.283 145.905 121.216C145.521 120.149 144.966 119.232 144.24 118.464C143.558 117.653 142.705 117.013 141.681 116.544C140.699 116.032 139.59 115.776 138.353 115.776C137.073 115.776 135.899 116.011 134.832 116.48C133.808 116.907 132.913 117.525 132.144 118.336C131.419 119.104 130.822 120.021 130.352 121.088C129.926 122.155 129.691 123.307 129.648 124.544H146.673ZM129.648 129.344C129.648 130.624 129.819 131.861 130.16 133.056C130.544 134.251 131.099 135.296 131.825 136.192C132.55 137.088 133.467 137.813 134.576 138.368C135.686 138.88 137.008 139.136 138.545 139.136C140.678 139.136 142.385 138.688 143.665 137.792C144.987 136.853 145.969 135.467 146.609 133.632H153.521C153.137 135.424 152.475 137.024 151.537 138.432C150.598 139.84 149.467 141.035 148.145 142.016C146.822 142.955 145.329 143.659 143.665 144.128C142.043 144.64 140.337 144.896 138.545 144.896C135.942 144.896 133.638 144.469 131.632 143.616C129.627 142.763 127.92 141.568 126.512 140.032C125.147 138.496 124.102 136.661 123.376 134.528C122.694 132.395 122.352 130.048 122.352 127.488C122.352 125.141 122.715 122.923 123.44 120.832C124.208 118.699 125.275 116.843 126.64 115.264C128.048 113.643 129.734 112.363 131.696 111.424C133.659 110.485 135.878 110.016 138.353 110.016C140.955 110.016 143.281 110.571 145.329 111.68C147.419 112.747 149.147 114.176 150.513 115.968C151.878 117.76 152.859 119.829 153.457 122.176C154.097 124.48 154.267 126.869 153.969 129.344H129.648ZM156.507 98.304H163.803V144H156.507V98.304ZM190.889 121.984C190.59 119.936 189.758 118.4 188.393 117.376C187.07 116.309 185.385 115.776 183.337 115.776C182.398 115.776 181.395 115.947 180.329 116.288C179.262 116.587 178.281 117.184 177.385 118.08C176.489 118.933 175.742 120.149 175.145 121.728C174.547 123.264 174.249 125.291 174.249 127.808C174.249 129.173 174.398 130.539 174.697 131.904C175.038 133.269 175.55 134.485 176.233 135.552C176.958 136.619 177.875 137.493 178.985 138.176C180.094 138.816 181.438 139.136 183.017 139.136C185.15 139.136 186.899 138.475 188.265 137.152C189.673 135.829 190.547 133.973 190.889 131.584H198.185C197.502 135.893 195.859 139.2 193.257 141.504C190.697 143.765 187.283 144.896 183.017 144.896C180.414 144.896 178.11 144.469 176.105 143.616C174.142 142.72 172.478 141.525 171.113 140.032C169.747 138.496 168.702 136.683 167.977 134.592C167.294 132.501 166.953 130.24 166.953 127.808C166.953 125.333 167.294 123.008 167.977 120.832C168.659 118.656 169.683 116.779 171.049 115.2C172.414 113.579 174.099 112.32 176.105 111.424C178.153 110.485 180.542 110.016 183.273 110.016C185.193 110.016 187.006 110.272 188.713 110.784C190.462 111.253 191.998 111.979 193.321 112.96C194.686 113.941 195.795 115.179 196.649 116.672C197.502 118.165 198.014 119.936 198.185 121.984H190.889ZM216.083 144.896C213.438 144.896 211.07 144.469 208.979 143.616C206.931 142.72 205.182 141.504 203.731 139.968C202.323 138.432 201.235 136.597 200.467 134.464C199.742 132.331 199.379 129.984 199.379 127.424C199.379 124.907 199.742 122.581 200.467 120.448C201.235 118.315 202.323 116.48 203.731 114.944C205.182 113.408 206.931 112.213 208.979 111.36C211.07 110.464 213.438 110.016 216.083 110.016C218.728 110.016 221.075 110.464 223.123 111.36C225.214 112.213 226.963 113.408 228.371 114.944C229.822 116.48 230.91 118.315 231.635 120.448C232.403 122.581 232.787 124.907 232.787 127.424C232.787 129.984 232.403 132.331 231.635 134.464C230.91 136.597 229.822 138.432 228.371 139.968C226.963 141.504 225.214 142.72 223.123 143.616C221.075 144.469 218.728 144.896 216.083 144.896ZM216.083 139.136C217.704 139.136 219.112 138.795 220.307 138.112C221.502 137.429 222.483 136.533 223.251 135.424C224.019 134.315 224.574 133.077 224.915 131.712C225.299 130.304 225.491 128.875 225.491 127.424C225.491 126.016 225.299 124.608 224.915 123.2C224.574 121.792 224.019 120.555 223.251 119.488C222.483 118.379 221.502 117.483 220.307 116.8C219.112 116.117 217.704 115.776 216.083 115.776C214.462 115.776 213.054 116.117 211.859 116.8C210.664 117.483 209.683 118.379 208.915 119.488C208.147 120.555 207.571 121.792 207.187 123.2C206.846 124.608 206.675 126.016 206.675 127.424C206.675 128.875 206.846 130.304 207.187 131.712C207.571 133.077 208.147 134.315 208.915 135.424C209.683 136.533 210.664 137.429 211.859 138.112C213.054 138.795 214.462 139.136 216.083 139.136ZM235.653 110.912H242.565V115.52H242.757C243.311 114.709 243.909 113.963 244.549 113.28C245.189 112.597 245.893 112.021 246.661 111.552C247.471 111.083 248.389 110.72 249.413 110.464C250.437 110.165 251.61 110.016 252.933 110.016C254.938 110.016 256.794 110.464 258.501 111.36C260.25 112.256 261.487 113.643 262.213 115.52C263.45 113.813 264.879 112.469 266.501 111.488C268.122 110.507 270.149 110.016 272.581 110.016C276.079 110.016 278.789 110.869 280.709 112.576C282.671 114.283 283.653 117.141 283.653 121.152V144H276.357V124.672C276.357 123.349 276.314 122.155 276.229 121.088C276.143 119.979 275.887 119.04 275.461 118.272C275.077 117.461 274.479 116.843 273.669 116.416C272.858 115.989 271.749 115.776 270.341 115.776C267.866 115.776 266.074 116.544 264.965 118.08C263.855 119.616 263.301 121.792 263.301 124.608V144H256.005V122.752C256.005 120.448 255.578 118.72 254.725 117.568C253.914 116.373 252.399 115.776 250.181 115.776C249.242 115.776 248.325 115.968 247.429 116.352C246.575 116.736 245.807 117.291 245.125 118.016C244.485 118.741 243.951 119.637 243.525 120.704C243.141 121.771 242.949 122.987 242.949 124.352V144H235.653V110.912ZM310.86 124.544C310.775 123.392 310.519 122.283 310.092 121.216C309.708 120.149 309.153 119.232 308.428 118.464C307.745 117.653 306.892 117.013 305.868 116.544C304.887 116.032 303.777 115.776 302.54 115.776C301.26 115.776 300.087 116.011 299.02 116.48C297.996 116.907 297.1 117.525 296.332 118.336C295.607 119.104 295.009 120.021 294.54 121.088C294.113 122.155 293.879 123.307 293.836 124.544H310.86ZM293.836 129.344C293.836 130.624 294.007 131.861 294.348 133.056C294.732 134.251 295.287 135.296 296.012 136.192C296.737 137.088 297.655 137.813 298.764 138.368C299.873 138.88 301.196 139.136 302.732 139.136C304.865 139.136 306.572 138.688 307.852 137.792C309.175 136.853 310.156 135.467 310.796 133.632H317.708C317.324 135.424 316.663 137.024 315.724 138.432C314.785 139.84 313.655 141.035 312.332 142.016C311.009 142.955 309.516 143.659 307.852 144.128C306.231 144.64 304.524 144.896 302.732 144.896C300.129 144.896 297.825 144.469 295.82 143.616C293.815 142.763 292.108 141.568 290.7 140.032C289.335 138.496 288.289 136.661 287.564 134.528C286.881 132.395 286.54 130.048 286.54 127.488C286.54 125.141 286.903 122.923 287.628 120.832C288.396 118.699 289.463 116.843 290.828 115.264C292.236 113.643 293.921 112.363 295.884 111.424C297.847 110.485 300.065 110.016 302.54 110.016C305.143 110.016 307.468 110.571 309.516 111.68C311.607 112.747 313.335 114.176 314.7 115.968C316.065 117.76 317.047 119.829 317.644 122.176C318.284 124.48 318.455 126.869 318.156 129.344H293.836ZM321.271 136H329.847V144H321.271V136ZM321.591 98.304H329.591V111.488L327.479 131.264H323.703L321.591 111.488V98.304Z" fill="black"/>
</svg>
