<svg width="770" height="462" viewBox="0 0 770 462" fill="none" xmlns="http://www.w3.org/2000/svg">
<g clip-path="url(#clip0_201_51)">
<rect width="770" height="462" fill="white"/>
<path d="M247.601 270L267.493 196.025H251.538L239.416 247H239.209L226.569 196.025H211.339L198.492 246.378H198.284L186.577 196.025H170.311L189.892 270H206.366L218.695 219.648H218.902L231.438 270H247.601ZM299.476 237.468H275.543C275.612 236.432 275.819 235.258 276.164 233.945C276.579 232.633 277.235 231.39 278.133 230.215C279.1 229.041 280.343 228.074 281.863 227.314C283.451 226.486 285.42 226.071 287.768 226.071C291.36 226.071 294.019 227.038 295.746 228.972C297.542 230.906 298.785 233.738 299.476 237.468ZM275.543 246.792H314.188C314.464 242.648 314.119 238.677 313.152 234.878C312.185 231.079 310.596 227.694 308.386 224.724C306.245 221.754 303.482 219.406 300.097 217.679C296.713 215.883 292.741 214.985 288.183 214.985C284.107 214.985 280.378 215.711 276.993 217.161C273.678 218.612 270.811 220.615 268.394 223.17C265.976 225.657 264.112 228.627 262.799 232.08C261.487 235.534 260.831 239.264 260.831 243.27C260.831 247.414 261.452 251.213 262.696 254.666C264.008 258.12 265.838 261.09 268.187 263.576C270.535 266.063 273.402 267.997 276.786 269.378C280.17 270.691 283.969 271.347 288.183 271.347C294.261 271.347 299.441 269.965 303.724 267.203C308.006 264.44 311.183 259.847 313.255 253.423H300.305C299.821 255.081 298.509 256.669 296.368 258.189C294.226 259.639 291.671 260.365 288.701 260.365C284.556 260.365 281.379 259.294 279.169 257.153C276.959 255.012 275.75 251.558 275.543 246.792ZM319.183 196.025V270H333.895V196.025H319.183ZM377.805 235.292H392.206C391.999 231.839 391.17 228.868 389.72 226.382C388.269 223.826 386.37 221.72 384.021 220.062C381.742 218.335 379.117 217.057 376.147 216.229C373.246 215.4 370.207 214.985 367.03 214.985C362.678 214.985 358.811 215.711 355.426 217.161C352.042 218.612 349.175 220.649 346.827 223.274C344.478 225.829 342.683 228.903 341.439 232.495C340.265 236.017 339.678 239.851 339.678 243.995C339.678 248.001 340.334 251.696 341.646 255.081C342.959 258.396 344.789 261.263 347.138 263.68C349.486 266.098 352.318 267.997 355.633 269.378C359.018 270.691 362.713 271.347 366.719 271.347C373.833 271.347 379.67 269.482 384.228 265.752C388.787 262.022 391.55 256.6 392.517 249.486H378.323C377.839 252.801 376.631 255.461 374.697 257.464C372.832 259.398 370.138 260.365 366.615 260.365C364.336 260.365 362.402 259.847 360.814 258.811C359.225 257.775 357.947 256.462 356.98 254.874C356.082 253.216 355.426 251.385 355.012 249.382C354.597 247.379 354.39 245.411 354.39 243.477C354.39 241.474 354.597 239.471 355.012 237.468C355.426 235.396 356.117 233.531 357.084 231.873C358.12 230.146 359.432 228.765 361.021 227.729C362.609 226.624 364.578 226.071 366.926 226.071C373.212 226.071 376.838 229.145 377.805 235.292ZM409.738 243.27C409.738 241.129 409.945 239.022 410.36 236.95C410.774 234.878 411.465 233.047 412.432 231.459C413.468 229.87 414.815 228.592 416.473 227.625C418.13 226.589 420.202 226.071 422.689 226.071C425.175 226.071 427.248 226.589 428.905 227.625C430.632 228.592 431.979 229.87 432.946 231.459C433.982 233.047 434.707 234.878 435.122 236.95C435.536 239.022 435.743 241.129 435.743 243.27C435.743 245.411 435.536 247.518 435.122 249.59C434.707 251.593 433.982 253.423 432.946 255.081C431.979 256.669 430.632 257.947 428.905 258.914C427.248 259.881 425.175 260.365 422.689 260.365C420.202 260.365 418.13 259.881 416.473 258.914C414.815 257.947 413.468 256.669 412.432 255.081C411.465 253.423 410.774 251.593 410.36 249.59C409.945 247.518 409.738 245.411 409.738 243.27ZM395.026 243.27C395.026 247.552 395.682 251.42 396.995 254.874C398.307 258.327 400.172 261.297 402.589 263.784C405.007 266.201 407.908 268.066 411.292 269.378C414.677 270.691 418.476 271.347 422.689 271.347C426.902 271.347 430.701 270.691 434.086 269.378C437.539 268.066 440.475 266.201 442.892 263.784C445.31 261.297 447.174 258.327 448.487 254.874C449.799 251.42 450.455 247.552 450.455 243.27C450.455 238.987 449.799 235.119 448.487 231.666C447.174 228.143 445.31 225.173 442.892 222.756C440.475 220.269 437.539 218.37 434.086 217.057C430.701 215.676 426.902 214.985 422.689 214.985C418.476 214.985 414.677 215.676 411.292 217.057C407.908 218.37 405.007 220.269 402.589 222.756C400.172 225.173 398.307 228.143 396.995 231.666C395.682 235.119 395.026 238.987 395.026 243.27ZM456.291 216.436V270H471.003V238.918C471.003 236.294 471.383 234.187 472.143 232.598C472.903 230.941 473.801 229.697 474.837 228.868C475.942 227.971 477.047 227.383 478.152 227.107C479.326 226.762 480.259 226.589 480.949 226.589C483.298 226.589 485.059 227.004 486.233 227.832C487.477 228.592 488.34 229.628 488.823 230.941C489.376 232.253 489.687 233.703 489.756 235.292C489.825 236.812 489.859 238.366 489.859 239.954V270H504.571V240.162C504.571 238.504 504.675 236.881 504.882 235.292C505.159 233.634 505.642 232.184 506.333 230.941C507.093 229.628 508.094 228.592 509.337 227.832C510.65 227.004 512.342 226.589 514.414 226.589C516.486 226.589 518.109 226.935 519.284 227.625C520.527 228.316 521.459 229.248 522.081 230.423C522.703 231.597 523.082 232.978 523.221 234.567C523.359 236.155 523.428 237.848 523.428 239.643V270H538.14V234.152C538.14 230.699 537.656 227.763 536.689 225.346C535.722 222.859 534.375 220.856 532.649 219.337C530.922 217.817 528.85 216.712 526.432 216.021C524.015 215.331 521.39 214.985 518.558 214.985C514.828 214.985 511.582 215.883 508.819 217.679C506.126 219.475 503.984 221.547 502.396 223.895C500.945 220.58 498.804 218.266 495.972 216.954C493.209 215.641 490.136 214.985 486.751 214.985C483.229 214.985 480.086 215.745 477.323 217.265C474.629 218.784 472.316 220.925 470.382 223.688H470.174V216.436H456.291ZM581.68 237.468H557.747C557.816 236.432 558.023 235.258 558.369 233.945C558.783 232.633 559.439 231.39 560.337 230.215C561.304 229.041 562.548 228.074 564.067 227.314C565.656 226.486 567.624 226.071 569.973 226.071C573.564 226.071 576.224 227.038 577.95 228.972C579.746 230.906 580.989 233.738 581.68 237.468ZM557.747 246.792H596.392C596.668 242.648 596.323 238.677 595.356 234.878C594.389 231.079 592.8 227.694 590.59 224.724C588.449 221.754 585.686 219.406 582.302 217.679C578.917 215.883 574.946 214.985 570.387 214.985C566.312 214.985 562.582 215.711 559.198 217.161C555.882 218.612 553.016 220.615 550.598 223.17C548.181 225.657 546.316 228.627 545.004 232.08C543.691 235.534 543.035 239.264 543.035 243.27C543.035 247.414 543.657 251.213 544.9 254.666C546.212 258.12 548.043 261.09 550.391 263.576C552.74 266.063 555.606 267.997 558.99 269.378C562.375 270.691 566.174 271.347 570.387 271.347C576.465 271.347 581.646 269.965 585.928 267.203C590.21 264.44 593.388 259.847 595.46 253.423H582.509C582.025 255.081 580.713 256.669 578.572 258.189C576.431 259.639 573.875 260.365 570.905 260.365C566.761 260.365 563.584 259.294 561.373 257.153C559.163 255.012 557.954 251.558 557.747 246.792Z" fill="black"/>
<g opacity="0.5" filter="url(#filter0_f_201_51)">
<circle cx="156.887" cy="304.888" r="156.887" fill="#00A3FF"/>
</g>
<g opacity="0.5" filter="url(#filter1_f_201_51)">
<circle cx="612.888" cy="156.887" r="156.887" fill="#FF7474"/>
</g>
</g>
<defs>
<filter id="filter0_f_201_51" x="-475.475" y="-327.475" width="1264.72" height="1264.72" filterUnits="userSpaceOnUse" color-interpolation-filters="sRGB">
<feFlood flood-opacity="0" result="BackgroundImageFix"/>
<feBlend mode="normal" in="SourceGraphic" in2="BackgroundImageFix" result="shape"/>
<feGaussianBlur stdDeviation="237.738" result="effect1_foregroundBlur_201_51"/>
</filter>
<filter id="filter1_f_201_51" x="-19.475" y="-475.475" width="1264.72" height="1264.72" filterUnits="userSpaceOnUse" color-interpolation-filters="sRGB">
<feFlood flood-opacity="0" result="BackgroundImageFix"/>
<feBlend mode="normal" in="SourceGraphic" in2="BackgroundImageFix" result="shape"/>
<feGaussianBlur stdDeviation="237.738" result="effect1_foregroundBlur_201_51"/>
</filter>
<clipPath id="clip0_201_51">
<rect width="770" height="462" fill="white"/>
</clipPath>
</defs>
</svg>
