<svg width="4001" height="800" viewBox="0 0 4001 800" fill="none" xmlns="http://www.w3.org/2000/svg">
<rect width="4000" height="800" transform="translate(0.5)" fill="white"/>
<path d="M1276.8 371.133C1275.38 365.622 1273.42 360.556 1270.93 355.933C1268.44 351.311 1265.24 347.311 1261.33 343.933C1257.42 340.556 1252.8 337.978 1247.47 336.2C1242.31 334.244 1236.27 333.267 1229.33 333.267C1219.2 333.267 1210.4 335.311 1202.93 339.4C1195.64 343.489 1189.69 349 1185.07 355.933C1180.44 362.689 1176.98 370.422 1174.67 379.133C1172.53 387.844 1171.47 396.733 1171.47 405.8C1171.47 414.867 1172.53 423.756 1174.67 432.467C1176.98 441.178 1180.44 449 1185.07 455.933C1189.69 462.689 1195.64 468.111 1202.93 472.2C1210.4 476.289 1219.2 478.333 1229.33 478.333C1236.8 478.333 1243.38 477.089 1249.07 474.6C1254.76 471.933 1259.64 468.378 1263.73 463.933C1267.82 459.311 1271.02 453.978 1273.33 447.933C1275.64 441.889 1277.16 435.4 1277.87 428.467H1310.4C1309.69 439.844 1307.2 450.244 1302.93 459.667C1298.84 469.089 1293.24 477.267 1286.13 484.2C1279.02 490.956 1270.67 496.2 1261.07 499.933C1251.47 503.667 1240.89 505.533 1229.33 505.533C1215.11 505.533 1202.31 502.956 1190.93 497.8C1179.73 492.467 1170.22 485.267 1162.4 476.2C1154.58 467.133 1148.53 456.556 1144.27 444.467C1140.18 432.378 1138.13 419.489 1138.13 405.8C1138.13 392.289 1140.18 379.489 1144.27 367.4C1148.53 355.311 1154.58 344.733 1162.4 335.667C1170.22 326.6 1179.73 319.4 1190.93 314.067C1202.31 308.733 1215.11 306.067 1229.33 306.067C1240 306.067 1250.04 307.578 1259.47 310.6C1268.89 313.444 1277.16 317.711 1284.27 323.4C1291.56 328.911 1297.42 335.667 1301.87 343.667C1306.31 351.667 1309.07 360.822 1310.13 371.133H1276.8ZM1384.98 504.733C1373.96 504.733 1364.09 502.956 1355.38 499.4C1346.85 495.667 1339.56 490.6 1333.51 484.2C1327.65 477.8 1323.11 470.156 1319.91 461.267C1316.89 452.378 1315.38 442.6 1315.38 431.933C1315.38 421.444 1316.89 411.756 1319.91 402.867C1323.11 393.978 1327.65 386.333 1333.51 379.933C1339.56 373.533 1346.85 368.556 1355.38 365C1364.09 361.267 1373.96 359.4 1384.98 359.4C1396 359.4 1405.78 361.267 1414.31 365C1423.03 368.556 1430.31 373.533 1436.18 379.933C1442.23 386.333 1446.76 393.978 1449.78 402.867C1452.98 411.756 1454.58 421.444 1454.58 431.933C1454.58 442.6 1452.98 452.378 1449.78 461.267C1446.76 470.156 1442.23 477.8 1436.18 484.2C1430.31 490.6 1423.03 495.667 1414.31 499.4C1405.78 502.956 1396 504.733 1384.98 504.733ZM1384.98 480.733C1391.74 480.733 1397.6 479.311 1402.58 476.467C1407.56 473.622 1411.65 469.889 1414.85 465.267C1418.05 460.644 1420.36 455.489 1421.78 449.8C1423.38 443.933 1424.18 437.978 1424.18 431.933C1424.18 426.067 1423.38 420.2 1421.78 414.333C1420.36 408.467 1418.05 403.311 1414.85 398.867C1411.65 394.244 1407.56 390.511 1402.58 387.667C1397.6 384.822 1391.74 383.4 1384.98 383.4C1378.23 383.4 1372.36 384.822 1367.38 387.667C1362.4 390.511 1358.31 394.244 1355.11 398.867C1351.91 403.311 1349.51 408.467 1347.91 414.333C1346.49 420.2 1345.78 426.067 1345.78 431.933C1345.78 437.978 1346.49 443.933 1347.91 449.8C1349.51 455.489 1351.91 460.644 1355.11 465.267C1358.31 469.889 1362.4 473.622 1367.38 476.467C1372.36 479.311 1378.23 480.733 1384.98 480.733ZM1528.39 504.733C1517.37 504.733 1507.5 502.956 1498.79 499.4C1490.25 495.667 1482.97 490.6 1476.92 484.2C1471.05 477.8 1466.52 470.156 1463.32 461.267C1460.3 452.378 1458.79 442.6 1458.79 431.933C1458.79 421.444 1460.3 411.756 1463.32 402.867C1466.52 393.978 1471.05 386.333 1476.92 379.933C1482.97 373.533 1490.25 368.556 1498.79 365C1507.5 361.267 1517.37 359.4 1528.39 359.4C1539.41 359.4 1549.19 361.267 1557.72 365C1566.43 368.556 1573.72 373.533 1579.59 379.933C1585.63 386.333 1590.17 393.978 1593.19 402.867C1596.39 411.756 1597.99 421.444 1597.99 431.933C1597.99 442.6 1596.39 452.378 1593.19 461.267C1590.17 470.156 1585.63 477.8 1579.59 484.2C1573.72 490.6 1566.43 495.667 1557.72 499.4C1549.19 502.956 1539.41 504.733 1528.39 504.733ZM1528.39 480.733C1535.14 480.733 1541.01 479.311 1545.99 476.467C1550.97 473.622 1555.05 469.889 1558.25 465.267C1561.45 460.644 1563.77 455.489 1565.19 449.8C1566.79 443.933 1567.59 437.978 1567.59 431.933C1567.59 426.067 1566.79 420.2 1565.19 414.333C1563.77 408.467 1561.45 403.311 1558.25 398.867C1555.05 394.244 1550.97 390.511 1545.99 387.667C1541.01 384.822 1535.14 383.4 1528.39 383.4C1521.63 383.4 1515.77 384.822 1510.79 387.667C1505.81 390.511 1501.72 394.244 1498.52 398.867C1495.32 403.311 1492.92 408.467 1491.32 414.333C1489.9 420.2 1489.19 426.067 1489.19 431.933C1489.19 437.978 1489.9 443.933 1491.32 449.8C1492.92 455.489 1495.32 460.644 1498.52 465.267C1501.72 469.889 1505.81 473.622 1510.79 476.467C1515.77 479.311 1521.63 480.733 1528.39 480.733ZM1609.39 363.133H1638.19V381.8H1638.73C1642.99 373.8 1648.95 368.111 1656.59 364.733C1664.24 361.178 1672.5 359.4 1681.39 359.4C1692.24 359.4 1701.66 361.356 1709.66 365.267C1717.84 369 1724.59 374.244 1729.93 381C1735.26 387.578 1739.26 395.311 1741.93 404.2C1744.59 413.089 1745.93 422.6 1745.93 432.733C1745.93 441.978 1744.68 450.956 1742.19 459.667C1739.88 468.378 1736.24 476.111 1731.26 482.867C1726.46 489.444 1720.33 494.778 1712.86 498.867C1705.39 502.778 1696.59 504.733 1686.46 504.733C1682.02 504.733 1677.57 504.289 1673.13 503.4C1668.68 502.689 1664.42 501.444 1660.33 499.667C1656.24 497.889 1652.42 495.667 1648.86 493C1645.48 490.156 1642.64 486.867 1640.33 483.133H1639.79V551.933H1609.39V363.133ZM1715.53 432.2C1715.53 425.978 1714.73 419.933 1713.13 414.067C1711.53 408.2 1709.13 403.044 1705.93 398.6C1702.73 393.978 1698.73 390.333 1693.93 387.667C1689.13 384.822 1683.62 383.4 1677.39 383.4C1664.59 383.4 1654.9 387.844 1648.33 396.733C1641.93 405.622 1638.73 417.444 1638.73 432.2C1638.73 439.133 1639.53 445.622 1641.13 451.667C1642.9 457.533 1645.48 462.6 1648.86 466.867C1652.24 471.133 1656.24 474.511 1660.86 477C1665.66 479.489 1671.17 480.733 1677.39 480.733C1684.33 480.733 1690.19 479.311 1694.99 476.467C1699.79 473.622 1703.7 469.978 1706.73 465.533C1709.93 460.911 1712.15 455.756 1713.39 450.067C1714.82 444.2 1715.53 438.244 1715.53 432.2ZM1851.61 419.933C1851.26 415.133 1850.19 410.511 1848.41 406.067C1846.81 401.622 1844.5 397.8 1841.48 394.6C1838.64 391.222 1835.08 388.556 1830.81 386.6C1826.73 384.467 1822.1 383.4 1816.95 383.4C1811.61 383.4 1806.73 384.378 1802.28 386.333C1798.01 388.111 1794.28 390.689 1791.08 394.067C1788.06 397.267 1785.57 401.089 1783.61 405.533C1781.84 409.978 1780.86 414.778 1780.68 419.933H1851.61ZM1780.68 439.933C1780.68 445.267 1781.39 450.422 1782.81 455.4C1784.41 460.378 1786.73 464.733 1789.75 468.467C1792.77 472.2 1796.59 475.222 1801.21 477.533C1805.84 479.667 1811.35 480.733 1817.75 480.733C1826.64 480.733 1833.75 478.867 1839.08 475.133C1844.59 471.222 1848.68 465.444 1851.35 457.8H1880.15C1878.55 465.267 1875.79 471.933 1871.88 477.8C1867.97 483.667 1863.26 488.644 1857.75 492.733C1852.24 496.644 1846.01 499.578 1839.08 501.533C1832.33 503.667 1825.21 504.733 1817.75 504.733C1806.9 504.733 1797.3 502.956 1788.95 499.4C1780.59 495.844 1773.48 490.867 1767.61 484.467C1761.93 478.067 1757.57 470.422 1754.55 461.533C1751.7 452.644 1750.28 442.867 1750.28 432.2C1750.28 422.422 1751.79 413.178 1754.81 404.467C1758.01 395.578 1762.46 387.844 1768.15 381.267C1774.01 374.511 1781.04 369.178 1789.21 365.267C1797.39 361.356 1806.64 359.4 1816.95 359.4C1827.79 359.4 1837.48 361.711 1846.01 366.333C1854.73 370.778 1861.93 376.733 1867.61 384.2C1873.3 391.667 1877.39 400.289 1879.88 410.067C1882.55 419.667 1883.26 429.622 1882.01 439.933H1780.68ZM1890.46 363.133H1918.99V389.8H1919.52C1920.41 386.067 1922.1 382.422 1924.59 378.867C1927.26 375.311 1930.37 372.111 1933.92 369.267C1937.66 366.244 1941.75 363.844 1946.19 362.067C1950.64 360.289 1955.17 359.4 1959.79 359.4C1963.35 359.4 1965.75 359.489 1966.99 359.667C1968.41 359.844 1969.84 360.022 1971.26 360.2V389.533C1969.12 389.178 1966.9 388.911 1964.59 388.733C1962.46 388.378 1960.32 388.2 1958.19 388.2C1953.04 388.2 1948.15 389.267 1943.52 391.4C1939.08 393.356 1935.17 396.378 1931.79 400.467C1928.41 404.378 1925.75 409.267 1923.79 415.133C1921.84 421 1920.86 427.756 1920.86 435.4V501H1890.46V363.133ZM2033.36 310.6H2124.29C2145.27 310.6 2161 315.133 2171.49 324.2C2181.98 333.267 2187.23 345.889 2187.23 362.067C2187.23 371.133 2185.89 378.689 2183.23 384.733C2180.56 390.6 2177.45 395.4 2173.89 399.133C2170.34 402.689 2166.78 405.267 2163.23 406.867C2159.85 408.467 2157.36 409.533 2155.76 410.067V410.6C2158.6 410.956 2161.63 411.844 2164.83 413.267C2168.2 414.689 2171.32 417 2174.16 420.2C2177 423.222 2179.32 427.222 2181.09 432.2C2183.05 437.178 2184.03 443.4 2184.03 450.867C2184.03 462.067 2184.83 472.289 2186.43 481.533C2188.2 490.6 2190.87 497.089 2194.43 501H2158.69C2156.2 496.911 2154.69 492.378 2154.16 487.4C2153.8 482.422 2153.63 477.622 2153.63 473C2153.63 464.289 2153.09 456.822 2152.03 450.6C2150.96 444.2 2149 438.956 2146.16 434.867C2143.32 430.6 2139.4 427.489 2134.43 425.533C2129.63 423.578 2123.4 422.6 2115.76 422.6H2066.69V501H2033.36V310.6ZM2066.69 397.267H2121.36C2132.03 397.267 2140.12 394.778 2145.63 389.8C2151.14 384.644 2153.89 377 2153.89 366.867C2153.89 360.822 2153 355.933 2151.23 352.2C2149.45 348.289 2146.96 345.267 2143.76 343.133C2140.74 341 2137.18 339.578 2133.09 338.867C2129.18 338.156 2125.09 337.8 2120.83 337.8H2066.69V397.267ZM2323.25 501H2293.39V481.8H2292.85C2289.12 488.733 2283.52 494.333 2276.05 498.6C2268.77 502.689 2261.3 504.733 2253.65 504.733C2235.52 504.733 2222.37 500.289 2214.19 491.4C2206.19 482.333 2202.19 468.733 2202.19 450.6V363.133H2232.59V447.667C2232.59 459.756 2234.9 468.289 2239.52 473.267C2244.14 478.244 2250.63 480.733 2258.99 480.733C2265.39 480.733 2270.72 479.756 2274.99 477.8C2279.25 475.844 2282.72 473.267 2285.39 470.067C2288.05 466.689 2289.92 462.689 2290.99 458.067C2292.23 453.444 2292.85 448.467 2292.85 443.133V363.133H2323.25V501ZM2340.65 363.133H2369.45V383.4L2369.98 383.933C2374.6 376.289 2380.65 370.333 2388.11 366.067C2395.58 361.622 2403.85 359.4 2412.91 359.4C2428.02 359.4 2439.93 363.311 2448.65 371.133C2457.36 378.956 2461.71 390.689 2461.71 406.333V501H2431.31V414.333C2430.96 403.489 2428.65 395.667 2424.38 390.867C2420.11 385.889 2413.45 383.4 2404.38 383.4C2399.22 383.4 2394.6 384.378 2390.51 386.333C2386.42 388.111 2382.96 390.689 2380.11 394.067C2377.27 397.267 2375.05 401.089 2373.45 405.533C2371.85 409.978 2371.05 414.689 2371.05 419.667V501H2340.65V363.133ZM2463.9 363.133H2497.24L2533.24 466.067H2533.77L2568.7 363.133H2600.44L2546.84 508.467C2544.35 514.689 2541.86 520.644 2539.37 526.333C2537.06 532.022 2534.13 537 2530.57 541.267C2527.19 545.711 2522.93 549.178 2517.77 551.667C2512.62 554.333 2506.04 555.667 2498.04 555.667C2490.93 555.667 2483.9 555.133 2476.97 554.067V528.467C2479.46 528.822 2481.86 529.178 2484.17 529.533C2486.48 530.067 2488.88 530.333 2491.37 530.333C2494.93 530.333 2497.86 529.889 2500.17 529C2502.48 528.111 2504.35 526.778 2505.77 525C2507.37 523.4 2508.7 521.444 2509.77 519.133C2510.84 516.822 2511.82 514.156 2512.7 511.133L2516.17 500.467L2463.9 363.133ZM2718.19 470.333C2718.19 474.067 2718.63 476.733 2719.52 478.333C2720.59 479.933 2722.54 480.733 2725.39 480.733C2726.27 480.733 2727.34 480.733 2728.59 480.733C2729.83 480.733 2731.25 480.556 2732.85 480.2V501.267C2731.79 501.622 2730.36 501.978 2728.59 502.333C2726.99 502.867 2725.3 503.311 2723.52 503.667C2721.74 504.022 2719.96 504.289 2718.19 504.467C2716.41 504.644 2714.9 504.733 2713.65 504.733C2707.43 504.733 2702.27 503.489 2698.19 501C2694.1 498.511 2691.43 494.156 2690.19 487.933C2684.14 493.8 2676.67 498.067 2667.79 500.733C2659.07 503.4 2650.63 504.733 2642.45 504.733C2636.23 504.733 2630.27 503.844 2624.59 502.067C2618.9 500.467 2613.83 498.067 2609.39 494.867C2605.12 491.489 2601.65 487.311 2598.99 482.333C2596.5 477.178 2595.25 471.222 2595.25 464.467C2595.25 455.933 2596.76 449 2599.79 443.667C2602.99 438.333 2607.07 434.156 2612.05 431.133C2617.21 428.111 2622.9 425.978 2629.12 424.733C2635.52 423.311 2641.92 422.244 2648.32 421.533C2653.83 420.467 2659.07 419.756 2664.05 419.4C2669.03 418.867 2673.39 418.067 2677.12 417C2681.03 415.933 2684.05 414.333 2686.19 412.2C2688.5 409.889 2689.65 406.511 2689.65 402.067C2689.65 398.156 2688.67 394.956 2686.72 392.467C2684.94 389.978 2682.63 388.111 2679.79 386.867C2677.12 385.444 2674.1 384.556 2670.72 384.2C2667.34 383.667 2664.14 383.4 2661.12 383.4C2652.59 383.4 2645.56 385.178 2640.05 388.733C2634.54 392.289 2631.43 397.8 2630.72 405.267H2600.32C2600.85 396.378 2602.99 389 2606.72 383.133C2610.45 377.267 2615.16 372.556 2620.85 369C2626.72 365.444 2633.3 362.956 2640.59 361.533C2647.87 360.111 2655.34 359.4 2662.99 359.4C2669.74 359.4 2676.41 360.111 2682.99 361.533C2689.56 362.956 2695.43 365.267 2700.59 368.467C2705.92 371.667 2710.19 375.844 2713.39 381C2716.59 385.978 2718.19 392.111 2718.19 399.4V470.333ZM2687.79 431.933C2683.16 434.956 2677.47 436.822 2670.72 437.533C2663.96 438.067 2657.21 438.956 2650.45 440.2C2647.25 440.733 2644.14 441.533 2641.12 442.6C2638.1 443.489 2635.43 444.822 2633.12 446.6C2630.81 448.2 2628.94 450.422 2627.52 453.267C2626.27 455.933 2625.65 459.222 2625.65 463.133C2625.65 466.511 2626.63 469.356 2628.59 471.667C2630.54 473.978 2632.85 475.844 2635.52 477.267C2638.36 478.511 2641.39 479.4 2644.59 479.933C2647.96 480.467 2650.99 480.733 2653.65 480.733C2657.03 480.733 2660.67 480.289 2664.59 479.4C2668.5 478.511 2672.14 477 2675.52 474.867C2679.07 472.733 2682.01 470.067 2684.32 466.867C2686.63 463.489 2687.79 459.4 2687.79 454.6V431.933ZM2736.23 363.133H2765.03V383.4L2765.56 383.933C2770.18 376.289 2776.23 370.333 2783.7 366.067C2791.16 361.622 2799.43 359.4 2808.5 359.4C2823.61 359.4 2835.52 363.311 2844.23 371.133C2852.94 378.956 2857.3 390.689 2857.3 406.333V501H2826.9V414.333C2826.54 403.489 2824.23 395.667 2819.96 390.867C2815.7 385.889 2809.03 383.4 2799.96 383.4C2794.81 383.4 2790.18 384.378 2786.1 386.333C2782.01 388.111 2778.54 390.689 2775.7 394.067C2772.85 397.267 2770.63 401.089 2769.03 405.533C2767.43 409.978 2766.63 414.689 2766.63 419.667V501H2736.23V363.133Z" fill="black"/>
</svg>
