<svg width="3047" height="3047" viewBox="0 0 3047 3047" fill="none" xmlns="http://www.w3.org/2000/svg">
<rect width="3047" height="3047" rx="1523.5" fill="white"/>
<path d="M2396.29 1243.21C2395.95 1241.16 2395.61 1239.11 2394.92 1237.06C2394.58 1235.69 2394.24 1234.67 2393.9 1233.3C2393.22 1231.59 2392.53 1229.54 2391.85 1227.83C2391.17 1226.46 2390.82 1225.44 2390.14 1224.07C2389.46 1222.36 2388.43 1220.65 2387.41 1218.95C2386.72 1217.58 2386.04 1216.55 2385.36 1215.53C2384.33 1213.82 2383.31 1212.45 2382.28 1211.09C2381.6 1210.06 2380.57 1209.04 2379.55 1208.01C2378.52 1206.64 2377.15 1205.28 2375.79 1203.91C2374.76 1202.88 2373.74 1201.86 2372.71 1200.83C2371.35 1199.47 2369.98 1198.44 2368.61 1197.42C2367.59 1196.39 2366.22 1195.71 2365.19 1194.68L2363.83 1193.66L1564.18 660.559C1538.89 643.814 1506.08 643.814 1480.8 660.559L681.148 1193.66L680.123 1194.68C679.097 1195.37 677.731 1196.39 676.705 1197.42C675.338 1198.44 673.971 1199.81 672.605 1200.83C671.579 1201.86 670.554 1202.88 669.529 1203.91C668.162 1205.28 667.137 1206.64 665.77 1208.01C664.745 1209.04 664.061 1210.06 663.036 1211.43C662.011 1212.79 660.986 1214.5 659.961 1215.87C659.277 1216.9 658.594 1218.26 657.91 1219.29C656.885 1221 656.202 1222.7 655.518 1224.07C654.835 1225.44 654.493 1226.46 653.809 1227.83C653.126 1229.54 652.442 1231.59 651.759 1233.3C651.417 1234.67 651.076 1235.69 650.734 1236.72C650.05 1238.77 649.709 1240.82 649.367 1242.87C649.025 1243.89 649.025 1244.92 648.683 1246.28C648.342 1249.36 648 1252.78 648 1256.19V1789.29C648 1792.71 648.342 1795.79 648.683 1799.2C648.683 1800.23 649.025 1801.25 649.367 1802.62C649.709 1804.67 650.05 1806.72 650.734 1809.11C651.076 1810.14 651.417 1811.51 651.759 1812.87C652.442 1814.92 652.784 1816.63 653.809 1818.34C654.151 1819.37 654.835 1820.73 655.518 1821.76C656.202 1823.47 657.227 1825.17 658.252 1826.88C658.935 1827.91 659.619 1829.28 660.302 1830.3C661.327 1832.01 662.353 1833.38 663.72 1834.74C664.403 1835.77 665.428 1836.79 666.453 1838.16C667.82 1839.53 668.846 1840.89 670.212 1842.26C671.238 1843.29 672.263 1844.31 673.288 1845C674.655 1846.02 676.022 1847.39 677.389 1848.41C678.414 1849.44 679.781 1850.12 680.806 1851.15L681.831 1852.17L1481.14 2385.61C1493.78 2394.16 1508.13 2398.26 1522.83 2398.26C1537.52 2398.26 1551.88 2394.16 1564.52 2385.61L2364.17 1852.51L2365.54 1851.49C2366.56 1850.8 2367.93 1849.78 2368.95 1848.75C2370.32 1847.73 2371.69 1846.36 2373.05 1845.34C2374.08 1844.31 2375.1 1843.29 2376.13 1842.26C2377.5 1840.89 2378.52 1839.53 2379.89 1838.16C2380.91 1837.14 2381.6 1836.11 2382.62 1834.74C2383.65 1833.38 2384.67 1831.67 2385.7 1830.3C2386.38 1829.28 2387.06 1827.91 2387.75 1826.88C2388.77 1825.17 2389.46 1823.47 2390.48 1821.76C2391.17 1820.39 2391.51 1819.37 2392.19 1818C2392.87 1816.29 2393.56 1814.24 2394.24 1812.53C2394.58 1811.16 2394.92 1810.14 2395.27 1808.77C2395.95 1806.72 2396.29 1804.67 2396.63 1802.62C2396.97 1801.6 2396.97 1800.57 2397.32 1799.2C2397.66 1795.79 2398 1792.71 2398 1789.29V1256.19C2398 1252.78 2397.66 1249.7 2397.32 1246.28C2396.97 1245.26 2396.29 1244.23 2396.29 1243.21ZM1522.83 1700.44L1256.96 1522.74L1522.83 1345.04L1788.7 1522.74L1522.83 1700.44ZM1447.65 1214.16L1121.64 1432.19L858.506 1256.19L1447.65 863.546V1214.16ZM986.313 1522.74L798.361 1648.5V1396.99L986.313 1522.74ZM1121.64 1613.3L1447.65 1831.33V2181.94L858.506 1789.29L1121.64 1613.3ZM1598.01 1831.33L1924.02 1613.3L2187.15 1789.29L1598.01 2181.94V1831.33ZM2059 1522.74L2246.96 1396.99V1648.5L2059 1522.74ZM1924.02 1432.19L1598.01 1214.16V863.546L2187.15 1256.19L1924.02 1432.19Z" fill="black"/>
</svg>
