<svg width="3047" height="3047" viewBox="0 0 3047 3047" fill="none" xmlns="http://www.w3.org/2000/svg">
<rect width="3047" height="3047" rx="1523.5" fill="white"/>
<rect x="649" y="648" width="1750" height="1750" rx="875" fill="white"/>
<path fill-rule="evenodd" clip-rule="evenodd" d="M1524 648C1040.56 648 649 1039.56 649 1523C649 1910.19 899.469 2237.22 1247.28 2353.16C1291.03 2360.81 1307.44 2334.56 1307.44 2311.59C1307.44 2290.81 1306.34 2221.91 1306.34 2148.62C1086.5 2189.09 1029.62 2095.03 1012.12 2045.81C1002.28 2020.66 959.625 1943 922.438 1922.22C891.812 1905.81 848.062 1865.34 921.344 1864.25C990.25 1863.16 1039.47 1927.69 1055.88 1953.94C1134.63 2086.28 1260.41 2049.09 1310.72 2026.12C1318.38 1969.25 1341.34 1930.97 1366.5 1909.09C1171.81 1887.22 968.375 1811.75 968.375 1477.06C968.375 1381.91 1002.28 1303.16 1058.06 1241.91C1049.31 1220.03 1018.69 1130.34 1066.81 1010.03C1066.81 1010.03 1140.09 987.062 1307.44 1099.72C1377.44 1080.03 1451.81 1070.19 1526.19 1070.19C1600.56 1070.19 1674.94 1080.03 1744.94 1099.72C1912.28 985.969 1985.56 1010.03 1985.56 1010.03C2033.69 1130.34 2003.06 1220.03 1994.31 1241.91C2050.09 1303.16 2084 1380.81 2084 1477.06C2084 1812.84 1879.47 1887.22 1684.78 1909.09C1716.5 1936.44 1743.84 1988.94 1743.84 2070.97C1743.84 2188 1742.75 2282.06 1742.75 2311.59C1742.75 2334.56 1759.16 2361.91 1802.91 2353.16C2148.53 2237.22 2399 1909.09 2399 1523C2399 1039.56 2007.44 648 1524 648Z" fill="black"/>
</svg>
