<svg width="3047" height="3047" viewBox="0 0 3047 3047" fill="none" xmlns="http://www.w3.org/2000/svg">
<rect width="3047" height="3047" rx="1523.5" fill="white"/>
<path d="M648 773.357C648 704.164 705.928 648 777.336 648H2268.66C2340.1 648 2398 704.164 2398 773.357V2272.66C2398 2341.88 2340.1 2398 2268.66 2398H777.336C705.935 2398 648 2341.88 648 2272.68V773.337V773.357Z" fill="black"/>
<path d="M1179.81 2112.52V1324.66H917.937V2112.52H1179.84H1179.81ZM1048.93 1217.11C1140.23 1217.11 1197.07 1156.61 1197.07 1081.01C1195.36 1003.68 1140.23 944.871 1050.66 944.871C961.038 944.871 902.502 1003.68 902.502 1081C902.502 1156.61 959.322 1217.11 1047.21 1217.11H1048.91L1048.93 1217.11ZM1324.76 2112.52H1586.61V1672.59C1586.61 1649.08 1588.32 1625.5 1595.24 1608.7C1614.16 1561.64 1657.24 1512.92 1729.6 1512.92C1824.33 1512.92 1862.25 1585.16 1862.25 1691.08V2112.52H2124.1V1660.79C2124.1 1418.8 1994.93 1306.19 1822.64 1306.19C1681.39 1306.19 1619.35 1385.14 1584.89 1438.91H1586.63V1324.69H1324.77C1328.19 1398.6 1324.75 2112.54 1324.75 2112.54L1324.76 2112.52Z" fill="white"/>
</svg>
