<svg width="1024" height="1024" viewBox="0 0 1024 1024" fill="none" xmlns="http://www.w3.org/2000/svg">
<rect width="1024" height="1024" fill="white"/>
<path d="M285.6 400.6C284.533 396.467 283.067 392.667 281.2 389.2C279.333 385.733 276.933 382.733 274 380.2C271.067 377.667 267.6 375.733 263.6 374.4C259.733 372.933 255.2 372.2 250 372.2C242.4 372.2 235.8 373.733 230.2 376.8C224.733 379.867 220.267 384 216.8 389.2C213.333 394.267 210.733 400.067 209 406.6C207.4 413.133 206.6 419.8 206.6 426.6C206.6 433.4 207.4 440.067 209 446.6C210.733 453.133 213.333 459 216.8 464.2C220.267 469.267 224.733 473.333 230.2 476.4C235.8 479.467 242.4 481 250 481C255.6 481 260.533 480.067 264.8 478.2C269.067 476.2 272.733 473.533 275.8 470.2C278.867 466.733 281.267 462.733 283 458.2C284.733 453.667 285.867 448.8 286.4 443.6H310.8C310.267 452.133 308.4 459.933 305.2 467C302.133 474.067 297.933 480.2 292.6 485.4C287.267 490.467 281 494.4 273.8 497.2C266.6 500 258.667 501.4 250 501.4C239.333 501.4 229.733 499.467 221.2 495.6C212.8 491.6 205.667 486.2 199.8 479.4C193.933 472.6 189.4 464.667 186.2 455.6C183.133 446.533 181.6 436.867 181.6 426.6C181.6 416.467 183.133 406.867 186.2 397.8C189.4 388.733 193.933 380.8 199.8 374C205.667 367.2 212.8 361.8 221.2 357.8C229.733 353.8 239.333 351.8 250 351.8C258 351.8 265.533 352.933 272.6 355.2C279.667 357.333 285.867 360.533 291.2 364.8C296.667 368.933 301.067 374 304.4 380C307.733 386 309.8 392.867 310.6 400.6H285.6ZM366.736 500.8C358.469 500.8 351.069 499.467 344.536 496.8C338.136 494 332.669 490.2 328.136 485.4C323.736 480.6 320.336 474.867 317.936 468.2C315.669 461.533 314.536 454.2 314.536 446.2C314.536 438.333 315.669 431.067 317.936 424.4C320.336 417.733 323.736 412 328.136 407.2C332.669 402.4 338.136 398.667 344.536 396C351.069 393.2 358.469 391.8 366.736 391.8C375.003 391.8 382.336 393.2 388.736 396C395.269 398.667 400.736 402.4 405.136 407.2C409.669 412 413.069 417.733 415.336 424.4C417.736 431.067 418.936 438.333 418.936 446.2C418.936 454.2 417.736 461.533 415.336 468.2C413.069 474.867 409.669 480.6 405.136 485.4C400.736 490.2 395.269 494 388.736 496.8C382.336 499.467 375.003 500.8 366.736 500.8ZM366.736 482.8C371.803 482.8 376.203 481.733 379.936 479.6C383.669 477.467 386.736 474.667 389.136 471.2C391.536 467.733 393.269 463.867 394.336 459.6C395.536 455.2 396.136 450.733 396.136 446.2C396.136 441.8 395.536 437.4 394.336 433C393.269 428.6 391.536 424.733 389.136 421.4C386.736 417.933 383.669 415.133 379.936 413C376.203 410.867 371.803 409.8 366.736 409.8C361.669 409.8 357.269 410.867 353.536 413C349.803 415.133 346.736 417.933 344.336 421.4C341.936 424.733 340.136 428.6 338.936 433C337.869 437.4 337.336 441.8 337.336 446.2C337.336 450.733 337.869 455.2 338.936 459.6C340.136 463.867 341.936 467.733 344.336 471.2C346.736 474.667 349.803 477.467 353.536 479.6C357.269 481.733 361.669 482.8 366.736 482.8ZM474.291 500.8C466.024 500.8 458.624 499.467 452.091 496.8C445.691 494 440.224 490.2 435.691 485.4C431.291 480.6 427.891 474.867 425.491 468.2C423.224 461.533 422.091 454.2 422.091 446.2C422.091 438.333 423.224 431.067 425.491 424.4C427.891 417.733 431.291 412 435.691 407.2C440.224 402.4 445.691 398.667 452.091 396C458.624 393.2 466.024 391.8 474.291 391.8C482.557 391.8 489.891 393.2 496.291 396C502.824 398.667 508.291 402.4 512.691 407.2C517.224 412 520.624 417.733 522.891 424.4C525.291 431.067 526.491 438.333 526.491 446.2C526.491 454.2 525.291 461.533 522.891 468.2C520.624 474.867 517.224 480.6 512.691 485.4C508.291 490.2 502.824 494 496.291 496.8C489.891 499.467 482.557 500.8 474.291 500.8ZM474.291 482.8C479.357 482.8 483.757 481.733 487.491 479.6C491.224 477.467 494.291 474.667 496.691 471.2C499.091 467.733 500.824 463.867 501.891 459.6C503.091 455.2 503.691 450.733 503.691 446.2C503.691 441.8 503.091 437.4 501.891 433C500.824 428.6 499.091 424.733 496.691 421.4C494.291 417.933 491.224 415.133 487.491 413C483.757 410.867 479.357 409.8 474.291 409.8C469.224 409.8 464.824 410.867 461.091 413C457.357 415.133 454.291 417.933 451.891 421.4C449.491 424.733 447.691 428.6 446.491 433C445.424 437.4 444.891 441.8 444.891 446.2C444.891 450.733 445.424 455.2 446.491 459.6C447.691 463.867 449.491 467.733 451.891 471.2C454.291 474.667 457.357 477.467 461.091 479.6C464.824 481.733 469.224 482.8 474.291 482.8ZM535.045 394.6H556.645V408.6H557.045C560.245 402.6 564.712 398.333 570.445 395.8C576.179 393.133 582.379 391.8 589.045 391.8C597.179 391.8 604.245 393.267 610.245 396.2C616.379 399 621.445 402.933 625.445 408C629.445 412.933 632.445 418.733 634.445 425.4C636.445 432.067 637.445 439.2 637.445 446.8C637.445 453.733 636.512 460.467 634.645 467C632.912 473.533 630.179 479.333 626.445 484.4C622.845 489.333 618.245 493.333 612.645 496.4C607.045 499.333 600.445 500.8 592.845 500.8C589.512 500.8 586.179 500.467 582.845 499.8C579.512 499.267 576.312 498.333 573.245 497C570.179 495.667 567.312 494 564.645 492C562.112 489.867 559.979 487.4 558.245 484.6H557.845V536.2H535.045V394.6ZM614.645 446.4C614.645 441.733 614.045 437.2 612.845 432.8C611.645 428.4 609.845 424.533 607.445 421.2C605.045 417.733 602.045 415 598.445 413C594.845 410.867 590.712 409.8 586.045 409.8C576.445 409.8 569.179 413.133 564.245 419.8C559.445 426.467 557.045 435.333 557.045 446.4C557.045 451.6 557.645 456.467 558.845 461C560.179 465.4 562.112 469.2 564.645 472.4C567.179 475.6 570.179 478.133 573.645 480C577.245 481.867 581.379 482.8 586.045 482.8C591.245 482.8 595.645 481.733 599.245 479.6C602.845 477.467 605.779 474.733 608.045 471.4C610.445 467.933 612.112 464.067 613.045 459.8C614.112 455.4 614.645 450.933 614.645 446.4ZM716.711 437.2C716.444 433.6 715.644 430.133 714.311 426.8C713.111 423.467 711.378 420.6 709.111 418.2C706.978 415.667 704.311 413.667 701.111 412.2C698.044 410.6 694.578 409.8 690.711 409.8C686.711 409.8 683.044 410.533 679.711 412C676.511 413.333 673.711 415.267 671.311 417.8C669.044 420.2 667.178 423.067 665.711 426.4C664.378 429.733 663.644 433.333 663.511 437.2H716.711ZM663.511 452.2C663.511 456.2 664.044 460.067 665.111 463.8C666.311 467.533 668.044 470.8 670.311 473.6C672.578 476.4 675.444 478.667 678.911 480.4C682.378 482 686.511 482.8 691.311 482.8C697.978 482.8 703.311 481.4 707.311 478.6C711.444 475.667 714.511 471.333 716.511 465.6H738.111C736.911 471.2 734.844 476.2 731.911 480.6C728.978 485 725.444 488.733 721.311 491.8C717.178 494.733 712.511 496.933 707.311 498.4C702.244 500 696.911 500.8 691.311 500.8C683.178 500.8 675.978 499.467 669.711 496.8C663.444 494.133 658.111 490.4 653.711 485.6C649.444 480.8 646.178 475.067 643.911 468.4C641.778 461.733 640.711 454.4 640.711 446.4C640.711 439.067 641.844 432.133 644.111 425.6C646.511 418.933 649.844 413.133 654.111 408.2C658.511 403.133 663.778 399.133 669.911 396.2C676.044 393.267 682.978 391.8 690.711 391.8C698.844 391.8 706.111 393.533 712.511 397C719.044 400.333 724.444 404.8 728.711 410.4C732.978 416 736.044 422.467 737.911 429.8C739.911 437 740.444 444.467 739.511 452.2H663.511ZM745.844 394.6H767.244V414.6H767.644C768.31 411.8 769.577 409.067 771.444 406.4C773.444 403.733 775.777 401.333 778.444 399.2C781.244 396.933 784.31 395.133 787.644 393.8C790.977 392.467 794.377 391.8 797.844 391.8C800.51 391.8 802.31 391.867 803.244 392C804.31 392.133 805.377 392.267 806.444 392.4V414.4C804.844 414.133 803.177 413.933 801.444 413.8C799.844 413.533 798.244 413.4 796.644 413.4C792.777 413.4 789.11 414.2 785.644 415.8C782.31 417.267 779.377 419.533 776.844 422.6C774.31 425.533 772.31 429.2 770.844 433.6C769.377 438 768.644 443.067 768.644 448.8V498H745.844V394.6ZM189.2 535.2H257.4C273.133 535.2 284.933 538.6 292.8 545.4C300.667 552.2 304.6 561.667 304.6 573.8C304.6 580.6 303.6 586.267 301.6 590.8C299.6 595.2 297.267 598.8 294.6 601.6C291.933 604.267 289.267 606.2 286.6 607.4C284.067 608.6 282.2 609.4 281 609.8V610.2C283.133 610.467 285.4 611.133 287.8 612.2C290.333 613.267 292.667 615 294.8 617.4C296.933 619.667 298.667 622.667 300 626.4C301.467 630.133 302.2 634.8 302.2 640.4C302.2 648.8 302.8 656.467 304 663.4C305.333 670.2 307.333 675.067 310 678H283.2C281.333 674.933 280.2 671.533 279.8 667.8C279.533 664.067 279.4 660.467 279.4 657C279.4 650.467 279 644.867 278.2 640.2C277.4 635.4 275.933 631.467 273.8 628.4C271.667 625.2 268.733 622.867 265 621.4C261.4 619.933 256.733 619.2 251 619.2H214.2V678H189.2V535.2ZM214.2 600.2H255.2C263.2 600.2 269.267 598.333 273.4 594.6C277.533 590.733 279.6 585 279.6 577.4C279.6 572.867 278.933 569.2 277.6 566.4C276.267 563.467 274.4 561.2 272 559.6C269.733 558 267.067 556.933 264 556.4C261.067 555.867 258 555.6 254.8 555.6H214.2V600.2ZM406.62 678H384.22V663.6H383.82C381.02 668.8 376.82 673 371.22 676.2C365.754 679.267 360.154 680.8 354.42 680.8C340.82 680.8 330.954 677.467 324.82 670.8C318.82 664 315.82 653.8 315.82 640.2V574.6H338.62V638C338.62 647.067 340.354 653.467 343.82 657.2C347.287 660.933 352.154 662.8 358.42 662.8C363.22 662.8 367.22 662.067 370.42 660.6C373.62 659.133 376.22 657.2 378.22 654.8C380.22 652.267 381.62 649.267 382.42 645.8C383.354 642.333 383.82 638.6 383.82 634.6V574.6H406.62V678ZM419.664 574.6H441.264V589.8L441.664 590.2C445.131 584.467 449.664 580 455.264 576.8C460.864 573.467 467.064 571.8 473.864 571.8C485.197 571.8 494.131 574.733 500.664 580.6C507.197 586.467 510.464 595.267 510.464 607V678H487.664V613C487.397 604.867 485.664 599 482.464 595.4C479.264 591.667 474.264 589.8 467.464 589.8C463.597 589.8 460.131 590.533 457.064 592C453.997 593.333 451.397 595.267 449.264 597.8C447.131 600.2 445.464 603.067 444.264 606.4C443.064 609.733 442.464 613.267 442.464 617V678H419.664V574.6ZM512.108 574.6H537.108L564.108 651.8H564.508L590.708 574.6H614.508L574.308 683.6C572.441 688.267 570.574 692.733 568.708 697C566.974 701.267 564.774 705 562.108 708.2C559.574 711.533 556.374 714.133 552.508 716C548.641 718 543.708 719 537.708 719C532.374 719 527.108 718.6 521.908 717.8V698.6C523.774 698.867 525.574 699.133 527.308 699.4C529.041 699.8 530.841 700 532.708 700C535.374 700 537.574 699.667 539.308 699C541.041 698.333 542.441 697.333 543.508 696C544.708 694.8 545.708 693.333 546.508 691.6C547.308 689.867 548.041 687.867 548.708 685.6L551.308 677.6L512.108 574.6ZM702.819 655C702.819 657.8 703.152 659.8 703.819 661C704.619 662.2 706.085 662.8 708.219 662.8C708.885 662.8 709.685 662.8 710.619 662.8C711.552 662.8 712.619 662.667 713.819 662.4V678.2C713.019 678.467 711.952 678.733 710.619 679C709.419 679.4 708.152 679.733 706.819 680C705.485 680.267 704.152 680.467 702.819 680.6C701.485 680.733 700.352 680.8 699.419 680.8C694.752 680.8 690.885 679.867 687.819 678C684.752 676.133 682.752 672.867 681.819 668.2C677.285 672.6 671.685 675.8 665.019 677.8C658.485 679.8 652.152 680.8 646.019 680.8C641.352 680.8 636.885 680.133 632.619 678.8C628.352 677.6 624.552 675.8 621.219 673.4C618.019 670.867 615.419 667.733 613.419 664C611.552 660.133 610.619 655.667 610.619 650.6C610.619 644.2 611.752 639 614.019 635C616.419 631 619.485 627.867 623.219 625.6C627.085 623.333 631.352 621.733 636.019 620.8C640.819 619.733 645.619 618.933 650.419 618.4C654.552 617.6 658.485 617.067 662.219 616.8C665.952 616.4 669.219 615.8 672.019 615C674.952 614.2 677.219 613 678.819 611.4C680.552 609.667 681.419 607.133 681.419 603.8C681.419 600.867 680.685 598.467 679.219 596.6C677.885 594.733 676.152 593.333 674.019 592.4C672.019 591.333 669.752 590.667 667.219 590.4C664.685 590 662.285 589.8 660.019 589.8C653.619 589.8 648.352 591.133 644.219 593.8C640.085 596.467 637.752 600.6 637.219 606.2H614.419C614.819 599.533 616.419 594 619.219 589.6C622.019 585.2 625.552 581.667 629.819 579C634.219 576.333 639.152 574.467 644.619 573.4C650.085 572.333 655.685 571.8 661.419 571.8C666.485 571.8 671.485 572.333 676.419 573.4C681.352 574.467 685.752 576.2 689.619 578.6C693.619 581 696.819 584.133 699.219 588C701.619 591.733 702.819 596.333 702.819 601.8V655ZM680.019 626.2C676.552 628.467 672.285 629.867 667.219 630.4C662.152 630.8 657.085 631.467 652.019 632.4C649.619 632.8 647.285 633.4 645.019 634.2C642.752 634.867 640.752 635.867 639.019 637.2C637.285 638.4 635.885 640.067 634.819 642.2C633.885 644.2 633.419 646.667 633.419 649.6C633.419 652.133 634.152 654.267 635.619 656C637.085 657.733 638.819 659.133 640.819 660.2C642.952 661.133 645.219 661.8 647.619 662.2C650.152 662.6 652.419 662.8 654.419 662.8C656.952 662.8 659.685 662.467 662.619 661.8C665.552 661.133 668.285 660 670.819 658.4C673.485 656.8 675.685 654.8 677.419 652.4C679.152 649.867 680.019 646.8 680.019 643.2V626.2ZM716.352 574.6H737.952V589.8L738.352 590.2C741.818 584.467 746.352 580 751.952 576.8C757.552 573.467 763.752 571.8 770.552 571.8C781.885 571.8 790.818 574.733 797.352 580.6C803.885 586.467 807.152 595.267 807.152 607V678H784.352V613C784.085 604.867 782.352 599 779.152 595.4C775.952 591.667 770.952 589.8 764.152 589.8C760.285 589.8 756.818 590.533 753.752 592C750.685 593.333 748.085 595.267 745.952 597.8C743.818 600.2 742.152 603.067 740.952 606.4C739.752 609.733 739.152 613.267 739.152 617V678H716.352V574.6Z" fill="black"/>
</svg>
