<svg width="3047" height="3047" viewBox="0 0 3047 3047" fill="none" xmlns="http://www.w3.org/2000/svg">
<rect width="3047" height="3047" rx="1523.5" fill="white"/>
<path d="M2033.86 2242.4V1773.57H2189.46V2398H785V1773.57H940.602V2242.4H2033.86Z" fill="black"/>
<path d="M1112.37 1729.13L1876.23 1888.77L1908.56 1735.19L1144.7 1575.55L1112.37 1729.13ZM1213.41 1365.39L1920.69 1694.78L1985.36 1553.32L1278.07 1221.91L1213.41 1365.39ZM1409.43 1017.81L2009.6 1516.95L2108.62 1397.72L1508.45 898.58L1409.43 1017.81ZM1797.42 648L1672.13 740.957L2136.92 1367.41L2262.21 1274.45L1797.42 648ZM1096.2 2084.79H1876.23V1929.19H1096.2V2084.79Z" fill="black"/>
</svg>
