<svg width="3047" height="3047" viewBox="0 0 3047 3047" fill="none" xmlns="http://www.w3.org/2000/svg">
<rect width="3047" height="3047" rx="1523.5" fill="white"/>
<path d="M1198.36 2234.76C1858.77 2234.76 2219.92 1687.44 2219.92 1212.82C2219.92 1197.28 2219.6 1181.8 2218.9 1166.4C2289.18 1115.53 2349.82 1052.55 2398 980.405C2333.67 1009.02 2264.44 1028.27 2191.81 1036.96C2265.94 992.492 2322.85 922.147 2349.7 838.296C2279.22 880.122 2202.12 909.607 2121.71 925.48C2056.19 855.665 1962.92 812 1859.63 812C1661.35 812 1500.57 972.851 1500.57 1171.12C1500.57 1199.31 1503.72 1226.72 1509.88 1253.02C1211.48 1238 946.869 1095.08 769.782 877.753C737.886 932.566 721.11 994.863 721.166 1058.28C721.166 1182.89 784.55 1292.9 880.942 1357.26C823.925 1355.51 768.159 1340.11 718.334 1312.33C718.281 1313.84 718.281 1315.31 718.281 1316.92C718.281 1490.86 842.04 1636.1 1006.33 1669.01C975.471 1677.41 943.632 1681.66 911.652 1681.64C888.557 1681.64 866.049 1679.37 844.174 1675.17C889.884 1817.88 1022.43 1921.73 1179.58 1924.63C1056.69 2020.99 901.889 2078.38 733.643 2078.38C705.023 2078.4 676.425 2076.74 648 2073.4C806.901 2175.29 995.581 2234.74 1198.37 2234.74" fill="black"/>
</svg>
