<svg width="770" height="462" viewBox="0 0 770 462" fill="none" xmlns="http://www.w3.org/2000/svg">
<rect width="770" height="462" fill="#0C354B"/>
<path fill-rule="evenodd" clip-rule="evenodd" d="M236.202 273.077L172.288 292.132C171.842 292.267 171.37 292.284 170.916 292.182C170.462 292.08 170.042 291.861 169.698 291.548C169.353 291.236 169.096 290.839 168.951 290.397C168.806 289.955 168.778 289.482 168.869 289.026L191.706 178.782C191.803 178.332 192.038 177.923 192.379 177.613C192.72 177.304 193.149 177.109 193.607 177.055C194.064 177.002 194.527 177.094 194.93 177.317C195.332 177.54 195.655 177.884 195.852 178.301L238.129 268.813C238.318 269.216 238.418 269.654 238.422 270.099C238.425 270.544 238.332 270.984 238.149 271.39C237.966 271.795 237.697 272.156 237.36 272.447C237.024 272.739 236.629 272.954 236.202 273.077V273.077ZM247.164 268.577L198.225 163.776C197.624 162.484 196.681 161.379 195.499 160.582C194.317 159.785 192.941 159.325 191.517 159.251C190.093 159.153 188.669 159.45 187.403 160.109C186.137 160.768 185.078 161.764 184.342 162.987L131.272 249.697C130.463 251.009 130.042 252.525 130.058 254.067C130.074 255.609 130.527 257.114 131.365 258.409L157.318 298.943C158.295 300.458 159.738 301.615 161.429 302.242C163.119 302.868 164.967 302.93 166.696 302.418L242.034 279.955C243.172 279.624 244.224 279.049 245.119 278.272C246.013 277.495 246.729 276.533 247.216 275.452C247.703 274.372 247.95 273.199 247.94 272.014C247.93 270.829 247.664 269.66 247.159 268.588L247.164 268.577Z" fill="#FEFEFE"/>
<path d="M301.309 275H319.703V247.287H336.636C355.152 247.287 367.516 235.349 367.516 217.259V217.137C367.516 199.047 355.152 187.109 336.636 187.109H301.309V275ZM332.129 201.667C342.666 201.667 348.878 207.209 348.878 217.198V217.32C348.878 227.309 342.666 232.912 332.129 232.912H319.703V201.667H332.129ZM371.906 275H389.692V238.455C389.692 228.953 394.808 223.715 403.579 223.715C406.137 223.715 408.573 224.081 410.035 224.69V209.036C408.695 208.671 406.868 208.366 404.919 208.366C397.305 208.366 392.006 213.056 390.057 221.096H389.692V209.706H371.906V275ZM421.612 201.301C426.972 201.301 431.114 197.098 431.114 192.043C431.114 186.988 426.972 182.785 421.612 182.785C416.253 182.785 412.111 186.988 412.111 192.043C412.111 197.098 416.253 201.301 421.612 201.301ZM412.72 275H430.505V209.706H412.72V275ZM464.314 276.34C481.125 276.34 492.88 267.935 492.88 255.144V255.083C492.88 245.46 487.276 240.1 473.633 237.237L462.548 234.861C455.97 233.461 453.716 231.268 453.716 227.918V227.857C453.716 223.654 457.553 220.914 463.705 220.914C470.283 220.914 474.12 224.446 474.729 229.136L474.79 229.623H491.174V229.014C490.748 217.564 481.064 208.366 463.705 208.366C447.077 208.366 436.357 216.406 436.357 228.832V228.892C436.357 238.638 442.752 244.972 455.421 247.652L466.507 249.967C472.902 251.368 475.095 253.378 475.095 256.849V256.91C475.095 261.113 471.014 263.732 464.314 263.732C457.188 263.732 453.35 260.747 452.193 255.631L452.071 255.083H434.713L434.773 255.631C436.174 267.996 446.224 276.34 464.314 276.34ZM496.661 275H514.446V235.592C514.446 228.222 519.014 223.106 525.775 223.106C532.353 223.106 536.312 227.248 536.312 234.252V275H553.428V235.288C553.428 228.04 557.874 223.106 564.635 223.106C571.517 223.106 575.294 227.248 575.294 234.801V275H593.079V230.354C593.079 217.198 584.491 208.366 571.7 208.366C562.137 208.366 554.341 213.605 551.418 221.827H551.052C548.859 213.239 542.22 208.366 533.084 208.366C524.313 208.366 517.492 213.239 514.812 220.67H514.446V209.706H496.661V275ZM618.787 276.035C627.375 276.035 634.319 271.955 638.034 265.255H638.399V275H656.185V230.232C656.185 217.076 645.282 208.366 628.41 208.366C611.173 208.366 600.819 217.015 599.844 229.075L599.784 229.806H616.046L616.168 229.258C617.021 225.055 621.041 221.949 627.68 221.949C634.623 221.949 638.399 225.543 638.399 231.329V235.349L622.259 236.323C606.057 237.359 596.86 244.302 596.86 256.179V256.301C596.86 267.813 605.692 276.035 618.787 276.035ZM614.462 255.388V255.266C614.462 250.637 618.056 247.713 624.939 247.287L638.399 246.434V251.124C638.399 257.946 632.552 263.062 624.573 263.062C618.421 263.062 614.462 260.199 614.462 255.388Z" fill="white"/>
</svg>
